solid OpenSCAD_Model
  facet normal 1 -0 0
    outer loop
      vertex -0.00999928 -0.12 0.12
      vertex -0.00999928 0.139999 0
      vertex -0.00999928 0.139999 0.12
    endloop
  endfacet
  facet normal 1 0 0
    outer loop
      vertex -0.00999928 0.139999 0
      vertex -0.00999928 -0.12 0.12
      vertex -0.00999928 -0.12 0
    endloop
  endfacet
  facet normal -0 0 1
    outer loop
      vertex -0.169999 0.139999 0.12
      vertex -0.00999928 -0.12 0.12
      vertex -0.00999928 0.139999 0.12
    endloop
  endfacet
  facet normal 0 0 1
    outer loop
      vertex -0.00999928 -0.12 0.12
      vertex -0.169999 0.139999 0.12
      vertex -0.169999 -0.12 0.12
    endloop
  endfacet
  facet normal 0 0 -1
    outer loop
      vertex -0.169999 -0.12 0
      vertex -0.00999928 0.139999 0
      vertex -0.00999928 -0.12 0
    endloop
  endfacet
  facet normal -0 0 -1
    outer loop
      vertex -0.00999928 0.139999 0
      vertex -0.169999 -0.12 0
      vertex -0.169999 0.139999 0
    endloop
  endfacet
  facet normal -1 0 0
    outer loop
      vertex -0.169999 -0.12 0
      vertex -0.169999 0.139999 0.12
      vertex -0.169999 0.139999 0
    endloop
  endfacet
  facet normal -1 -0 0
    outer loop
      vertex -0.169999 0.139999 0.12
      vertex -0.169999 -0.12 0
      vertex -0.169999 -0.12 0.12
    endloop
  endfacet
  facet normal 0 1 -0
    outer loop
      vertex -0.00999928 0.139999 0
      vertex -0.169999 0.139999 0.12
      vertex -0.00999928 0.139999 0.12
    endloop
  endfacet
  facet normal 0 1 0
    outer loop
      vertex -0.169999 0.139999 0.12
      vertex -0.00999928 0.139999 0
      vertex -0.169999 0.139999 0
    endloop
  endfacet
  facet normal 0 -1 0
    outer loop
      vertex -0.169999 -0.12 0
      vertex -0.00999928 -0.12 0.12
      vertex -0.169999 -0.12 0.12
    endloop
  endfacet
  facet normal 0 -1 -0
    outer loop
      vertex -0.00999928 -0.12 0.12
      vertex -0.169999 -0.12 0
      vertex -0.00999928 -0.12 0
    endloop
  endfacet
  facet normal 1 -0 0
    outer loop
      vertex 0.169999 -0.12 0.12
      vertex 0.169999 0.139999 0
      vertex 0.169999 0.139999 0.12
    endloop
  endfacet
  facet normal 1 0 0
    outer loop
      vertex 0.169999 0.139999 0
      vertex 0.169999 -0.12 0.12
      vertex 0.169999 -0.12 0
    endloop
  endfacet
  facet normal -0 0 1
    outer loop
      vertex 0.00999928 0.139999 0.12
      vertex 0.169999 -0.12 0.12
      vertex 0.169999 0.139999 0.12
    endloop
  endfacet
  facet normal 0 0 1
    outer loop
      vertex 0.169999 -0.12 0.12
      vertex 0.00999928 0.139999 0.12
      vertex 0.00999928 -0.12 0.12
    endloop
  endfacet
  facet normal 0 0 -1
    outer loop
      vertex 0.00999928 -0.12 0
      vertex 0.169999 0.139999 0
      vertex 0.169999 -0.12 0
    endloop
  endfacet
  facet normal -0 0 -1
    outer loop
      vertex 0.169999 0.139999 0
      vertex 0.00999928 -0.12 0
      vertex 0.00999928 0.139999 0
    endloop
  endfacet
  facet normal -1 0 0
    outer loop
      vertex 0.00999928 -0.12 0
      vertex 0.00999928 0.139999 0.12
      vertex 0.00999928 0.139999 0
    endloop
  endfacet
  facet normal -1 -0 0
    outer loop
      vertex 0.00999928 0.139999 0.12
      vertex 0.00999928 -0.12 0
      vertex 0.00999928 -0.12 0.12
    endloop
  endfacet
  facet normal 0 1 -0
    outer loop
      vertex 0.169999 0.139999 0
      vertex 0.00999928 0.139999 0.12
      vertex 0.169999 0.139999 0.12
    endloop
  endfacet
  facet normal 0 1 0
    outer loop
      vertex 0.00999928 0.139999 0.12
      vertex 0.169999 0.139999 0
      vertex 0.00999928 0.139999 0
    endloop
  endfacet
  facet normal 0 -1 0
    outer loop
      vertex 0.00999928 -0.12 0
      vertex 0.169999 -0.12 0.12
      vertex 0.00999928 -0.12 0.12
    endloop
  endfacet
  facet normal 0 -1 -0
    outer loop
      vertex 0.169999 -0.12 0.12
      vertex 0.00999928 -0.12 0
      vertex 0.169999 -0.12 0
    endloop
  endfacet
  facet normal 0 -1 0
    outer loop
      vertex -0.0699997 -0.121243 1.03
      vertex 0.0699997 -0.121243 1.12
      vertex -0.0699997 -0.121243 1.12
    endloop
  endfacet
  facet normal 0 -1 -0
    outer loop
      vertex 0.0699997 -0.121243 1.12
      vertex -0.0699997 -0.121243 1.03
      vertex 0.0699997 -0.121243 1.03
    endloop
  endfacet
  facet normal 0.866027 -0.499998 0
    outer loop
      vertex 0.0699997 -0.121243 1.12
      vertex 0.139999 0 1.03
      vertex 0.139999 0 1.12
    endloop
  endfacet
  facet normal 0.866027 -0.499998 0
    outer loop
      vertex 0.139999 0 1.03
      vertex 0.0699997 -0.121243 1.12
      vertex 0.0699997 -0.121243 1.03
    endloop
  endfacet
  facet normal 0 1 -0
    outer loop
      vertex 0.0699997 0.121243 1.03
      vertex -0.0699997 0.121243 1.12
      vertex 0.0699997 0.121243 1.12
    endloop
  endfacet
  facet normal 0 1 0
    outer loop
      vertex -0.0699997 0.121243 1.12
      vertex 0.0699997 0.121243 1.03
      vertex -0.0699997 0.121243 1.03
    endloop
  endfacet
  facet normal 0.866027 0.499998 0
    outer loop
      vertex 0.139999 0 1.12
      vertex 0.0699997 0.121243 1.03
      vertex 0.0699997 0.121243 1.12
    endloop
  endfacet
  facet normal 0.866027 0.499998 0
    outer loop
      vertex 0.0699997 0.121243 1.03
      vertex 0.139999 0 1.12
      vertex 0.139999 0 1.03
    endloop
  endfacet
  facet normal -0.866027 0.499998 0
    outer loop
      vertex -0.139999 0 1.03
      vertex -0.0699997 0.121243 1.12
      vertex -0.0699997 0.121243 1.03
    endloop
  endfacet
  facet normal -0.866027 0.499998 0
    outer loop
      vertex -0.0699997 0.121243 1.12
      vertex -0.139999 0 1.03
      vertex -0.139999 0 1.12
    endloop
  endfacet
  facet normal -0.866027 -0.499998 0
    outer loop
      vertex -0.0699997 -0.121243 1.03
      vertex -0.139999 0 1.12
      vertex -0.139999 0 1.03
    endloop
  endfacet
  facet normal -0.866027 -0.499998 0
    outer loop
      vertex -0.139999 0 1.12
      vertex -0.0699997 -0.121243 1.03
      vertex -0.0699997 -0.121243 1.12
    endloop
  endfacet
  facet normal 0 0 1
    outer loop
      vertex 0.0699997 0.121243 1.12
      vertex 0.0699997 -0.121243 1.12
      vertex 0.139999 0 1.12
    endloop
  endfacet
  facet normal -0 0 1
    outer loop
      vertex -0.0699997 0.121243 1.12
      vertex 0.0699997 -0.121243 1.12
      vertex 0.0699997 0.121243 1.12
    endloop
  endfacet
  facet normal 0 0 1
    outer loop
      vertex -0.0699997 0.121243 1.12
      vertex -0.0699997 -0.121243 1.12
      vertex 0.0699997 -0.121243 1.12
    endloop
  endfacet
  facet normal 0 -0 1
    outer loop
      vertex -0.0699997 -0.121243 1.12
      vertex -0.0699997 0.121243 1.12
      vertex -0.139999 0 1.12
    endloop
  endfacet
  facet normal 0 -1 0
    outer loop
      vertex -0.0849991 -0.147223 1
      vertex 0.0849991 -0.147223 1.03
      vertex -0.0849991 -0.147223 1.03
    endloop
  endfacet
  facet normal 0 -1 -0
    outer loop
      vertex 0.0849991 -0.147223 1.03
      vertex -0.0849991 -0.147223 1
      vertex 0.0849991 -0.147223 1
    endloop
  endfacet
  facet normal 0.866024 -0.500003 0
    outer loop
      vertex 0.0849991 -0.147223 1.03
      vertex 0.169999 0 1
      vertex 0.169999 0 1.03
    endloop
  endfacet
  facet normal 0.866024 -0.500003 0
    outer loop
      vertex 0.169999 0 1
      vertex 0.0849991 -0.147223 1.03
      vertex 0.0849991 -0.147223 1
    endloop
  endfacet
  facet normal 0 1 -0
    outer loop
      vertex 0.0849991 0.147223 1
      vertex -0.0849991 0.147223 1.03
      vertex 0.0849991 0.147223 1.03
    endloop
  endfacet
  facet normal 0 1 0
    outer loop
      vertex -0.0849991 0.147223 1.03
      vertex 0.0849991 0.147223 1
      vertex -0.0849991 0.147223 1
    endloop
  endfacet
  facet normal 0.866024 0.500003 0
    outer loop
      vertex 0.169999 0 1.03
      vertex 0.0849991 0.147223 1
      vertex 0.0849991 0.147223 1.03
    endloop
  endfacet
  facet normal 0.866024 0.500003 0
    outer loop
      vertex 0.0849991 0.147223 1
      vertex 0.169999 0 1.03
      vertex 0.169999 0 1
    endloop
  endfacet
  facet normal -0.866024 0.500003 0
    outer loop
      vertex -0.169999 0 1
      vertex -0.0849991 0.147223 1.03
      vertex -0.0849991 0.147223 1
    endloop
  endfacet
  facet normal -0.866024 0.500003 0
    outer loop
      vertex -0.0849991 0.147223 1.03
      vertex -0.169999 0 1
      vertex -0.169999 0 1.03
    endloop
  endfacet
  facet normal -0.866024 -0.500003 0
    outer loop
      vertex -0.0849991 -0.147223 1
      vertex -0.169999 0 1.03
      vertex -0.169999 0 1
    endloop
  endfacet
  facet normal -0.866024 -0.500003 0
    outer loop
      vertex -0.169999 0 1.03
      vertex -0.0849991 -0.147223 1
      vertex -0.0849991 -0.147223 1.03
    endloop
  endfacet
  facet normal 0 0 1
    outer loop
      vertex 0.0849991 0.147223 1.03
      vertex 0.139999 0 1.03
      vertex 0.169999 0 1.03
    endloop
  endfacet
  facet normal 0 0 1
    outer loop
      vertex 0.0849991 0.147223 1.03
      vertex 0.0699997 0.121243 1.03
      vertex 0.139999 0 1.03
    endloop
  endfacet
  facet normal 0 0 1
    outer loop
      vertex 0.0849991 0.147223 1.03
      vertex -0.0699997 0.121243 1.03
      vertex 0.0699997 0.121243 1.03
    endloop
  endfacet
  facet normal -0 0 1
    outer loop
      vertex -0.0849991 0.147223 1.03
      vertex -0.0699997 0.121243 1.03
      vertex 0.0849991 0.147223 1.03
    endloop
  endfacet
  facet normal 0 0 1
    outer loop
      vertex -0.0849991 0.147223 1.03
      vertex -0.139999 0 1.03
      vertex -0.0699997 0.121243 1.03
    endloop
  endfacet
  facet normal 0 -0 1
    outer loop
      vertex -0.139999 0 1.03
      vertex -0.0849991 0.147223 1.03
      vertex -0.169999 0 1.03
    endloop
  endfacet
  facet normal -0 0 1
    outer loop
      vertex 0.139999 0 1.03
      vertex 0.0849991 -0.147223 1.03
      vertex 0.169999 0 1.03
    endloop
  endfacet
  facet normal -0 0 1
    outer loop
      vertex 0.0699997 -0.121243 1.03
      vertex 0.0849991 -0.147223 1.03
      vertex 0.139999 0 1.03
    endloop
  endfacet
  facet normal -0 0 1
    outer loop
      vertex -0.0699997 -0.121243 1.03
      vertex 0.0849991 -0.147223 1.03
      vertex 0.0699997 -0.121243 1.03
    endloop
  endfacet
  facet normal 0 0 1
    outer loop
      vertex -0.0699997 -0.121243 1.03
      vertex -0.0849991 -0.147223 1.03
      vertex 0.0849991 -0.147223 1.03
    endloop
  endfacet
  facet normal 0 0 1
    outer loop
      vertex -0.139999 0 1.03
      vertex -0.0849991 -0.147223 1.03
      vertex -0.0699997 -0.121243 1.03
    endloop
  endfacet
  facet normal 0 0 1
    outer loop
      vertex -0.0849991 -0.147223 1.03
      vertex -0.139999 0 1.03
      vertex -0.169999 0 1.03
    endloop
  endfacet
  facet normal 0 0 -1
    outer loop
      vertex 0.0849991 -0.147223 1
      vertex 0.0849991 0.147223 1
      vertex 0.169999 0 1
    endloop
  endfacet
  facet normal 0 0 -1
    outer loop
      vertex -0.0849991 -0.147223 1
      vertex 0.0849991 0.147223 1
      vertex 0.0849991 -0.147223 1
    endloop
  endfacet
  facet normal 0 0 -1
    outer loop
      vertex -0.0849991 -0.147223 1
      vertex -0.0849991 0.147223 1
      vertex 0.0849991 0.147223 1
    endloop
  endfacet
  facet normal 0 -0 -1
    outer loop
      vertex -0.0849991 0.147223 1
      vertex -0.0849991 -0.147223 1
      vertex -0.169999 0 1
    endloop
  endfacet
  facet normal 1 -0 0
    outer loop
      vertex 0.15 -0.299999 0.82
      vertex 0.15 -0.139999 0.52
      vertex 0.15 -0.139999 0.82
    endloop
  endfacet
  facet normal 1 0 0
    outer loop
      vertex 0.15 -0.139999 0.52
      vertex 0.15 -0.299999 0.82
      vertex 0.15 -0.299999 0.52
    endloop
  endfacet
  facet normal -0 0 1
    outer loop
      vertex -0.15 -0.139999 0.82
      vertex 0.15 -0.299999 0.82
      vertex 0.15 -0.139999 0.82
    endloop
  endfacet
  facet normal 0 0 1
    outer loop
      vertex 0.15 -0.299999 0.82
      vertex -0.15 -0.139999 0.82
      vertex -0.15 -0.299999 0.82
    endloop
  endfacet
  facet normal 0 0 -1
    outer loop
      vertex -0.15 -0.299999 0.52
      vertex 0.15 -0.139999 0.52
      vertex 0.15 -0.299999 0.52
    endloop
  endfacet
  facet normal -0 0 -1
    outer loop
      vertex 0.15 -0.139999 0.52
      vertex -0.15 -0.299999 0.52
      vertex -0.15 -0.139999 0.52
    endloop
  endfacet
  facet normal -1 0 0
    outer loop
      vertex -0.15 -0.299999 0.52
      vertex -0.15 -0.139999 0.82
      vertex -0.15 -0.139999 0.52
    endloop
  endfacet
  facet normal -1 -0 0
    outer loop
      vertex -0.15 -0.139999 0.82
      vertex -0.15 -0.299999 0.52
      vertex -0.15 -0.299999 0.82
    endloop
  endfacet
  facet normal 0 1 -0
    outer loop
      vertex 0.15 -0.139999 0.52
      vertex -0.15 -0.139999 0.82
      vertex 0.15 -0.139999 0.82
    endloop
  endfacet
  facet normal 0 1 0
    outer loop
      vertex -0.15 -0.139999 0.82
      vertex 0.15 -0.139999 0.52
      vertex -0.15 -0.139999 0.52
    endloop
  endfacet
  facet normal 0 -1 0
    outer loop
      vertex -0.15 -0.299999 0.52
      vertex 0.15 -0.299999 0.82
      vertex -0.15 -0.299999 0.82
    endloop
  endfacet
  facet normal 0 -1 -0
    outer loop
      vertex 0.15 -0.299999 0.82
      vertex -0.15 -0.299999 0.52
      vertex 0.15 -0.299999 0.52
    endloop
  endfacet
endsolid OpenSCAD_Model
