solid OpenSCAD_Model
  facet normal 0.784886 0.365997 -0.500001
    outer loop
      vertex -0.225465 0.589992 0.66
      vertex -0.0534134 0.1737 0.625358
      vertex -0.245857 0.580482 0.621028
    endloop
  endfacet
  facet normal 0.784873 0.365994 -0.500023
    outer loop
      vertex -0.0534134 0.1737 0.625358
      vertex -0.225465 0.589992 0.66
      vertex -0.0369769 0.138452 0.625358
    endloop
  endfacet
  facet normal 0.78491 0.36601 -0.499953
    outer loop
      vertex -0.245857 0.580482 0.621028
      vertex -0.0534134 0.1737 0.625358
      vertex -0.055679 0.172644 0.621028
    endloop
  endfacet
  facet normal 0.784837 0.365982 -0.500089
    outer loop
      vertex -0.0211279 0.100485 0.622445
      vertex -0.0303219 0.118265 0.621028
      vertex -0.0288388 0.118957 0.623862
    endloop
  endfacet
  facet normal 0.784847 0.365989 -0.500068
    outer loop
      vertex -0.0303219 0.118265 0.621028
      vertex -0.0211279 0.100485 0.622445
      vertex -0.0218694 0.100139 0.621028
    endloop
  endfacet
  facet normal 0 0 -1
    outer loop
      vertex -0.0964631 0.153626 0.621028
      vertex -0.245857 0.580482 0.621028
      vertex -0.055679 0.172644 0.621028
    endloop
  endfacet
  facet normal 0 -0 -1
    outer loop
      vertex -0.245857 0.580482 0.621028
      vertex -0.0964631 0.153626 0.621028
      vertex -0.286641 0.561464 0.621028
    endloop
  endfacet
  facet normal 0 0 -1
    outer loop
      vertex -0.0626535 0.081121 0.621028
      vertex -0.0303219 0.118265 0.621028
      vertex -0.0218694 0.100139 0.621028
    endloop
  endfacet
  facet normal 0 0 -1
    outer loop
      vertex -0.0303219 0.118265 0.621028
      vertex -0.0626535 0.081121 0.621028
      vertex -0.0711059 0.0992474 0.621028
    endloop
  endfacet
  facet normal 0.78489 0.365999 -0.499992
    outer loop
      vertex -0.00147771 0.109648 0.66
      vertex -0.0369769 0.138452 0.625358
      vertex -0.225465 0.589992 0.66
    endloop
  endfacet
  facet normal 0.784891 0.366014 -0.49998
    outer loop
      vertex -0.0369769 0.138452 0.625358
      vertex -0.00147771 0.109648 0.66
      vertex -0.0280561 0.119322 0.625358
    endloop
  endfacet
  facet normal 0.784893 0.366001 -0.499986
    outer loop
      vertex -0.0211279 0.100485 0.622445
      vertex -0.0280561 0.119322 0.625358
      vertex -0.00147771 0.109648 0.66
    endloop
  endfacet
  facet normal 0.784909 0.366003 -0.49996
    outer loop
      vertex -0.0280561 0.119322 0.625358
      vertex -0.0211279 0.100485 0.622445
      vertex -0.0288388 0.118957 0.623862
    endloop
  endfacet
  facet normal -0.42262 0.906307 0
    outer loop
      vertex -0.245857 0.580482 0.621028
      vertex -0.286641 0.561464 0.698971
      vertex -0.245857 0.580482 0.698971
    endloop
  endfacet
  facet normal -0.42262 0.906307 0
    outer loop
      vertex -0.286641 0.561464 0.698971
      vertex -0.245857 0.580482 0.621028
      vertex -0.286641 0.561464 0.621028
    endloop
  endfacet
  facet normal 0 0 1
    outer loop
      vertex -0.245857 0.580482 0.698971
      vertex -0.0626535 0.081121 0.698971
      vertex -0.0218694 0.100139 0.698971
    endloop
  endfacet
  facet normal 0 0 1
    outer loop
      vertex -0.0626535 0.081121 0.698971
      vertex -0.245857 0.580482 0.698971
      vertex -0.286641 0.561464 0.698971
    endloop
  endfacet
  facet normal 0.784888 0.365998 0.499996
    outer loop
      vertex -0.00147771 0.109648 0.66
      vertex -0.225465 0.589992 0.66
      vertex -0.0211279 0.100485 0.697554
    endloop
  endfacet
  facet normal 0.78488 0.365996 0.50001
    outer loop
      vertex -0.245857 0.580482 0.698971
      vertex -0.0211279 0.100485 0.697554
      vertex -0.225465 0.589992 0.66
    endloop
  endfacet
  facet normal 0.78485 0.365982 0.500068
    outer loop
      vertex -0.0211279 0.100485 0.697554
      vertex -0.245857 0.580482 0.698971
      vertex -0.0218694 0.100139 0.698971
    endloop
  endfacet
  facet normal -0.422657 0.90629 0
    outer loop
      vertex -0.225465 0.589992 0.66
      vertex -0.245857 0.580482 0.621028
      vertex -0.245857 0.580482 0.698971
    endloop
  endfacet
  facet normal -0.42262 0.906307 0
    outer loop
      vertex -0.286641 0.561464 0.621028
      vertex -0.307033 0.551955 0.66
      vertex -0.286641 0.561464 0.698971
    endloop
  endfacet
  facet normal -0.784905 -0.366004 -0.499965
    outer loop
      vertex -0.0711059 0.0992474 0.621028
      vertex -0.0626535 0.081121 0.621028
      vertex -0.0733709 0.0981913 0.625357
    endloop
  endfacet
  facet normal -0.784889 -0.366 -0.499994
    outer loop
      vertex -0.0964631 0.153626 0.621028
      vertex -0.307033 0.551955 0.66
      vertex -0.286641 0.561464 0.621028
    endloop
  endfacet
  facet normal -0.784899 -0.366007 -0.499972
    outer loop
      vertex -0.0987282 0.15257 0.625357
      vertex -0.307033 0.551955 0.66
      vertex -0.0964631 0.153626 0.621028
    endloop
  endfacet
  facet normal -0.784892 -0.366002 -0.499987
    outer loop
      vertex -0.083045 0.0716124 0.66
      vertex -0.0987282 0.15257 0.625357
      vertex -0.0733709 0.0981913 0.625357
    endloop
  endfacet
  facet normal -0.784898 -0.365995 -0.499983
    outer loop
      vertex -0.083045 0.0716124 0.66
      vertex -0.0733709 0.0981913 0.625357
      vertex -0.0626535 0.081121 0.621028
    endloop
  endfacet
  facet normal -0.784892 -0.366002 -0.499987
    outer loop
      vertex -0.0987282 0.15257 0.625357
      vertex -0.083045 0.0716124 0.66
      vertex -0.307033 0.551955 0.66
    endloop
  endfacet
  facet normal 0 0 -1
    outer loop
      vertex -0.0745926 0.0534859 0.66
      vertex -0.083045 0.0716124 0.66
      vertex -0.0745925 0.0534859 0.66
    endloop
  endfacet
  facet normal -0 -0 -1
    outer loop
      vertex -0.083045 0.0716124 0.66
      vertex -0.0745926 0.0534859 0.66
      vertex -0.307033 0.551955 0.66
    endloop
  endfacet
  facet normal -0.784884 -0.365997 0.500003
    outer loop
      vertex -0.307033 0.551955 0.66
      vertex -0.0626535 0.081121 0.698971
      vertex -0.286641 0.561464 0.698971
    endloop
  endfacet
  facet normal -0.784889 -0.366001 0.499993
    outer loop
      vertex -0.307033 0.551955 0.66
      vertex -0.083045 0.0716124 0.66
      vertex -0.0626535 0.081121 0.698971
    endloop
  endfacet
  facet normal 0 0 1
    outer loop
      vertex -0.0745926 0.0534859 0.66
      vertex -0.083045 0.0716124 0.66
      vertex -0.307033 0.551955 0.66
    endloop
  endfacet
  facet normal 0 0 1
    outer loop
      vertex -0.083045 0.0716124 0.66
      vertex -0.0745926 0.0534859 0.66
      vertex -0.0745925 0.0534859 0.66
    endloop
  endfacet
  facet normal 0 0 1
    outer loop
      vertex -0.00147724 0.109648 0.709999
      vertex 0.0521917 -0.218405 0.709999
      vertex 0.133759 -0.180369 0.709999
    endloop
  endfacet
  facet normal 0 0 1
    outer loop
      vertex 0.0521917 -0.218405 0.709999
      vertex -0.00147724 0.109648 0.709999
      vertex -0.083045 0.0716124 0.709999
    endloop
  endfacet
  facet normal 0.906309 0.422616 0
    outer loop
      vertex 0.133759 -0.180369 0.709999
      vertex -0.00147724 0.109648 0.58
      vertex -0.00147724 0.109648 0.709999
    endloop
  endfacet
  facet normal 0.906309 0.422616 0
    outer loop
      vertex -0.00147724 0.109648 0.58
      vertex 0.133759 -0.180369 0.709999
      vertex 0.133759 -0.180369 0.58
    endloop
  endfacet
  facet normal -0.906308 -0.422617 0
    outer loop
      vertex -0.083045 0.0716124 0.58
      vertex -0.0745925 0.0534859 0.66
      vertex -0.083045 0.0716124 0.66
    endloop
  endfacet
  facet normal -0.906309 -0.422617 -0
    outer loop
      vertex 0.0521917 -0.218405 0.709999
      vertex -0.0745925 0.0534859 0.66
      vertex 0.0521917 -0.218405 0.58
    endloop
  endfacet
  facet normal -0.906309 -0.422617 1.5746e-07
    outer loop
      vertex 0.0521917 -0.218405 0.58
      vertex -0.0745925 0.0534859 0.66
      vertex -0.083045 0.0716124 0.58
    endloop
  endfacet
  facet normal -0.906308 -0.422617 0
    outer loop
      vertex -0.0745925 0.0534859 0.66
      vertex -0.083045 0.0716124 0.709999
      vertex -0.083045 0.0716124 0.66
    endloop
  endfacet
  facet normal -0.906309 -0.422617 -2.51941e-07
    outer loop
      vertex -0.0745925 0.0534859 0.66
      vertex 0.0521917 -0.218405 0.709999
      vertex -0.083045 0.0716124 0.709999
    endloop
  endfacet
  facet normal -0.422618 0.906308 2.12647e-07
    outer loop
      vertex -0.00147724 0.109648 0.709999
      vertex -0.0218694 0.100139 0.698971
      vertex -0.083045 0.0716124 0.709999
    endloop
  endfacet
  facet normal -0.422669 0.906284 0.000116457
    outer loop
      vertex -0.00147724 0.109648 0.709999
      vertex -0.0211279 0.100485 0.697554
      vertex -0.0218694 0.100139 0.698971
    endloop
  endfacet
  facet normal -0.422611 0.906311 3.97262e-06
    outer loop
      vertex -0.00147724 0.109648 0.709999
      vertex -0.00147771 0.109648 0.66
      vertex -0.0211279 0.100485 0.697554
    endloop
  endfacet
  facet normal -0.422619 0.906307 -1.13308e-06
    outer loop
      vertex -0.0218694 0.100139 0.621028
      vertex -0.00147724 0.109648 0.58
      vertex -0.0626535 0.081121 0.621028
    endloop
  endfacet
  facet normal -0.422738 0.906252 -7.27816e-05
    outer loop
      vertex -0.0211279 0.100485 0.622445
      vertex -0.00147724 0.109648 0.58
      vertex -0.0218694 0.100139 0.621028
    endloop
  endfacet
  facet normal -0.422613 0.90631 -2.48285e-06
    outer loop
      vertex -0.00147771 0.109648 0.66
      vertex -0.00147724 0.109648 0.58
      vertex -0.0211279 0.100485 0.622445
    endloop
  endfacet
  facet normal 0 1 -0
    outer loop
      vertex -0.00147724 0.109648 0.58
      vertex -0.00147771 0.109648 0.66
      vertex -0.00147724 0.109648 0.709999
    endloop
  endfacet
  facet normal -0.422619 0.906307 -1.17956e-05
    outer loop
      vertex -0.0626535 0.081121 0.698971
      vertex -0.083045 0.0716124 0.709999
      vertex -0.0218694 0.100139 0.698971
    endloop
  endfacet
  facet normal -0.422614 0.90631 0
    outer loop
      vertex -0.083045 0.0716124 0.709999
      vertex -0.0626535 0.081121 0.698971
      vertex -0.083045 0.0716124 0.66
    endloop
  endfacet
  facet normal -0.422614 0.90631 0
    outer loop
      vertex -0.0626535 0.081121 0.621028
      vertex -0.083045 0.0716124 0.58
      vertex -0.083045 0.0716124 0.66
    endloop
  endfacet
  facet normal -0.422618 0.906308 2.09468e-06
    outer loop
      vertex -0.083045 0.0716124 0.58
      vertex -0.0626535 0.081121 0.621028
      vertex -0.00147724 0.109648 0.58
    endloop
  endfacet
  facet normal 0 0 -1
    outer loop
      vertex 0.0521917 -0.218405 0.58
      vertex -0.0226574 -0.0105648 0.58
      vertex 0.0226574 0.0105648 0.58
    endloop
  endfacet
  facet normal 0 0 -1
    outer loop
      vertex -0.083045 0.0716124 0.58
      vertex -0.0226574 -0.0105648 0.58
      vertex 0.0521917 -0.218405 0.58
    endloop
  endfacet
  facet normal 0 0 -1
    outer loop
      vertex -0.0226574 -0.0105648 0.58
      vertex -0.083045 0.0716124 0.58
      vertex -0.043788 0.034749 0.58
    endloop
  endfacet
  facet normal 0 0 -1
    outer loop
      vertex 0.0226574 0.0105648 0.58
      vertex 0.133759 -0.180369 0.58
      vertex 0.0521917 -0.218405 0.58
    endloop
  endfacet
  facet normal 0 0 -1
    outer loop
      vertex -0.00147724 0.109648 0.58
      vertex 0.0226574 0.0105648 0.58
      vertex 0.00152588 0.0558805 0.58
    endloop
  endfacet
  facet normal 0 0 -1
    outer loop
      vertex 0.0226574 0.0105648 0.58
      vertex -0.00147724 0.109648 0.58
      vertex 0.133759 -0.180369 0.58
    endloop
  endfacet
  facet normal 0 0 -1
    outer loop
      vertex -0.043788 0.034749 0.58
      vertex -0.00147724 0.109648 0.58
      vertex 0.00152588 0.0558805 0.58
    endloop
  endfacet
  facet normal 0 0 -1
    outer loop
      vertex -0.00147724 0.109648 0.58
      vertex -0.043788 0.034749 0.58
      vertex -0.083045 0.0716124 0.58
    endloop
  endfacet
  facet normal 0.422623 -0.906305 0
    outer loop
      vertex 0.0521917 -0.218405 0.58
      vertex 0.133759 -0.180369 0.709999
      vertex 0.0521917 -0.218405 0.709999
    endloop
  endfacet
  facet normal 0.422623 -0.906305 0
    outer loop
      vertex 0.133759 -0.180369 0.709999
      vertex 0.0521917 -0.218405 0.58
      vertex 0.133759 -0.180369 0.58
    endloop
  endfacet
  facet normal 0.906307 0.42262 0
    outer loop
      vertex -0.0369769 0.138452 0.625358
      vertex -0.0534134 0.1737 0.54
      vertex -0.0534134 0.1737 0.625358
    endloop
  endfacet
  facet normal 0.906302 0.422631 -0
    outer loop
      vertex -0.0280561 0.119322 0.54
      vertex -0.0369769 0.138452 0.625358
      vertex -0.0280561 0.119322 0.625358
    endloop
  endfacet
  facet normal 0.906305 0.422624 1.97471e-06
    outer loop
      vertex -0.0369769 0.138452 0.625358
      vertex -0.0280561 0.119322 0.54
      vertex -0.0534134 0.1737 0.54
    endloop
  endfacet
  facet normal -0.906307 -0.42262 0
    outer loop
      vertex -0.0733709 0.0981913 0.54
      vertex -0.0987282 0.15257 0.625357
      vertex -0.0987282 0.15257 0.54
    endloop
  endfacet
  facet normal -0.906307 -0.42262 0
    outer loop
      vertex -0.0987282 0.15257 0.625357
      vertex -0.0733709 0.0981913 0.54
      vertex -0.0733709 0.0981913 0.625357
    endloop
  endfacet
  facet normal -0.422619 0.906307 -5.25774e-06
    outer loop
      vertex -0.055679 0.172644 0.621028
      vertex -0.0534134 0.1737 0.54
      vertex -0.0964631 0.153626 0.621028
    endloop
  endfacet
  facet normal -0.422465 0.906379 0
    outer loop
      vertex -0.0534134 0.1737 0.54
      vertex -0.055679 0.172644 0.621028
      vertex -0.0534134 0.1737 0.625358
    endloop
  endfacet
  facet normal -0.422542 0.906344 0
    outer loop
      vertex -0.0964631 0.153626 0.621028
      vertex -0.0987282 0.15257 0.54
      vertex -0.0987282 0.15257 0.625357
    endloop
  endfacet
  facet normal -0.422608 0.906313 2.25462e-06
    outer loop
      vertex -0.0987282 0.15257 0.54
      vertex -0.0964631 0.153626 0.621028
      vertex -0.0534134 0.1737 0.54
    endloop
  endfacet
  facet normal 0 0 -1
    outer loop
      vertex -0.0733709 0.0981913 0.54
      vertex -0.0534134 0.1737 0.54
      vertex -0.0280561 0.119322 0.54
    endloop
  endfacet
  facet normal 0 0 -1
    outer loop
      vertex -0.0534134 0.1737 0.54
      vertex -0.0733709 0.0981913 0.54
      vertex -0.0987282 0.15257 0.54
    endloop
  endfacet
  facet normal 0.422613 -0.90631 -7.90288e-07
    outer loop
      vertex -0.0711059 0.0992474 0.621028
      vertex -0.0733709 0.0981913 0.54
      vertex -0.0303219 0.118265 0.621028
    endloop
  endfacet
  facet normal 0.42259 -0.906321 0
    outer loop
      vertex -0.0733709 0.0981913 0.54
      vertex -0.0711059 0.0992474 0.621028
      vertex -0.0733709 0.0981913 0.625357
    endloop
  endfacet
  facet normal 0.422638 -0.906298 0
    outer loop
      vertex -0.0288388 0.118957 0.623862
      vertex -0.0280561 0.119322 0.54
      vertex -0.0280561 0.119322 0.625358
    endloop
  endfacet
  facet normal 0.422825 -0.906211 2.12533e-06
    outer loop
      vertex -0.0303219 0.118265 0.621028
      vertex -0.0280561 0.119322 0.54
      vertex -0.0288388 0.118957 0.623862
    endloop
  endfacet
  facet normal 0.422619 -0.906307 -4.88813e-06
    outer loop
      vertex -0.0280561 0.119322 0.54
      vertex -0.0303219 0.118265 0.621028
      vertex -0.0733709 0.0981913 0.54
    endloop
  endfacet
  facet normal 0.906304 0.422626 0
    outer loop
      vertex 0.0226574 0.0105648 0.58
      vertex 0.00152588 0.0558805 0.549999
      vertex 0.00152588 0.0558805 0.58
    endloop
  endfacet
  facet normal 0.906304 0.422626 0
    outer loop
      vertex 0.00152588 0.0558805 0.549999
      vertex 0.0226574 0.0105648 0.58
      vertex 0.0226574 0.0105648 0.549999
    endloop
  endfacet
  facet normal -0.906305 -0.422625 0
    outer loop
      vertex -0.0226574 -0.0105648 0.549999
      vertex -0.043788 0.034749 0.58
      vertex -0.043788 0.034749 0.549999
    endloop
  endfacet
  facet normal -0.906305 -0.422625 0
    outer loop
      vertex -0.043788 0.034749 0.58
      vertex -0.0226574 -0.0105648 0.549999
      vertex -0.0226574 -0.0105648 0.58
    endloop
  endfacet
  facet normal -0.422639 0.906298 0
    outer loop
      vertex 0.00152588 0.0558805 0.549999
      vertex -0.043788 0.034749 0.58
      vertex 0.00152588 0.0558805 0.58
    endloop
  endfacet
  facet normal -0.422639 0.906298 0
    outer loop
      vertex -0.043788 0.034749 0.58
      vertex 0.00152588 0.0558805 0.549999
      vertex -0.043788 0.034749 0.549999
    endloop
  endfacet
  facet normal 0 0 -1
    outer loop
      vertex -0.0226574 -0.0105648 0.549999
      vertex 0.00152588 0.0558805 0.549999
      vertex 0.0226574 0.0105648 0.549999
    endloop
  endfacet
  facet normal 0 0 -1
    outer loop
      vertex 0.00152588 0.0558805 0.549999
      vertex -0.0226574 -0.0105648 0.549999
      vertex -0.043788 0.034749 0.549999
    endloop
  endfacet
  facet normal 0.422601 -0.906316 0
    outer loop
      vertex -0.0226574 -0.0105648 0.549999
      vertex 0.0226574 0.0105648 0.58
      vertex -0.0226574 -0.0105648 0.58
    endloop
  endfacet
  facet normal 0.422601 -0.906316 0
    outer loop
      vertex 0.0226574 0.0105648 0.58
      vertex -0.0226574 -0.0105648 0.549999
      vertex 0.0226574 0.0105648 0.549999
    endloop
  endfacet
endsolid OpenSCAD_Model
