solid OpenSCAD_Model
  facet normal 1 -0 0
    outer loop
      vertex -0.0199995 -0.0799999 0.5
      vertex -0.0199995 0.0799999 0.12
      vertex -0.0199995 0.0799999 0.5
    endloop
  endfacet
  facet normal 1 0 0
    outer loop
      vertex -0.0199995 0.0799999 0.12
      vertex -0.0199995 -0.0799999 0.5
      vertex -0.0199995 -0.0799999 0.12
    endloop
  endfacet
  facet normal 0 0 -1
    outer loop
      vertex 0.209999 -0.12 0.5
      vertex 0.16 -0.0799999 0.5
      vertex 0.209999 0.12 0.5
    endloop
  endfacet
  facet normal 0 0 -1
    outer loop
      vertex 0.209999 -0.12 0.5
      vertex 0.0199995 -0.0799999 0.5
      vertex 0.16 -0.0799999 0.5
    endloop
  endfacet
  facet normal 0 0 -1
    outer loop
      vertex 0.0199995 -0.0799999 0.5
      vertex -0.0199995 -0.0799999 0.5
      vertex 0.0199995 0.0799999 0.5
    endloop
  endfacet
  facet normal 0 0 -1
    outer loop
      vertex 0.209999 -0.12 0.5
      vertex -0.0199995 -0.0799999 0.5
      vertex 0.0199995 -0.0799999 0.5
    endloop
  endfacet
  facet normal 0 0 -1
    outer loop
      vertex -0.209999 -0.12 0.5
      vertex -0.0199995 -0.0799999 0.5
      vertex 0.209999 -0.12 0.5
    endloop
  endfacet
  facet normal -0 0 -1
    outer loop
      vertex -0.16 -0.0799999 0.5
      vertex -0.209999 -0.12 0.5
      vertex -0.16 0.0799999 0.5
    endloop
  endfacet
  facet normal -0 0 -1
    outer loop
      vertex -0.0199995 -0.0799999 0.5
      vertex -0.209999 -0.12 0.5
      vertex -0.16 -0.0799999 0.5
    endloop
  endfacet
  facet normal 0 0 -1
    outer loop
      vertex 0.16 0.0799999 0.5
      vertex 0.209999 0.12 0.5
      vertex 0.16 -0.0799999 0.5
    endloop
  endfacet
  facet normal 0 0 -1
    outer loop
      vertex 0.0199995 0.0799999 0.5
      vertex 0.209999 0.12 0.5
      vertex 0.16 0.0799999 0.5
    endloop
  endfacet
  facet normal 0 0 -1
    outer loop
      vertex -0.0199995 0.0799999 0.5
      vertex 0.0199995 0.0799999 0.5
      vertex -0.0199995 -0.0799999 0.5
    endloop
  endfacet
  facet normal 0 0 -1
    outer loop
      vertex -0.0199995 0.0799999 0.5
      vertex 0.209999 0.12 0.5
      vertex 0.0199995 0.0799999 0.5
    endloop
  endfacet
  facet normal 0 0 -1
    outer loop
      vertex -0.209999 0.12 0.5
      vertex -0.0199995 0.0799999 0.5
      vertex -0.16 0.0799999 0.5
    endloop
  endfacet
  facet normal 0 0 -1
    outer loop
      vertex -0.0199995 0.0799999 0.5
      vertex -0.209999 0.12 0.5
      vertex 0.209999 0.12 0.5
    endloop
  endfacet
  facet normal 0 0 -1
    outer loop
      vertex -0.209999 0.12 0.5
      vertex -0.16 0.0799999 0.5
      vertex -0.209999 -0.12 0.5
    endloop
  endfacet
  facet normal 0 0 -1
    outer loop
      vertex -0.16 -0.0799999 0.12
      vertex -0.0199995 0.0799999 0.12
      vertex -0.0199995 -0.0799999 0.12
    endloop
  endfacet
  facet normal -0 0 -1
    outer loop
      vertex -0.0199995 0.0799999 0.12
      vertex -0.16 -0.0799999 0.12
      vertex -0.16 0.0799999 0.12
    endloop
  endfacet
  facet normal -1 0 0
    outer loop
      vertex -0.16 -0.0799999 0.12
      vertex -0.16 0.0799999 0.5
      vertex -0.16 0.0799999 0.12
    endloop
  endfacet
  facet normal -1 -0 0
    outer loop
      vertex -0.16 0.0799999 0.5
      vertex -0.16 -0.0799999 0.12
      vertex -0.16 -0.0799999 0.5
    endloop
  endfacet
  facet normal 0 1 -0
    outer loop
      vertex -0.0199995 0.0799999 0.12
      vertex -0.16 0.0799999 0.5
      vertex -0.0199995 0.0799999 0.5
    endloop
  endfacet
  facet normal 0 1 0
    outer loop
      vertex -0.16 0.0799999 0.5
      vertex -0.0199995 0.0799999 0.12
      vertex -0.16 0.0799999 0.12
    endloop
  endfacet
  facet normal 0 -1 0
    outer loop
      vertex -0.16 -0.0799999 0.12
      vertex -0.0199995 -0.0799999 0.5
      vertex -0.16 -0.0799999 0.5
    endloop
  endfacet
  facet normal 0 -1 -0
    outer loop
      vertex -0.0199995 -0.0799999 0.5
      vertex -0.16 -0.0799999 0.12
      vertex -0.0199995 -0.0799999 0.12
    endloop
  endfacet
  facet normal 1 -0 0
    outer loop
      vertex 0.16 -0.0799999 0.5
      vertex 0.16 0.0799999 0.12
      vertex 0.16 0.0799999 0.5
    endloop
  endfacet
  facet normal 1 0 0
    outer loop
      vertex 0.16 0.0799999 0.12
      vertex 0.16 -0.0799999 0.5
      vertex 0.16 -0.0799999 0.12
    endloop
  endfacet
  facet normal 0 0 -1
    outer loop
      vertex 0.0199995 -0.0799999 0.12
      vertex 0.16 0.0799999 0.12
      vertex 0.16 -0.0799999 0.12
    endloop
  endfacet
  facet normal -0 0 -1
    outer loop
      vertex 0.16 0.0799999 0.12
      vertex 0.0199995 -0.0799999 0.12
      vertex 0.0199995 0.0799999 0.12
    endloop
  endfacet
  facet normal -1 0 0
    outer loop
      vertex 0.0199995 -0.0799999 0.12
      vertex 0.0199995 0.0799999 0.5
      vertex 0.0199995 0.0799999 0.12
    endloop
  endfacet
  facet normal -1 -0 0
    outer loop
      vertex 0.0199995 0.0799999 0.5
      vertex 0.0199995 -0.0799999 0.12
      vertex 0.0199995 -0.0799999 0.5
    endloop
  endfacet
  facet normal 0 1 -0
    outer loop
      vertex 0.16 0.0799999 0.12
      vertex 0.0199995 0.0799999 0.5
      vertex 0.16 0.0799999 0.5
    endloop
  endfacet
  facet normal 0 1 0
    outer loop
      vertex 0.0199995 0.0799999 0.5
      vertex 0.16 0.0799999 0.12
      vertex 0.0199995 0.0799999 0.12
    endloop
  endfacet
  facet normal 0 -1 0
    outer loop
      vertex 0.0199995 -0.0799999 0.12
      vertex 0.16 -0.0799999 0.5
      vertex 0.0199995 -0.0799999 0.5
    endloop
  endfacet
  facet normal 0 -1 -0
    outer loop
      vertex 0.16 -0.0799999 0.5
      vertex 0.0199995 -0.0799999 0.12
      vertex 0.16 -0.0799999 0.12
    endloop
  endfacet
  facet normal -1 0 0
    outer loop
      vertex 0.209999 0.12 0.62
      vertex 0.209999 0.259999 0.719999
      vertex 0.209999 0.259999 0.62
    endloop
  endfacet
  facet normal -1 -0 0
    outer loop
      vertex 0.209999 0.259999 0.719999
      vertex 0.209999 0.12 0.62
      vertex 0.209999 0.12 0.719999
    endloop
  endfacet
  facet normal 1 0 0
    outer loop
      vertex 0.209999 -0.11 0.86
      vertex 0.209999 -0.12 0.86
      vertex 0.209999 -0.11 0.78
    endloop
  endfacet
  facet normal 1 0 0
    outer loop
      vertex 0.209999 0.11 0.78
      vertex 0.209999 0.12 0.86
      vertex 0.209999 0.11 0.86
    endloop
  endfacet
  facet normal 1 0 0
    outer loop
      vertex 0.209999 0.12 0.86
      vertex 0.209999 0.11 0.78
      vertex 0.209999 0.12 0.719999
    endloop
  endfacet
  facet normal 1 0 0
    outer loop
      vertex 0.209999 0.11 0.78
      vertex 0.209999 0 0.719999
      vertex 0.209999 0.12 0.719999
    endloop
  endfacet
  facet normal 1 0 0
    outer loop
      vertex 0.209999 0 0.719999
      vertex 0.209999 -0.11 0.78
      vertex 0.209999 0 0.62
    endloop
  endfacet
  facet normal 1 -0 0
    outer loop
      vertex 0.209999 -0.11 0.78
      vertex 0.209999 0 0.719999
      vertex 0.209999 0.11 0.78
    endloop
  endfacet
  facet normal 1 -0 0
    outer loop
      vertex 0.209999 0 0.62
      vertex 0.209999 0.12 0.5
      vertex 0.209999 0.12 0.62
    endloop
  endfacet
  facet normal 1 0 0
    outer loop
      vertex 0.209999 0 0.62
      vertex 0.209999 -0.12 0.5
      vertex 0.209999 0.12 0.5
    endloop
  endfacet
  facet normal 1 0 0
    outer loop
      vertex 0.209999 -0.11 0.78
      vertex 0.209999 -0.12 0.5
      vertex 0.209999 0 0.62
    endloop
  endfacet
  facet normal 1 0 0
    outer loop
      vertex 0.209999 -0.12 0.5
      vertex 0.209999 -0.11 0.78
      vertex 0.209999 -0.12 0.86
    endloop
  endfacet
  facet normal -0 0 1
    outer loop
      vertex -0.209999 0.12 0.86
      vertex 0.209999 0.11 0.86
      vertex 0.209999 0.12 0.86
    endloop
  endfacet
  facet normal 0 0 1
    outer loop
      vertex 0.209999 0.11 0.86
      vertex -0.209999 0.12 0.86
      vertex -0.209999 0.11 0.86
    endloop
  endfacet
  facet normal -0 0 1
    outer loop
      vertex -0.209999 -0.11 0.86
      vertex 0.209999 -0.12 0.86
      vertex 0.209999 -0.11 0.86
    endloop
  endfacet
  facet normal 0 0 1
    outer loop
      vertex 0.209999 -0.12 0.86
      vertex -0.209999 -0.11 0.86
      vertex -0.209999 -0.12 0.86
    endloop
  endfacet
  facet normal 1 -0 0
    outer loop
      vertex -0.209999 0.12 0.65
      vertex -0.209999 0.28 0.549999
      vertex -0.209999 0.28 0.65
    endloop
  endfacet
  facet normal 1 0 0
    outer loop
      vertex -0.209999 0.28 0.549999
      vertex -0.209999 0.12 0.65
      vertex -0.209999 0.12 0.549999
    endloop
  endfacet
  facet normal -1 0 0
    outer loop
      vertex -0.209999 0.12 0.5
      vertex -0.209999 -0.0199995 0.549999
      vertex -0.209999 0.12 0.549999
    endloop
  endfacet
  facet normal -1 0 0
    outer loop
      vertex -0.209999 -0.12 0.5
      vertex -0.209999 -0.0199995 0.65
      vertex -0.209999 -0.0199995 0.549999
    endloop
  endfacet
  facet normal -1 0 0
    outer loop
      vertex -0.209999 -0.12 0.5
      vertex -0.209999 -0.0199995 0.549999
      vertex -0.209999 0.12 0.5
    endloop
  endfacet
  facet normal -1 -0 0
    outer loop
      vertex -0.209999 -0.0199995 0.65
      vertex -0.209999 -0.12 0.5
      vertex -0.209999 -0.11 0.78
    endloop
  endfacet
  facet normal -1 0 0
    outer loop
      vertex -0.209999 -0.12 0.86
      vertex -0.209999 -0.11 0.78
      vertex -0.209999 -0.12 0.5
    endloop
  endfacet
  facet normal -1 0 0
    outer loop
      vertex -0.209999 -0.11 0.78
      vertex -0.209999 -0.12 0.86
      vertex -0.209999 -0.11 0.86
    endloop
  endfacet
  facet normal -1 0 0
    outer loop
      vertex -0.209999 0.12 0.65
      vertex -0.209999 0.11 0.78
      vertex -0.209999 0.12 0.86
    endloop
  endfacet
  facet normal -1 0 0
    outer loop
      vertex -0.209999 -0.0199995 0.65
      vertex -0.209999 0.11 0.78
      vertex -0.209999 0.12 0.65
    endloop
  endfacet
  facet normal -1 -0 0
    outer loop
      vertex -0.209999 0.11 0.78
      vertex -0.209999 -0.0199995 0.65
      vertex -0.209999 -0.11 0.78
    endloop
  endfacet
  facet normal -1 -0 0
    outer loop
      vertex -0.209999 0.12 0.86
      vertex -0.209999 0.11 0.78
      vertex -0.209999 0.11 0.86
    endloop
  endfacet
  facet normal 0 1 -0
    outer loop
      vertex 0.209999 0.12 0.719999
      vertex -0.209999 0.12 0.86
      vertex 0.209999 0.12 0.86
    endloop
  endfacet
  facet normal 0 1 0
    outer loop
      vertex 0.209999 0.12 0.719999
      vertex -0.209999 0.12 0.65
      vertex -0.209999 0.12 0.86
    endloop
  endfacet
  facet normal 0 1 -0
    outer loop
      vertex 0.209999 0.12 0.62
      vertex -0.209999 0.12 0.65
      vertex 0.209999 0.12 0.719999
    endloop
  endfacet
  facet normal 0 1 0
    outer loop
      vertex 0.209999 0.12 0.62
      vertex -0.209999 0.12 0.549999
      vertex -0.209999 0.12 0.65
    endloop
  endfacet
  facet normal 0 1 -0
    outer loop
      vertex 0.209999 0.12 0.5
      vertex -0.209999 0.12 0.549999
      vertex 0.209999 0.12 0.62
    endloop
  endfacet
  facet normal 0 1 0
    outer loop
      vertex -0.209999 0.12 0.549999
      vertex 0.209999 0.12 0.5
      vertex -0.209999 0.12 0.5
    endloop
  endfacet
  facet normal 0 -1 0
    outer loop
      vertex -0.209999 -0.12 0.5
      vertex 0.209999 -0.12 0.86
      vertex -0.209999 -0.12 0.86
    endloop
  endfacet
  facet normal 0 -1 -0
    outer loop
      vertex 0.209999 -0.12 0.86
      vertex -0.209999 -0.12 0.5
      vertex 0.209999 -0.12 0.5
    endloop
  endfacet
  facet normal 1 -0 0
    outer loop
      vertex 0.25 -0.11 0.879999
      vertex 0.25 0.11 0.78
      vertex 0.25 0.11 0.879999
    endloop
  endfacet
  facet normal 1 0 0
    outer loop
      vertex 0.25 0.11 0.78
      vertex 0.25 -0.11 0.879999
      vertex 0.25 -0.11 0.78
    endloop
  endfacet
  facet normal 0 0 1
    outer loop
      vertex 0.25 0.11 0.879999
      vertex 0.11 0 0.879999
      vertex 0.25 -0.11 0.879999
    endloop
  endfacet
  facet normal 0 0 1
    outer loop
      vertex 0.25 0.11 0.879999
      vertex 0.0549994 0.0952625 0.879999
      vertex 0.11 0 0.879999
    endloop
  endfacet
  facet normal 0 0 1
    outer loop
      vertex 0.25 0.11 0.879999
      vertex -0.0549994 0.0952625 0.879999
      vertex 0.0549994 0.0952625 0.879999
    endloop
  endfacet
  facet normal 0 0 1
    outer loop
      vertex -0.0549994 0.0952625 0.879999
      vertex -0.25 0.11 0.879999
      vertex -0.11 0 0.879999
    endloop
  endfacet
  facet normal -0 0 1
    outer loop
      vertex -0.25 0.11 0.879999
      vertex -0.0549994 0.0952625 0.879999
      vertex 0.25 0.11 0.879999
    endloop
  endfacet
  facet normal -0 0 1
    outer loop
      vertex 0.0549994 -0.0952625 0.879999
      vertex 0.25 -0.11 0.879999
      vertex 0.11 0 0.879999
    endloop
  endfacet
  facet normal -0 0 1
    outer loop
      vertex -0.0549994 -0.0952625 0.879999
      vertex 0.25 -0.11 0.879999
      vertex 0.0549994 -0.0952625 0.879999
    endloop
  endfacet
  facet normal 0 0 1
    outer loop
      vertex -0.25 -0.11 0.879999
      vertex -0.11 0 0.879999
      vertex -0.25 0.11 0.879999
    endloop
  endfacet
  facet normal 0 0 1
    outer loop
      vertex -0.0549994 -0.0952625 0.879999
      vertex -0.25 -0.11 0.879999
      vertex 0.25 -0.11 0.879999
    endloop
  endfacet
  facet normal 0 0 1
    outer loop
      vertex -0.11 0 0.879999
      vertex -0.25 -0.11 0.879999
      vertex -0.0549994 -0.0952625 0.879999
    endloop
  endfacet
  facet normal 0 0 -1
    outer loop
      vertex 0.209999 -0.11 0.78
      vertex 0.25 0.11 0.78
      vertex 0.25 -0.11 0.78
    endloop
  endfacet
  facet normal -0 0 -1
    outer loop
      vertex 0.25 0.11 0.78
      vertex 0.209999 -0.11 0.78
      vertex 0.209999 0.11 0.78
    endloop
  endfacet
  facet normal 0 0 -1
    outer loop
      vertex -0.25 -0.11 0.78
      vertex -0.209999 0.11 0.78
      vertex -0.209999 -0.11 0.78
    endloop
  endfacet
  facet normal -0 0 -1
    outer loop
      vertex -0.209999 0.11 0.78
      vertex -0.25 -0.11 0.78
      vertex -0.25 0.11 0.78
    endloop
  endfacet
  facet normal -1 0 0
    outer loop
      vertex -0.25 -0.11 0.78
      vertex -0.25 0.11 0.879999
      vertex -0.25 0.11 0.78
    endloop
  endfacet
  facet normal -1 -0 0
    outer loop
      vertex -0.25 0.11 0.879999
      vertex -0.25 -0.11 0.78
      vertex -0.25 -0.11 0.879999
    endloop
  endfacet
  facet normal 0 1 0
    outer loop
      vertex 0.25 0.11 0.879999
      vertex 0.209999 0.11 0.86
      vertex -0.25 0.11 0.879999
    endloop
  endfacet
  facet normal 0 1 -0
    outer loop
      vertex 0.25 0.11 0.78
      vertex 0.209999 0.11 0.86
      vertex 0.25 0.11 0.879999
    endloop
  endfacet
  facet normal 0 1 0
    outer loop
      vertex 0.209999 0.11 0.86
      vertex 0.25 0.11 0.78
      vertex 0.209999 0.11 0.78
    endloop
  endfacet
  facet normal 0 1 -0
    outer loop
      vertex -0.209999 0.11 0.86
      vertex -0.25 0.11 0.879999
      vertex 0.209999 0.11 0.86
    endloop
  endfacet
  facet normal 0 1 0
    outer loop
      vertex -0.25 0.11 0.78
      vertex -0.209999 0.11 0.86
      vertex -0.209999 0.11 0.78
    endloop
  endfacet
  facet normal 0 1 0
    outer loop
      vertex -0.209999 0.11 0.86
      vertex -0.25 0.11 0.78
      vertex -0.25 0.11 0.879999
    endloop
  endfacet
  facet normal 0 -1 0
    outer loop
      vertex -0.25 -0.11 0.879999
      vertex -0.209999 -0.11 0.86
      vertex 0.25 -0.11 0.879999
    endloop
  endfacet
  facet normal 0 -1 0
    outer loop
      vertex -0.25 -0.11 0.78
      vertex -0.209999 -0.11 0.86
      vertex -0.25 -0.11 0.879999
    endloop
  endfacet
  facet normal 0 -1 -0
    outer loop
      vertex -0.209999 -0.11 0.86
      vertex -0.25 -0.11 0.78
      vertex -0.209999 -0.11 0.78
    endloop
  endfacet
  facet normal 0 -1 0
    outer loop
      vertex 0.209999 -0.11 0.86
      vertex 0.25 -0.11 0.879999
      vertex -0.209999 -0.11 0.86
    endloop
  endfacet
  facet normal 0 -1 0
    outer loop
      vertex 0.25 -0.11 0.78
      vertex 0.209999 -0.11 0.86
      vertex 0.209999 -0.11 0.78
    endloop
  endfacet
  facet normal 0 -1 0
    outer loop
      vertex 0.209999 -0.11 0.86
      vertex 0.25 -0.11 0.78
      vertex 0.25 -0.11 0.879999
    endloop
  endfacet
  facet normal 0 -1 0
    outer loop
      vertex -0.0549994 -0.0952625 0.879999
      vertex 0.0549994 -0.0952625 1.06
      vertex -0.0549994 -0.0952625 1.06
    endloop
  endfacet
  facet normal 0 -1 -0
    outer loop
      vertex 0.0549994 -0.0952625 1.06
      vertex -0.0549994 -0.0952625 0.879999
      vertex 0.0549994 -0.0952625 0.879999
    endloop
  endfacet
  facet normal 0.866022 -0.500005 0
    outer loop
      vertex 0.0549994 -0.0952625 1.06
      vertex 0.11 0 0.879999
      vertex 0.11 0 1.06
    endloop
  endfacet
  facet normal 0.866022 -0.500005 0
    outer loop
      vertex 0.11 0 0.879999
      vertex 0.0549994 -0.0952625 1.06
      vertex 0.0549994 -0.0952625 0.879999
    endloop
  endfacet
  facet normal 0 1 -0
    outer loop
      vertex 0.0549994 0.0952625 0.879999
      vertex -0.0549994 0.0952625 1.06
      vertex 0.0549994 0.0952625 1.06
    endloop
  endfacet
  facet normal 0 1 0
    outer loop
      vertex -0.0549994 0.0952625 1.06
      vertex 0.0549994 0.0952625 0.879999
      vertex -0.0549994 0.0952625 0.879999
    endloop
  endfacet
  facet normal 0.866022 0.500005 0
    outer loop
      vertex 0.11 0 1.06
      vertex 0.0549994 0.0952625 0.879999
      vertex 0.0549994 0.0952625 1.06
    endloop
  endfacet
  facet normal 0.866022 0.500005 0
    outer loop
      vertex 0.0549994 0.0952625 0.879999
      vertex 0.11 0 1.06
      vertex 0.11 0 0.879999
    endloop
  endfacet
  facet normal -0.866022 0.500005 0
    outer loop
      vertex -0.11 0 0.879999
      vertex -0.0549994 0.0952625 1.06
      vertex -0.0549994 0.0952625 0.879999
    endloop
  endfacet
  facet normal -0.866022 0.500005 0
    outer loop
      vertex -0.0549994 0.0952625 1.06
      vertex -0.11 0 0.879999
      vertex -0.11 0 1.06
    endloop
  endfacet
  facet normal -0.866022 -0.500005 0
    outer loop
      vertex -0.0549994 -0.0952625 0.879999
      vertex -0.11 0 1.06
      vertex -0.11 0 0.879999
    endloop
  endfacet
  facet normal -0.866022 -0.500005 0
    outer loop
      vertex -0.11 0 1.06
      vertex -0.0549994 -0.0952625 0.879999
      vertex -0.0549994 -0.0952625 1.06
    endloop
  endfacet
  facet normal 0 0 1
    outer loop
      vertex 0.0549994 0.0952625 1.06
      vertex 0.0549994 -0.0952625 1.06
      vertex 0.11 0 1.06
    endloop
  endfacet
  facet normal -0 0 1
    outer loop
      vertex -0.0549994 0.0952625 1.06
      vertex 0.0549994 -0.0952625 1.06
      vertex 0.0549994 0.0952625 1.06
    endloop
  endfacet
  facet normal 0 0 1
    outer loop
      vertex -0.0549994 0.0952625 1.06
      vertex -0.0549994 -0.0952625 1.06
      vertex 0.0549994 -0.0952625 1.06
    endloop
  endfacet
  facet normal 0 -0 1
    outer loop
      vertex -0.0549994 -0.0952625 1.06
      vertex -0.0549994 0.0952625 1.06
      vertex -0.11 0 1.06
    endloop
  endfacet
  facet normal 1 -0 0
    outer loop
      vertex 0.309999 0 0.719999
      vertex 0.309999 0.259999 0.62
      vertex 0.309999 0.259999 0.719999
    endloop
  endfacet
  facet normal 1 0 0
    outer loop
      vertex 0.309999 0.259999 0.62
      vertex 0.309999 0 0.719999
      vertex 0.309999 0 0.62
    endloop
  endfacet
  facet normal 0 0 1
    outer loop
      vertex 0.209999 0.12 0.719999
      vertex 0.309999 0.259999 0.719999
      vertex 0.209999 0.259999 0.719999
    endloop
  endfacet
  facet normal 0 0 1
    outer loop
      vertex 0.309999 0.259999 0.719999
      vertex 0.209999 0.12 0.719999
      vertex 0.309999 0 0.719999
    endloop
  endfacet
  facet normal 0 0 1
    outer loop
      vertex 0.309999 0 0.719999
      vertex 0.209999 0.12 0.719999
      vertex 0.209999 0 0.719999
    endloop
  endfacet
  facet normal 0 0 -1
    outer loop
      vertex 0.209999 0.12 0.62
      vertex 0.309999 0 0.62
      vertex 0.209999 0 0.62
    endloop
  endfacet
  facet normal 0 0 -1
    outer loop
      vertex 0.309999 0 0.62
      vertex 0.209999 0.12 0.62
      vertex 0.309999 0.259999 0.62
    endloop
  endfacet
  facet normal -0 0 -1
    outer loop
      vertex 0.309999 0.259999 0.62
      vertex 0.209999 0.12 0.62
      vertex 0.209999 0.259999 0.62
    endloop
  endfacet
  facet normal 0 1 -0
    outer loop
      vertex 0.309999 0.259999 0.62
      vertex 0.209999 0.259999 0.719999
      vertex 0.309999 0.259999 0.719999
    endloop
  endfacet
  facet normal 0 1 0
    outer loop
      vertex 0.209999 0.259999 0.719999
      vertex 0.309999 0.259999 0.62
      vertex 0.209999 0.259999 0.62
    endloop
  endfacet
  facet normal 0 -1 0
    outer loop
      vertex 0.209999 0 0.62
      vertex 0.309999 0 0.719999
      vertex 0.209999 0 0.719999
    endloop
  endfacet
  facet normal 0 -1 -0
    outer loop
      vertex 0.309999 0 0.719999
      vertex 0.209999 0 0.62
      vertex 0.309999 0 0.62
    endloop
  endfacet
  facet normal -0 0 1
    outer loop
      vertex -0.309999 0.28 0.65
      vertex -0.209999 0.12 0.65
      vertex -0.209999 0.28 0.65
    endloop
  endfacet
  facet normal 0 0 1
    outer loop
      vertex -0.309999 -0.0199995 0.65
      vertex -0.209999 0.12 0.65
      vertex -0.309999 0.28 0.65
    endloop
  endfacet
  facet normal 0 0 1
    outer loop
      vertex -0.209999 0.12 0.65
      vertex -0.309999 -0.0199995 0.65
      vertex -0.209999 -0.0199995 0.65
    endloop
  endfacet
  facet normal 0 0 -1
    outer loop
      vertex -0.309999 -0.0199995 0.549999
      vertex -0.209999 0.12 0.549999
      vertex -0.209999 -0.0199995 0.549999
    endloop
  endfacet
  facet normal 0 0 -1
    outer loop
      vertex -0.309999 0.28 0.549999
      vertex -0.209999 0.12 0.549999
      vertex -0.309999 -0.0199995 0.549999
    endloop
  endfacet
  facet normal 0 0 -1
    outer loop
      vertex -0.209999 0.12 0.549999
      vertex -0.309999 0.28 0.549999
      vertex -0.209999 0.28 0.549999
    endloop
  endfacet
  facet normal -1 0 0
    outer loop
      vertex -0.309999 -0.0199995 0.549999
      vertex -0.309999 0.28 0.65
      vertex -0.309999 0.28 0.549999
    endloop
  endfacet
  facet normal -1 -0 0
    outer loop
      vertex -0.309999 0.28 0.65
      vertex -0.309999 -0.0199995 0.549999
      vertex -0.309999 -0.0199995 0.65
    endloop
  endfacet
  facet normal 0 1 -0
    outer loop
      vertex -0.209999 0.28 0.549999
      vertex -0.309999 0.28 0.65
      vertex -0.209999 0.28 0.65
    endloop
  endfacet
  facet normal 0 1 0
    outer loop
      vertex -0.309999 0.28 0.65
      vertex -0.209999 0.28 0.549999
      vertex -0.309999 0.28 0.549999
    endloop
  endfacet
  facet normal 0 -1 0
    outer loop
      vertex -0.309999 -0.0199995 0.549999
      vertex -0.209999 -0.0199995 0.65
      vertex -0.309999 -0.0199995 0.65
    endloop
  endfacet
  facet normal 0 -1 -0
    outer loop
      vertex -0.209999 -0.0199995 0.65
      vertex -0.309999 -0.0199995 0.549999
      vertex -0.209999 -0.0199995 0.549999
    endloop
  endfacet
endsolid OpenSCAD_Model
