solid OpenSCAD_Model
  facet normal 1 -0 0
    outer loop
      vertex 0.419999 0.75 0.4
      vertex 0.419999 1.2 0.28
      vertex 0.419999 1.2 0.4
    endloop
  endfacet
  facet normal 1 -0 0
    outer loop
      vertex 0.419999 0.15 0.4
      vertex 0.419999 1.2 0.28
      vertex 0.419999 0.75 0.4
    endloop
  endfacet
  facet normal 1 -0 0
    outer loop
      vertex 0.419999 0.0999994 0.4
      vertex 0.419999 1.2 0.28
      vertex 0.419999 0.15 0.4
    endloop
  endfacet
  facet normal 1 0 0
    outer loop
      vertex 0.419999 -1.2 0.28
      vertex 0.419999 0.0999994 0.4
      vertex 0.419999 -1.18 0.4
    endloop
  endfacet
  facet normal 1 0 0
    outer loop
      vertex 0.419999 -1.2 0.28
      vertex 0.419999 -1.18 0.4
      vertex 0.419999 -1.2 0.4
    endloop
  endfacet
  facet normal 1 0 0
    outer loop
      vertex 0.419999 0.0999994 0.4
      vertex 0.419999 -1.2 0.28
      vertex 0.419999 1.2 0.28
    endloop
  endfacet
  facet normal 0 0 -1
    outer loop
      vertex 0.419999 -1.18 0.4
      vertex 0.52 0.0999994 0.4
      vertex 0.52 -1.18 0.4
    endloop
  endfacet
  facet normal -0 0 -1
    outer loop
      vertex 0.52 0.0999994 0.4
      vertex 0.419999 -1.18 0.4
      vertex 0.419999 0.0999994 0.4
    endloop
  endfacet
  facet normal 0 0 -1
    outer loop
      vertex -0.52 -1.18 0.4
      vertex -0.419999 0.0999994 0.4
      vertex -0.419999 -1.18 0.4
    endloop
  endfacet
  facet normal -0 0 -1
    outer loop
      vertex -0.419999 0.0999994 0.4
      vertex -0.52 -1.18 0.4
      vertex -0.52 0.0999994 0.4
    endloop
  endfacet
  facet normal 0 0 -1
    outer loop
      vertex 0.419999 0.15 0.4
      vertex 0.48 0.75 0.4
      vertex 0.48 0.15 0.4
    endloop
  endfacet
  facet normal -0 0 -1
    outer loop
      vertex 0.48 0.75 0.4
      vertex 0.419999 0.15 0.4
      vertex 0.419999 0.75 0.4
    endloop
  endfacet
  facet normal 0 0 -1
    outer loop
      vertex -0.48 0.15 0.4
      vertex -0.419999 0.75 0.4
      vertex -0.419999 0.15 0.4
    endloop
  endfacet
  facet normal -0 0 -1
    outer loop
      vertex -0.419999 0.75 0.4
      vertex -0.48 0.15 0.4
      vertex -0.48 0.75 0.4
    endloop
  endfacet
  facet normal -0 0 1
    outer loop
      vertex -0.419999 1.2 0.4
      vertex -0.4 0.75 0.4
      vertex -0.4 1.2 0.4
    endloop
  endfacet
  facet normal 0 0 1
    outer loop
      vertex -0.4 0.75 0.4
      vertex -0.419999 1.2 0.4
      vertex -0.419999 0.75 0.4
    endloop
  endfacet
  facet normal -0 0 1
    outer loop
      vertex 0.4 1.2 0.4
      vertex 0.419999 0.75 0.4
      vertex 0.419999 1.2 0.4
    endloop
  endfacet
  facet normal 0 0 1
    outer loop
      vertex 0.419999 0.75 0.4
      vertex 0.4 1.2 0.4
      vertex 0.4 0.75 0.4
    endloop
  endfacet
  facet normal -0 0 1
    outer loop
      vertex -0.419999 -1.18 0.4
      vertex 0.419999 -1.2 0.4
      vertex 0.419999 -1.18 0.4
    endloop
  endfacet
  facet normal 0 0 1
    outer loop
      vertex 0.419999 -1.2 0.4
      vertex -0.419999 -1.18 0.4
      vertex -0.419999 -1.2 0.4
    endloop
  endfacet
  facet normal 0 0 -1
    outer loop
      vertex -0.4 1.2 0.4
      vertex 0.4 1.27 0.4
      vertex 0.4 1.2 0.4
    endloop
  endfacet
  facet normal -0 0 -1
    outer loop
      vertex 0.4 1.27 0.4
      vertex -0.4 1.2 0.4
      vertex -0.4 1.27 0.4
    endloop
  endfacet
  facet normal -0 0 1
    outer loop
      vertex -0.419999 0.15 0.4
      vertex 0.419999 0.0999994 0.4
      vertex 0.419999 0.15 0.4
    endloop
  endfacet
  facet normal 0 0 1
    outer loop
      vertex 0.419999 0.0999994 0.4
      vertex -0.419999 0.15 0.4
      vertex -0.419999 0.0999994 0.4
    endloop
  endfacet
  facet normal 0 0 -1
    outer loop
      vertex -0.419999 -1.2 0.28
      vertex 0.419999 1.2 0.28
      vertex 0.419999 -1.2 0.28
    endloop
  endfacet
  facet normal -0 0 -1
    outer loop
      vertex 0.419999 1.2 0.28
      vertex -0.419999 -1.2 0.28
      vertex -0.419999 1.2 0.28
    endloop
  endfacet
  facet normal -1 0 0
    outer loop
      vertex -0.419999 1.2 0.28
      vertex -0.419999 0.75 0.4
      vertex -0.419999 1.2 0.4
    endloop
  endfacet
  facet normal -1 0 0
    outer loop
      vertex -0.419999 1.2 0.28
      vertex -0.419999 0.15 0.4
      vertex -0.419999 0.75 0.4
    endloop
  endfacet
  facet normal -1 0 0
    outer loop
      vertex -0.419999 1.2 0.28
      vertex -0.419999 0.0999994 0.4
      vertex -0.419999 0.15 0.4
    endloop
  endfacet
  facet normal -1 0 0
    outer loop
      vertex -0.419999 -1.2 0.28
      vertex -0.419999 0.0999994 0.4
      vertex -0.419999 1.2 0.28
    endloop
  endfacet
  facet normal -1 -0 0
    outer loop
      vertex -0.419999 0.0999994 0.4
      vertex -0.419999 -1.2 0.28
      vertex -0.419999 -1.18 0.4
    endloop
  endfacet
  facet normal -1 -0 0
    outer loop
      vertex -0.419999 -1.18 0.4
      vertex -0.419999 -1.2 0.28
      vertex -0.419999 -1.2 0.4
    endloop
  endfacet
  facet normal 0 1 -0
    outer loop
      vertex 0.419999 1.2 0.28
      vertex 0.4 1.2 0.4
      vertex 0.419999 1.2 0.4
    endloop
  endfacet
  facet normal 0 1 0
    outer loop
      vertex 0.4 1.2 0.4
      vertex 0.419999 1.2 0.28
      vertex -0.4 1.2 0.4
    endloop
  endfacet
  facet normal 0 1 0
    outer loop
      vertex -0.419999 1.2 0.28
      vertex -0.4 1.2 0.4
      vertex 0.419999 1.2 0.28
    endloop
  endfacet
  facet normal 0 1 0
    outer loop
      vertex -0.4 1.2 0.4
      vertex -0.419999 1.2 0.28
      vertex -0.419999 1.2 0.4
    endloop
  endfacet
  facet normal 0 -1 0
    outer loop
      vertex -0.419999 -1.2 0.28
      vertex 0.419999 -1.2 0.4
      vertex -0.419999 -1.2 0.4
    endloop
  endfacet
  facet normal 0 -1 -0
    outer loop
      vertex 0.419999 -1.2 0.4
      vertex -0.419999 -1.2 0.28
      vertex 0.419999 -1.2 0.28
    endloop
  endfacet
  facet normal 1 0 0
    outer loop
      vertex 0.4 1.27 0.759999
      vertex 0.4 1.2 0.4
      vertex 0.4 1.27 0.4
    endloop
  endfacet
  facet normal 1 0 0
    outer loop
      vertex 0.4 1.27 0.759999
      vertex 0.4 0.799494 0.719306
      vertex 0.4 1.2 0.4
    endloop
  endfacet
  facet normal 1 0 -0
    outer loop
      vertex 0.4 0.799494 0.719306
      vertex 0.4 1.27 0.759999
      vertex 0.4 0.784683 0.759999
    endloop
  endfacet
  facet normal 1 0 0
    outer loop
      vertex 0.4 0.75 0.4
      vertex 0.4 0.799494 0.719306
      vertex 0.4 0.75 0.701292
    endloop
  endfacet
  facet normal 1 0 0
    outer loop
      vertex 0.4 0.799494 0.719306
      vertex 0.4 0.75 0.4
      vertex 0.4 1.2 0.4
    endloop
  endfacet
  facet normal -0 0 1
    outer loop
      vertex -0.4 1.27 0.759999
      vertex 0.4 0.784683 0.759999
      vertex 0.4 1.27 0.759999
    endloop
  endfacet
  facet normal 0 0 1
    outer loop
      vertex 0.4 0.784683 0.759999
      vertex -0.4 1.27 0.759999
      vertex -0.4 0.784683 0.759999
    endloop
  endfacet
  facet normal -1 0 0
    outer loop
      vertex -0.4 0.75 0.4
      vertex -0.4 0.799494 0.719306
      vertex -0.4 1.2 0.4
    endloop
  endfacet
  facet normal -1 0 0
    outer loop
      vertex -0.4 0.799494 0.719306
      vertex -0.4 0.75 0.4
      vertex -0.4 0.75 0.701292
    endloop
  endfacet
  facet normal -1 0 0
    outer loop
      vertex -0.4 1.2 0.4
      vertex -0.4 1.27 0.759999
      vertex -0.4 1.27 0.4
    endloop
  endfacet
  facet normal -1 0 0
    outer loop
      vertex -0.4 0.799494 0.719306
      vertex -0.4 1.27 0.759999
      vertex -0.4 1.2 0.4
    endloop
  endfacet
  facet normal -1 -0 0
    outer loop
      vertex -0.4 1.27 0.759999
      vertex -0.4 0.799494 0.719306
      vertex -0.4 0.784683 0.759999
    endloop
  endfacet
  facet normal 0 1 0
    outer loop
      vertex 0.4 1.27 0.759999
      vertex 0.339999 1.27 0.74
      vertex -0.4 1.27 0.759999
    endloop
  endfacet
  facet normal 0 1 0
    outer loop
      vertex 0.4 1.27 0.759999
      vertex 0.339999 1.27 0.419999
      vertex 0.339999 1.27 0.74
    endloop
  endfacet
  facet normal 0 1 0
    outer loop
      vertex 0.339999 1.27 0.419999
      vertex 0.4 1.27 0.4
      vertex -0.339999 1.27 0.419999
    endloop
  endfacet
  facet normal 0 1 -0
    outer loop
      vertex 0.4 1.27 0.4
      vertex 0.339999 1.27 0.419999
      vertex 0.4 1.27 0.759999
    endloop
  endfacet
  facet normal 0 1 -0
    outer loop
      vertex -0.339999 1.27 0.74
      vertex -0.4 1.27 0.759999
      vertex 0.339999 1.27 0.74
    endloop
  endfacet
  facet normal 0 1 -0
    outer loop
      vertex -0.339999 1.27 0.419999
      vertex -0.4 1.27 0.759999
      vertex -0.339999 1.27 0.74
    endloop
  endfacet
  facet normal 0 1 0
    outer loop
      vertex -0.339999 1.27 0.419999
      vertex -0.4 1.27 0.4
      vertex -0.4 1.27 0.759999
    endloop
  endfacet
  facet normal 0 1 0
    outer loop
      vertex -0.4 1.27 0.4
      vertex -0.339999 1.27 0.419999
      vertex 0.4 1.27 0.4
    endloop
  endfacet
  facet normal 1 -0 0
    outer loop
      vertex 0.339999 1.27 0.74
      vertex 0.339999 1.29 0.419999
      vertex 0.339999 1.29 0.74
    endloop
  endfacet
  facet normal 1 0 0
    outer loop
      vertex 0.339999 1.29 0.419999
      vertex 0.339999 1.27 0.74
      vertex 0.339999 1.27 0.419999
    endloop
  endfacet
  facet normal -0 0 1
    outer loop
      vertex -0.339999 1.29 0.74
      vertex 0.339999 1.27 0.74
      vertex 0.339999 1.29 0.74
    endloop
  endfacet
  facet normal 0 0 1
    outer loop
      vertex 0.339999 1.27 0.74
      vertex -0.339999 1.29 0.74
      vertex -0.339999 1.27 0.74
    endloop
  endfacet
  facet normal 0 0 -1
    outer loop
      vertex -0.339999 1.27 0.419999
      vertex 0.339999 1.29 0.419999
      vertex 0.339999 1.27 0.419999
    endloop
  endfacet
  facet normal -0 0 -1
    outer loop
      vertex 0.339999 1.29 0.419999
      vertex -0.339999 1.27 0.419999
      vertex -0.339999 1.29 0.419999
    endloop
  endfacet
  facet normal -1 0 0
    outer loop
      vertex -0.339999 1.27 0.419999
      vertex -0.339999 1.29 0.74
      vertex -0.339999 1.29 0.419999
    endloop
  endfacet
  facet normal -1 -0 0
    outer loop
      vertex -0.339999 1.29 0.74
      vertex -0.339999 1.27 0.419999
      vertex -0.339999 1.27 0.74
    endloop
  endfacet
  facet normal 0 1 -0
    outer loop
      vertex 0.339999 1.29 0.419999
      vertex -0.339999 1.29 0.74
      vertex 0.339999 1.29 0.74
    endloop
  endfacet
  facet normal 0 1 0
    outer loop
      vertex -0.339999 1.29 0.74
      vertex 0.339999 1.29 0.419999
      vertex -0.339999 1.29 0.419999
    endloop
  endfacet
  facet normal 1 -0 0
    outer loop
      vertex 0.5 1.28 0.36
      vertex 0.5 1.34 0.299999
      vertex 0.5 1.34 0.36
    endloop
  endfacet
  facet normal 1 0 0
    outer loop
      vertex 0.5 1.34 0.299999
      vertex 0.5 1.28 0.36
      vertex 0.5 1.28 0.299999
    endloop
  endfacet
  facet normal -0 0 1
    outer loop
      vertex -0.459999 1.34 0.379999
      vertex 0.459999 1.28 0.379999
      vertex 0.459999 1.34 0.379999
    endloop
  endfacet
  facet normal 0 0 1
    outer loop
      vertex 0.459999 1.28 0.379999
      vertex -0.459999 1.34 0.379999
      vertex -0.459999 1.28 0.379999
    endloop
  endfacet
  facet normal 0 0 -1
    outer loop
      vertex -0.5 1.28 0.299999
      vertex 0.5 1.34 0.299999
      vertex 0.5 1.28 0.299999
    endloop
  endfacet
  facet normal -0 0 -1
    outer loop
      vertex 0.5 1.34 0.299999
      vertex -0.5 1.28 0.299999
      vertex -0.5 1.34 0.299999
    endloop
  endfacet
  facet normal -1 0 0
    outer loop
      vertex -0.5 1.28 0.299999
      vertex -0.5 1.34 0.36
      vertex -0.5 1.34 0.299999
    endloop
  endfacet
  facet normal -1 -0 0
    outer loop
      vertex -0.5 1.34 0.36
      vertex -0.5 1.28 0.299999
      vertex -0.5 1.28 0.36
    endloop
  endfacet
  facet normal 0 1 -0
    outer loop
      vertex 0.5 1.34 0.299999
      vertex 0.459999 1.34 0.36
      vertex 0.5 1.34 0.36
    endloop
  endfacet
  facet normal 0 1 0
    outer loop
      vertex 0.459999 1.34 0.36
      vertex 0.5 1.34 0.299999
      vertex -0.459999 1.34 0.36
    endloop
  endfacet
  facet normal 0 1 0
    outer loop
      vertex -0.5 1.34 0.299999
      vertex -0.459999 1.34 0.36
      vertex 0.5 1.34 0.299999
    endloop
  endfacet
  facet normal 0 1 0
    outer loop
      vertex -0.459999 1.34 0.36
      vertex -0.5 1.34 0.299999
      vertex -0.5 1.34 0.36
    endloop
  endfacet
  facet normal 0 1 -0
    outer loop
      vertex 0.459999 1.34 0.36
      vertex -0.459999 1.34 0.379999
      vertex 0.459999 1.34 0.379999
    endloop
  endfacet
  facet normal 0 1 0
    outer loop
      vertex -0.459999 1.34 0.379999
      vertex 0.459999 1.34 0.36
      vertex -0.459999 1.34 0.36
    endloop
  endfacet
  facet normal 0 -1 0
    outer loop
      vertex -0.5 1.28 0.299999
      vertex -0.459999 1.28 0.36
      vertex -0.5 1.28 0.36
    endloop
  endfacet
  facet normal 0 -1 -0
    outer loop
      vertex -0.459999 1.28 0.36
      vertex -0.5 1.28 0.299999
      vertex 0.459999 1.28 0.36
    endloop
  endfacet
  facet normal 0 -1 0
    outer loop
      vertex 0.5 1.28 0.299999
      vertex 0.459999 1.28 0.36
      vertex -0.5 1.28 0.299999
    endloop
  endfacet
  facet normal 0 -1 0
    outer loop
      vertex 0.459999 1.28 0.36
      vertex 0.5 1.28 0.299999
      vertex 0.5 1.28 0.36
    endloop
  endfacet
  facet normal 0 -1 0
    outer loop
      vertex -0.459999 1.28 0.36
      vertex 0.459999 1.28 0.379999
      vertex -0.459999 1.28 0.379999
    endloop
  endfacet
  facet normal 0 -1 -0
    outer loop
      vertex 0.459999 1.28 0.379999
      vertex -0.459999 1.28 0.36
      vertex 0.459999 1.28 0.36
    endloop
  endfacet
  facet normal 1 -0 0
    outer loop
      vertex 0.48 0.15 1.02
      vertex 0.48 0.75 0.4
      vertex 0.48 0.75 1.02
    endloop
  endfacet
  facet normal 1 0 0
    outer loop
      vertex 0.48 0.75 0.4
      vertex 0.48 0.15 1.02
      vertex 0.48 0.15 0.4
    endloop
  endfacet
  facet normal -0 0 1
    outer loop
      vertex -0.48 0.75 1.02
      vertex 0.48 0.15 1.02
      vertex 0.48 0.75 1.02
    endloop
  endfacet
  facet normal 0 0 1
    outer loop
      vertex 0.48 0.15 1.02
      vertex -0.48 0.75 1.02
      vertex -0.48 0.15 1.02
    endloop
  endfacet
  facet normal -1 0 0
    outer loop
      vertex -0.48 0.15 0.4
      vertex -0.48 0.75 1.02
      vertex -0.48 0.75 0.4
    endloop
  endfacet
  facet normal -1 -0 0
    outer loop
      vertex -0.48 0.75 1.02
      vertex -0.48 0.15 0.4
      vertex -0.48 0.15 1.02
    endloop
  endfacet
  facet normal 0 1 0
    outer loop
      vertex -0.419999 0.75 0.4
      vertex -0.4 0.75 0.701292
      vertex -0.4 0.75 0.4
    endloop
  endfacet
  facet normal 0 1 0
    outer loop
      vertex 0.48 0.75 1.02
      vertex 0.44 0.75 0.855288
      vertex -0.48 0.75 1.02
    endloop
  endfacet
  facet normal 0 1 0
    outer loop
      vertex 0.48 0.75 1.02
      vertex 0.44 0.75 0.701292
      vertex 0.44 0.75 0.855288
    endloop
  endfacet
  facet normal 0 1 -0
    outer loop
      vertex 0.48 0.75 0.4
      vertex 0.44 0.75 0.701292
      vertex 0.48 0.75 1.02
    endloop
  endfacet
  facet normal 0 1 0
    outer loop
      vertex 0.419999 0.75 0.4
      vertex 0.44 0.75 0.701292
      vertex 0.48 0.75 0.4
    endloop
  endfacet
  facet normal 0 1 0
    outer loop
      vertex 0.44 0.75 0.701292
      vertex 0.419999 0.75 0.4
      vertex 0.4 0.75 0.701292
    endloop
  endfacet
  facet normal 0 1 0
    outer loop
      vertex 0.4 0.75 0.701292
      vertex 0.419999 0.75 0.4
      vertex 0.4 0.75 0.4
    endloop
  endfacet
  facet normal 0 1 -0
    outer loop
      vertex -0.44 0.75 0.855288
      vertex -0.48 0.75 1.02
      vertex 0.44 0.75 0.855288
    endloop
  endfacet
  facet normal 0 1 -0
    outer loop
      vertex -0.44 0.75 0.701292
      vertex -0.48 0.75 1.02
      vertex -0.44 0.75 0.855288
    endloop
  endfacet
  facet normal 0 1 0
    outer loop
      vertex -0.4 0.75 0.701292
      vertex -0.419999 0.75 0.4
      vertex -0.44 0.75 0.701292
    endloop
  endfacet
  facet normal 0 1 0
    outer loop
      vertex -0.48 0.75 0.4
      vertex -0.44 0.75 0.701292
      vertex -0.419999 0.75 0.4
    endloop
  endfacet
  facet normal 0 1 0
    outer loop
      vertex -0.44 0.75 0.701292
      vertex -0.48 0.75 0.4
      vertex -0.48 0.75 1.02
    endloop
  endfacet
  facet normal 0 -1 0
    outer loop
      vertex -0.419999 0.15 0.4
      vertex -0.48 0.15 1.02
      vertex -0.48 0.15 0.4
    endloop
  endfacet
  facet normal 0 -1 0
    outer loop
      vertex -0.48 0.15 1.02
      vertex -0.419999 0.15 0.4
      vertex 0.48 0.15 1.02
    endloop
  endfacet
  facet normal 0 -1 0
    outer loop
      vertex 0.419999 0.15 0.4
      vertex 0.48 0.15 1.02
      vertex -0.419999 0.15 0.4
    endloop
  endfacet
  facet normal 0 -1 -0
    outer loop
      vertex 0.48 0.15 1.02
      vertex 0.419999 0.15 0.4
      vertex 0.48 0.15 0.4
    endloop
  endfacet
  facet normal -1 -0 0
    outer loop
      vertex -0.44 0.799494 0.719306
      vertex -0.44 0.75 0.701292
      vertex -0.44 0.75 0.855288
    endloop
  endfacet
  facet normal 1 0 0
    outer loop
      vertex 0.44 0.75 0.855288
      vertex 0.44 0.75 0.701292
      vertex 0.44 0.799494 0.719306
    endloop
  endfacet
  facet normal 0 0.342014 -0.939695
    outer loop
      vertex 0.4 0.75 0.701292
      vertex 0.44 0.799494 0.719306
      vertex 0.44 0.75 0.701292
    endloop
  endfacet
  facet normal 0 0.342014 -0.939695
    outer loop
      vertex 0.44 0.799494 0.719306
      vertex 0.4 0.75 0.701292
      vertex 0.4 0.799494 0.719306
    endloop
  endfacet
  facet normal 0 0.342014 -0.939695
    outer loop
      vertex -0.44 0.75 0.701292
      vertex -0.4 0.799494 0.719306
      vertex -0.4 0.75 0.701292
    endloop
  endfacet
  facet normal 0 0.342014 -0.939695
    outer loop
      vertex -0.4 0.799494 0.719306
      vertex -0.44 0.75 0.701292
      vertex -0.44 0.799494 0.719306
    endloop
  endfacet
  facet normal 0 0.939691 0.342026
    outer loop
      vertex 0.44 0.75 0.855288
      vertex 0.4 0.784683 0.759999
      vertex -0.44 0.75 0.855288
    endloop
  endfacet
  facet normal 5.17244e-06 0.939691 0.342024
    outer loop
      vertex 0.44 0.799494 0.719306
      vertex 0.4 0.784683 0.759999
      vertex 0.44 0.75 0.855288
    endloop
  endfacet
  facet normal 0 0.939693 0.342019
    outer loop
      vertex 0.4 0.784683 0.759999
      vertex 0.44 0.799494 0.719306
      vertex 0.4 0.799494 0.719306
    endloop
  endfacet
  facet normal -0 0.939691 0.342026
    outer loop
      vertex -0.4 0.784683 0.759999
      vertex -0.44 0.75 0.855288
      vertex 0.4 0.784683 0.759999
    endloop
  endfacet
  facet normal -0 0.939693 0.342019
    outer loop
      vertex -0.44 0.799494 0.719306
      vertex -0.4 0.784683 0.759999
      vertex -0.4 0.799494 0.719306
    endloop
  endfacet
  facet normal -5.17244e-06 0.939691 0.342024
    outer loop
      vertex -0.4 0.784683 0.759999
      vertex -0.44 0.799494 0.719306
      vertex -0.44 0.75 0.855288
    endloop
  endfacet
  facet normal 1 0 0
    outer loop
      vertex -0.459999 1.4 0.459999
      vertex -0.459999 1.34 0.379999
      vertex -0.459999 1.4 0.36
    endloop
  endfacet
  facet normal 1 0 0
    outer loop
      vertex -0.459999 1.4 0.459999
      vertex -0.459999 1.28 0.379999
      vertex -0.459999 1.34 0.379999
    endloop
  endfacet
  facet normal 1 -0 0
    outer loop
      vertex -0.459999 0.9 0.459999
      vertex -0.459999 1.28 0.379999
      vertex -0.459999 1.4 0.459999
    endloop
  endfacet
  facet normal 1 0 0
    outer loop
      vertex -0.459999 0.9 0.36
      vertex -0.459999 1.28 0.379999
      vertex -0.459999 0.9 0.459999
    endloop
  endfacet
  facet normal 1 0 0
    outer loop
      vertex -0.459999 1.28 0.379999
      vertex -0.459999 0.9 0.36
      vertex -0.459999 1.28 0.36
    endloop
  endfacet
  facet normal 1 0 0
    outer loop
      vertex -0.459999 1.4 0.36
      vertex -0.459999 1.34 0.379999
      vertex -0.459999 1.34 0.36
    endloop
  endfacet
  facet normal -0 0 1
    outer loop
      vertex -0.599999 1.4 0.459999
      vertex -0.459999 0.9 0.459999
      vertex -0.459999 1.4 0.459999
    endloop
  endfacet
  facet normal 0 0 1
    outer loop
      vertex -0.459999 0.9 0.459999
      vertex -0.599999 1.4 0.459999
      vertex -0.599999 0.9 0.459999
    endloop
  endfacet
  facet normal 0 0 -1
    outer loop
      vertex -0.459999 0.9 0.36
      vertex -0.5 1.28 0.36
      vertex -0.459999 1.28 0.36
    endloop
  endfacet
  facet normal 0 0 -1
    outer loop
      vertex -0.599999 1.4 0.36
      vertex -0.5 1.28 0.36
      vertex -0.599999 0.9 0.36
    endloop
  endfacet
  facet normal 0 0 -1
    outer loop
      vertex -0.599999 0.9 0.36
      vertex -0.5 1.28 0.36
      vertex -0.459999 0.9 0.36
    endloop
  endfacet
  facet normal 0 0 -1
    outer loop
      vertex -0.5 1.34 0.36
      vertex -0.459999 1.4 0.36
      vertex -0.459999 1.34 0.36
    endloop
  endfacet
  facet normal 0 0 -1
    outer loop
      vertex -0.5 1.34 0.36
      vertex -0.599999 1.4 0.36
      vertex -0.459999 1.4 0.36
    endloop
  endfacet
  facet normal 0 0 -1
    outer loop
      vertex -0.5 1.28 0.36
      vertex -0.599999 1.4 0.36
      vertex -0.5 1.34 0.36
    endloop
  endfacet
  facet normal -1 0 0
    outer loop
      vertex -0.599999 0.9 0.36
      vertex -0.599999 1.4 0.459999
      vertex -0.599999 1.4 0.36
    endloop
  endfacet
  facet normal -1 -0 0
    outer loop
      vertex -0.599999 1.4 0.459999
      vertex -0.599999 0.9 0.36
      vertex -0.599999 0.9 0.459999
    endloop
  endfacet
  facet normal 0 1 -0
    outer loop
      vertex -0.459999 1.4 0.36
      vertex -0.599999 1.4 0.459999
      vertex -0.459999 1.4 0.459999
    endloop
  endfacet
  facet normal 0 1 0
    outer loop
      vertex -0.599999 1.4 0.459999
      vertex -0.459999 1.4 0.36
      vertex -0.599999 1.4 0.36
    endloop
  endfacet
  facet normal 0 -1 0
    outer loop
      vertex -0.599999 0.9 0.36
      vertex -0.459999 0.9 0.459999
      vertex -0.599999 0.9 0.459999
    endloop
  endfacet
  facet normal 0 -1 -0
    outer loop
      vertex -0.459999 0.9 0.459999
      vertex -0.599999 0.9 0.36
      vertex -0.459999 0.9 0.36
    endloop
  endfacet
  facet normal 1 -0 0
    outer loop
      vertex 0.599999 0.9 0.459999
      vertex 0.599999 1.4 0.36
      vertex 0.599999 1.4 0.459999
    endloop
  endfacet
  facet normal 1 0 0
    outer loop
      vertex 0.599999 1.4 0.36
      vertex 0.599999 0.9 0.459999
      vertex 0.599999 0.9 0.36
    endloop
  endfacet
  facet normal -0 0 1
    outer loop
      vertex 0.459999 1.4 0.459999
      vertex 0.599999 0.9 0.459999
      vertex 0.599999 1.4 0.459999
    endloop
  endfacet
  facet normal 0 0 1
    outer loop
      vertex 0.599999 0.9 0.459999
      vertex 0.459999 1.4 0.459999
      vertex 0.459999 0.9 0.459999
    endloop
  endfacet
  facet normal 0 0 -1
    outer loop
      vertex 0.599999 0.9 0.36
      vertex 0.5 1.28 0.36
      vertex 0.599999 1.4 0.36
    endloop
  endfacet
  facet normal 0 0 -1
    outer loop
      vertex 0.459999 0.9 0.36
      vertex 0.5 1.28 0.36
      vertex 0.599999 0.9 0.36
    endloop
  endfacet
  facet normal -0 0 -1
    outer loop
      vertex 0.5 1.28 0.36
      vertex 0.459999 0.9 0.36
      vertex 0.459999 1.28 0.36
    endloop
  endfacet
  facet normal 0 0 -1
    outer loop
      vertex 0.5 1.34 0.36
      vertex 0.599999 1.4 0.36
      vertex 0.5 1.28 0.36
    endloop
  endfacet
  facet normal 0 0 -1
    outer loop
      vertex 0.459999 1.4 0.36
      vertex 0.5 1.34 0.36
      vertex 0.459999 1.34 0.36
    endloop
  endfacet
  facet normal 0 0 -1
    outer loop
      vertex 0.5 1.34 0.36
      vertex 0.459999 1.4 0.36
      vertex 0.599999 1.4 0.36
    endloop
  endfacet
  facet normal -1 0 0
    outer loop
      vertex 0.459999 1.28 0.36
      vertex 0.459999 0.9 0.36
      vertex 0.459999 1.28 0.379999
    endloop
  endfacet
  facet normal -1 0 0
    outer loop
      vertex 0.459999 1.34 0.379999
      vertex 0.459999 1.4 0.36
      vertex 0.459999 1.34 0.36
    endloop
  endfacet
  facet normal -1 0 0
    outer loop
      vertex 0.459999 1.4 0.36
      vertex 0.459999 1.34 0.379999
      vertex 0.459999 1.4 0.459999
    endloop
  endfacet
  facet normal -1 0 0
    outer loop
      vertex 0.459999 1.28 0.379999
      vertex 0.459999 1.4 0.459999
      vertex 0.459999 1.34 0.379999
    endloop
  endfacet
  facet normal -1 0 0
    outer loop
      vertex 0.459999 0.9 0.459999
      vertex 0.459999 1.28 0.379999
      vertex 0.459999 0.9 0.36
    endloop
  endfacet
  facet normal -1 0 0
    outer loop
      vertex 0.459999 1.28 0.379999
      vertex 0.459999 0.9 0.459999
      vertex 0.459999 1.4 0.459999
    endloop
  endfacet
  facet normal 0 1 -0
    outer loop
      vertex 0.599999 1.4 0.36
      vertex 0.459999 1.4 0.459999
      vertex 0.599999 1.4 0.459999
    endloop
  endfacet
  facet normal 0 1 0
    outer loop
      vertex 0.459999 1.4 0.459999
      vertex 0.599999 1.4 0.36
      vertex 0.459999 1.4 0.36
    endloop
  endfacet
  facet normal 0 -1 0
    outer loop
      vertex 0.459999 0.9 0.36
      vertex 0.599999 0.9 0.459999
      vertex 0.459999 0.9 0.459999
    endloop
  endfacet
  facet normal 0 -1 -0
    outer loop
      vertex 0.599999 0.9 0.459999
      vertex 0.459999 0.9 0.36
      vertex 0.599999 0.9 0.36
    endloop
  endfacet
  facet normal 1 -0 0
    outer loop
      vertex 0.52 -1.18 0.82
      vertex 0.52 0.0999994 0.4
      vertex 0.52 0.0999994 0.82
    endloop
  endfacet
  facet normal 1 0 0
    outer loop
      vertex 0.52 0.0999994 0.4
      vertex 0.52 -1.18 0.82
      vertex 0.52 -1.18 0.4
    endloop
  endfacet
  facet normal -0 0 1
    outer loop
      vertex -0.52 0.0999994 0.82
      vertex 0.52 -1.18 0.82
      vertex 0.52 0.0999994 0.82
    endloop
  endfacet
  facet normal 0 0 1
    outer loop
      vertex 0.52 -1.18 0.82
      vertex -0.52 0.0999994 0.82
      vertex -0.52 -1.18 0.82
    endloop
  endfacet
  facet normal -1 0 0
    outer loop
      vertex -0.52 -1.18 0.4
      vertex -0.52 0.0999994 0.82
      vertex -0.52 0.0999994 0.4
    endloop
  endfacet
  facet normal -1 -0 0
    outer loop
      vertex -0.52 0.0999994 0.82
      vertex -0.52 -1.18 0.4
      vertex -0.52 -1.18 0.82
    endloop
  endfacet
  facet normal 0 1 0
    outer loop
      vertex 0.419999 0.0999994 0.4
      vertex 0.52 0.0999994 0.82
      vertex 0.52 0.0999994 0.4
    endloop
  endfacet
  facet normal 0 1 0
    outer loop
      vertex 0.52 0.0999994 0.82
      vertex 0.419999 0.0999994 0.4
      vertex -0.52 0.0999994 0.82
    endloop
  endfacet
  facet normal 0 1 -0
    outer loop
      vertex -0.419999 0.0999994 0.4
      vertex -0.52 0.0999994 0.82
      vertex 0.419999 0.0999994 0.4
    endloop
  endfacet
  facet normal 0 1 0
    outer loop
      vertex -0.52 0.0999994 0.82
      vertex -0.419999 0.0999994 0.4
      vertex -0.52 0.0999994 0.4
    endloop
  endfacet
  facet normal 0 -1 0
    outer loop
      vertex -0.419999 -1.18 0.4
      vertex -0.52 -1.18 0.82
      vertex -0.52 -1.18 0.4
    endloop
  endfacet
  facet normal 0 -1 0
    outer loop
      vertex -0.52 -1.18 0.82
      vertex -0.419999 -1.18 0.4
      vertex 0.52 -1.18 0.82
    endloop
  endfacet
  facet normal 0 -1 0
    outer loop
      vertex 0.419999 -1.18 0.4
      vertex 0.52 -1.18 0.82
      vertex -0.419999 -1.18 0.4
    endloop
  endfacet
  facet normal 0 -1 -0
    outer loop
      vertex 0.52 -1.18 0.82
      vertex 0.419999 -1.18 0.4
      vertex 0.52 -1.18 0.4
    endloop
  endfacet
endsolid OpenSCAD_Model
