solid OpenSCAD_Model
  facet normal 0 -0.309016 0.951057
    outer loop
      vertex 0.599999 0.95 0.36
      vertex 0.74 0.844198 0.325623
      vertex 0.74 0.95 0.36
    endloop
  endfacet
  facet normal 0 -0.309016 0.951057
    outer loop
      vertex 0.74 0.844198 0.325623
      vertex 0.599999 0.95 0.36
      vertex 0.599999 0.844198 0.325623
    endloop
  endfacet
  facet normal 0 1 -0
    outer loop
      vertex 0.74 1.12119 0.124376
      vertex 0.599999 1.12119 0.235622
      vertex 0.74 1.12119 0.235622
    endloop
  endfacet
  facet normal 0 1 0
    outer loop
      vertex 0.599999 1.12119 0.235622
      vertex 0.74 1.12119 0.124376
      vertex 0.599999 1.12119 0.124376
    endloop
  endfacet
  facet normal 0 -0.309008 -0.951059
    outer loop
      vertex 0.599999 0.844198 0.0343761
      vertex 0.74 0.95 0
      vertex 0.74 0.844198 0.0343761
    endloop
  endfacet
  facet normal -0 -0.309008 -0.951059
    outer loop
      vertex 0.74 0.95 0
      vertex 0.599999 0.844198 0.0343761
      vertex 0.599999 0.95 0
    endloop
  endfacet
  facet normal 0 0.809015 0.587788
    outer loop
      vertex 0.74 1.12119 0.235622
      vertex 0.599999 1.0558 0.325623
      vertex 0.74 1.0558 0.325623
    endloop
  endfacet
  facet normal 0 0.809015 0.587788
    outer loop
      vertex 0.599999 1.0558 0.325623
      vertex 0.74 1.12119 0.235622
      vertex 0.599999 1.12119 0.235622
    endloop
  endfacet
  facet normal 0 0.309014 -0.951058
    outer loop
      vertex 0.599999 0.95 0
      vertex 0.74 1.0558 0.0343761
      vertex 0.74 0.95 0
    endloop
  endfacet
  facet normal 0 0.309014 -0.951058
    outer loop
      vertex 0.74 1.0558 0.0343761
      vertex 0.599999 0.95 0
      vertex 0.599999 1.0558 0.0343761
    endloop
  endfacet
  facet normal 0 -1 0
    outer loop
      vertex 0.599999 0.77881 0.124376
      vertex 0.74 0.77881 0.235622
      vertex 0.599999 0.77881 0.235622
    endloop
  endfacet
  facet normal 0 -1 -0
    outer loop
      vertex 0.74 0.77881 0.235622
      vertex 0.599999 0.77881 0.124376
      vertex 0.74 0.77881 0.124376
    endloop
  endfacet
  facet normal 0 0.809012 -0.587793
    outer loop
      vertex 0.74 1.0558 0.0343761
      vertex 0.599999 1.12119 0.124376
      vertex 0.74 1.12119 0.124376
    endloop
  endfacet
  facet normal 0 0.809012 -0.587793
    outer loop
      vertex 0.599999 1.12119 0.124376
      vertex 0.74 1.0558 0.0343761
      vertex 0.599999 1.0558 0.0343761
    endloop
  endfacet
  facet normal -1 0 0
    outer loop
      vertex 0.599999 1.0558 0.0343761
      vertex 0.599999 1.12119 0.235622
      vertex 0.599999 1.12119 0.124376
    endloop
  endfacet
  facet normal -1 0 0
    outer loop
      vertex 0.599999 1.0558 0.0343761
      vertex 0.599999 1.0558 0.325623
      vertex 0.599999 1.12119 0.235622
    endloop
  endfacet
  facet normal -1 0 0
    outer loop
      vertex 0.599999 0.95 0
      vertex 0.599999 1.0558 0.325623
      vertex 0.599999 1.0558 0.0343761
    endloop
  endfacet
  facet normal -1 0 0
    outer loop
      vertex 0.599999 0.95 0
      vertex 0.599999 0.95 0.36
      vertex 0.599999 1.0558 0.325623
    endloop
  endfacet
  facet normal -1 0 0
    outer loop
      vertex 0.599999 0.844198 0.0343761
      vertex 0.599999 0.95 0.36
      vertex 0.599999 0.95 0
    endloop
  endfacet
  facet normal -1 0 0
    outer loop
      vertex 0.599999 0.844198 0.0343761
      vertex 0.599999 0.844198 0.325623
      vertex 0.599999 0.95 0.36
    endloop
  endfacet
  facet normal -1 0 0
    outer loop
      vertex 0.599999 0.77881 0.124376
      vertex 0.599999 0.844198 0.325623
      vertex 0.599999 0.844198 0.0343761
    endloop
  endfacet
  facet normal -1 0 0
    outer loop
      vertex 0.599999 0.844198 0.325623
      vertex 0.599999 0.77881 0.124376
      vertex 0.599999 0.77881 0.235622
    endloop
  endfacet
  facet normal -0 0.309021 0.951055
    outer loop
      vertex 0.599999 1.0558 0.325623
      vertex 0.74 0.95 0.36
      vertex 0.74 1.0558 0.325623
    endloop
  endfacet
  facet normal 0 0.309021 0.951055
    outer loop
      vertex 0.74 0.95 0.36
      vertex 0.599999 1.0558 0.325623
      vertex 0.599999 0.95 0.36
    endloop
  endfacet
  facet normal 1 0 0
    outer loop
      vertex 0.74 1.0558 0.325623
      vertex 0.74 1.12119 0.124376
      vertex 0.74 1.12119 0.235622
    endloop
  endfacet
  facet normal 1 0 0
    outer loop
      vertex 0.74 1.0558 0.325623
      vertex 0.74 1.0558 0.0343761
      vertex 0.74 1.12119 0.124376
    endloop
  endfacet
  facet normal 1 0 0
    outer loop
      vertex 0.74 0.95 0.36
      vertex 0.74 1.0558 0.0343761
      vertex 0.74 1.0558 0.325623
    endloop
  endfacet
  facet normal 1 0 0
    outer loop
      vertex 0.74 0.95 0.36
      vertex 0.74 0.95 0
      vertex 0.74 1.0558 0.0343761
    endloop
  endfacet
  facet normal 1 -0 0
    outer loop
      vertex 0.74 0.844198 0.325623
      vertex 0.74 0.95 0
      vertex 0.74 0.95 0.36
    endloop
  endfacet
  facet normal 1 0 0
    outer loop
      vertex 0.74 0.844198 0.325623
      vertex 0.74 0.844198 0.0343761
      vertex 0.74 0.95 0
    endloop
  endfacet
  facet normal 1 -0 0
    outer loop
      vertex 0.74 0.77881 0.235622
      vertex 0.74 0.844198 0.0343761
      vertex 0.74 0.844198 0.325623
    endloop
  endfacet
  facet normal 1 0 0
    outer loop
      vertex 0.74 0.844198 0.0343761
      vertex 0.74 0.77881 0.235622
      vertex 0.74 0.77881 0.124376
    endloop
  endfacet
  facet normal 0 -0.80902 -0.587781
    outer loop
      vertex 0.599999 0.844198 0.0343761
      vertex 0.74 0.77881 0.124376
      vertex 0.599999 0.77881 0.124376
    endloop
  endfacet
  facet normal 0 -0.80902 -0.587781
    outer loop
      vertex 0.74 0.77881 0.124376
      vertex 0.599999 0.844198 0.0343761
      vertex 0.74 0.844198 0.0343761
    endloop
  endfacet
  facet normal 0 -0.809024 0.587776
    outer loop
      vertex 0.599999 0.77881 0.235622
      vertex 0.74 0.844198 0.325623
      vertex 0.599999 0.844198 0.325623
    endloop
  endfacet
  facet normal 0 -0.809024 0.587776
    outer loop
      vertex 0.74 0.844198 0.325623
      vertex 0.599999 0.77881 0.235622
      vertex 0.74 0.77881 0.235622
    endloop
  endfacet
  facet normal 0 1 -0
    outer loop
      vertex -0.32 1.12119 0.124376
      vertex -0.459999 1.12119 0.235622
      vertex -0.32 1.12119 0.235622
    endloop
  endfacet
  facet normal 0 1 0
    outer loop
      vertex -0.459999 1.12119 0.235622
      vertex -0.32 1.12119 0.124376
      vertex -0.459999 1.12119 0.124376
    endloop
  endfacet
  facet normal 1 0 0
    outer loop
      vertex -0.32 1.0558 0.325623
      vertex -0.32 1.12119 0.124376
      vertex -0.32 1.12119 0.235622
    endloop
  endfacet
  facet normal 1 0 0
    outer loop
      vertex -0.32 1.0558 0.325623
      vertex -0.32 1.0558 0.0343761
      vertex -0.32 1.12119 0.124376
    endloop
  endfacet
  facet normal 1 0 0
    outer loop
      vertex -0.32 0.95 0.36
      vertex -0.32 1.0558 0.0343761
      vertex -0.32 1.0558 0.325623
    endloop
  endfacet
  facet normal 1 0 0
    outer loop
      vertex -0.32 0.95 0.36
      vertex -0.32 0.95 0
      vertex -0.32 1.0558 0.0343761
    endloop
  endfacet
  facet normal 1 -0 0
    outer loop
      vertex -0.32 0.844198 0.325623
      vertex -0.32 0.95 0
      vertex -0.32 0.95 0.36
    endloop
  endfacet
  facet normal 1 0 0
    outer loop
      vertex -0.32 0.844198 0.325623
      vertex -0.32 0.844198 0.0343761
      vertex -0.32 0.95 0
    endloop
  endfacet
  facet normal 1 -0 0
    outer loop
      vertex -0.32 0.77881 0.235622
      vertex -0.32 0.844198 0.0343761
      vertex -0.32 0.844198 0.325623
    endloop
  endfacet
  facet normal 1 0 0
    outer loop
      vertex -0.32 0.844198 0.0343761
      vertex -0.32 0.77881 0.235622
      vertex -0.32 0.77881 0.124376
    endloop
  endfacet
  facet normal -1 0 0
    outer loop
      vertex -0.459999 1.0558 0.0343761
      vertex -0.459999 1.12119 0.235622
      vertex -0.459999 1.12119 0.124376
    endloop
  endfacet
  facet normal -1 0 0
    outer loop
      vertex -0.459999 1.0558 0.0343761
      vertex -0.459999 1.0558 0.325623
      vertex -0.459999 1.12119 0.235622
    endloop
  endfacet
  facet normal -1 0 0
    outer loop
      vertex -0.459999 0.95 0
      vertex -0.459999 1.0558 0.325623
      vertex -0.459999 1.0558 0.0343761
    endloop
  endfacet
  facet normal -1 0 0
    outer loop
      vertex -0.459999 0.95 0
      vertex -0.459999 0.95 0.36
      vertex -0.459999 1.0558 0.325623
    endloop
  endfacet
  facet normal -1 0 0
    outer loop
      vertex -0.459999 0.844198 0.0343761
      vertex -0.459999 0.95 0.36
      vertex -0.459999 0.95 0
    endloop
  endfacet
  facet normal -1 0 0
    outer loop
      vertex -0.459999 0.844198 0.0343761
      vertex -0.459999 0.844198 0.325623
      vertex -0.459999 0.95 0.36
    endloop
  endfacet
  facet normal -1 0 0
    outer loop
      vertex -0.459999 0.77881 0.124376
      vertex -0.459999 0.844198 0.325623
      vertex -0.459999 0.844198 0.0343761
    endloop
  endfacet
  facet normal -1 0 0
    outer loop
      vertex -0.459999 0.844198 0.325623
      vertex -0.459999 0.77881 0.124376
      vertex -0.459999 0.77881 0.235622
    endloop
  endfacet
  facet normal 0 -0.309016 0.951057
    outer loop
      vertex -0.459999 0.95 0.36
      vertex -0.32 0.844198 0.325623
      vertex -0.32 0.95 0.36
    endloop
  endfacet
  facet normal 0 -0.309016 0.951057
    outer loop
      vertex -0.32 0.844198 0.325623
      vertex -0.459999 0.95 0.36
      vertex -0.459999 0.844198 0.325623
    endloop
  endfacet
  facet normal 0 -0.309008 -0.951059
    outer loop
      vertex -0.459999 0.844198 0.0343761
      vertex -0.32 0.95 0
      vertex -0.32 0.844198 0.0343761
    endloop
  endfacet
  facet normal -0 -0.309008 -0.951059
    outer loop
      vertex -0.32 0.95 0
      vertex -0.459999 0.844198 0.0343761
      vertex -0.459999 0.95 0
    endloop
  endfacet
  facet normal 0 0.809015 0.587788
    outer loop
      vertex -0.32 1.12119 0.235622
      vertex -0.459999 1.0558 0.325623
      vertex -0.32 1.0558 0.325623
    endloop
  endfacet
  facet normal 0 0.809015 0.587788
    outer loop
      vertex -0.459999 1.0558 0.325623
      vertex -0.32 1.12119 0.235622
      vertex -0.459999 1.12119 0.235622
    endloop
  endfacet
  facet normal 0 0.309014 -0.951058
    outer loop
      vertex -0.459999 0.95 0
      vertex -0.32 1.0558 0.0343761
      vertex -0.32 0.95 0
    endloop
  endfacet
  facet normal 0 0.309014 -0.951058
    outer loop
      vertex -0.32 1.0558 0.0343761
      vertex -0.459999 0.95 0
      vertex -0.459999 1.0558 0.0343761
    endloop
  endfacet
  facet normal 0 0.809012 -0.587793
    outer loop
      vertex -0.32 1.0558 0.0343761
      vertex -0.459999 1.12119 0.124376
      vertex -0.32 1.12119 0.124376
    endloop
  endfacet
  facet normal 0 0.809012 -0.587793
    outer loop
      vertex -0.459999 1.12119 0.124376
      vertex -0.32 1.0558 0.0343761
      vertex -0.459999 1.0558 0.0343761
    endloop
  endfacet
  facet normal 0 -1 0
    outer loop
      vertex -0.459999 0.77881 0.124376
      vertex -0.32 0.77881 0.235622
      vertex -0.459999 0.77881 0.235622
    endloop
  endfacet
  facet normal 0 -1 -0
    outer loop
      vertex -0.32 0.77881 0.235622
      vertex -0.459999 0.77881 0.124376
      vertex -0.32 0.77881 0.124376
    endloop
  endfacet
  facet normal -0 0.309021 0.951055
    outer loop
      vertex -0.459999 1.0558 0.325623
      vertex -0.32 0.95 0.36
      vertex -0.32 1.0558 0.325623
    endloop
  endfacet
  facet normal 0 0.309021 0.951055
    outer loop
      vertex -0.32 0.95 0.36
      vertex -0.459999 1.0558 0.325623
      vertex -0.459999 0.95 0.36
    endloop
  endfacet
  facet normal 0 -0.80902 -0.587781
    outer loop
      vertex -0.459999 0.844198 0.0343761
      vertex -0.32 0.77881 0.124376
      vertex -0.459999 0.77881 0.124376
    endloop
  endfacet
  facet normal 0 -0.80902 -0.587781
    outer loop
      vertex -0.32 0.77881 0.124376
      vertex -0.459999 0.844198 0.0343761
      vertex -0.32 0.844198 0.0343761
    endloop
  endfacet
  facet normal 0 -0.809024 0.587776
    outer loop
      vertex -0.459999 0.77881 0.235622
      vertex -0.32 0.844198 0.325623
      vertex -0.459999 0.844198 0.325623
    endloop
  endfacet
  facet normal 0 -0.809024 0.587776
    outer loop
      vertex -0.32 0.844198 0.325623
      vertex -0.459999 0.77881 0.235622
      vertex -0.32 0.77881 0.235622
    endloop
  endfacet
  facet normal 0 -0.309021 0.951055
    outer loop
      vertex 0.599999 -0.45 0.36
      vertex 0.74 -0.5558 0.325623
      vertex 0.74 -0.45 0.36
    endloop
  endfacet
  facet normal 0 -0.309021 0.951055
    outer loop
      vertex 0.74 -0.5558 0.325623
      vertex 0.599999 -0.45 0.36
      vertex 0.599999 -0.5558 0.325623
    endloop
  endfacet
  facet normal 0 1 -0
    outer loop
      vertex 0.74 -0.27881 0.124376
      vertex 0.599999 -0.27881 0.235622
      vertex 0.74 -0.27881 0.235622
    endloop
  endfacet
  facet normal 0 1 0
    outer loop
      vertex 0.599999 -0.27881 0.235622
      vertex 0.74 -0.27881 0.124376
      vertex 0.599999 -0.27881 0.124376
    endloop
  endfacet
  facet normal 0 0.809024 0.587776
    outer loop
      vertex 0.74 -0.27881 0.235622
      vertex 0.599999 -0.344198 0.325623
      vertex 0.74 -0.344198 0.325623
    endloop
  endfacet
  facet normal 0 0.809024 0.587776
    outer loop
      vertex 0.599999 -0.344198 0.325623
      vertex 0.74 -0.27881 0.235622
      vertex 0.599999 -0.27881 0.235622
    endloop
  endfacet
  facet normal 0 -0.309014 -0.951058
    outer loop
      vertex 0.599999 -0.5558 0.0343761
      vertex 0.74 -0.45 0
      vertex 0.74 -0.5558 0.0343761
    endloop
  endfacet
  facet normal -0 -0.309014 -0.951058
    outer loop
      vertex 0.74 -0.45 0
      vertex 0.599999 -0.5558 0.0343761
      vertex 0.599999 -0.45 0
    endloop
  endfacet
  facet normal -1 0 0
    outer loop
      vertex 0.599999 -0.344198 0.0343761
      vertex 0.599999 -0.27881 0.235622
      vertex 0.599999 -0.27881 0.124376
    endloop
  endfacet
  facet normal -1 0 0
    outer loop
      vertex 0.599999 -0.344198 0.0343761
      vertex 0.599999 -0.344198 0.325623
      vertex 0.599999 -0.27881 0.235622
    endloop
  endfacet
  facet normal -1 0 0
    outer loop
      vertex 0.599999 -0.45 0
      vertex 0.599999 -0.344198 0.325623
      vertex 0.599999 -0.344198 0.0343761
    endloop
  endfacet
  facet normal -1 0 0
    outer loop
      vertex 0.599999 -0.45 0
      vertex 0.599999 -0.45 0.36
      vertex 0.599999 -0.344198 0.325623
    endloop
  endfacet
  facet normal -1 0 0
    outer loop
      vertex 0.599999 -0.5558 0.0343761
      vertex 0.599999 -0.45 0.36
      vertex 0.599999 -0.45 0
    endloop
  endfacet
  facet normal -1 0 0
    outer loop
      vertex 0.599999 -0.5558 0.0343761
      vertex 0.599999 -0.5558 0.325623
      vertex 0.599999 -0.45 0.36
    endloop
  endfacet
  facet normal -1 0 0
    outer loop
      vertex 0.599999 -0.62119 0.124376
      vertex 0.599999 -0.5558 0.325623
      vertex 0.599999 -0.5558 0.0343761
    endloop
  endfacet
  facet normal -1 0 0
    outer loop
      vertex 0.599999 -0.5558 0.325623
      vertex 0.599999 -0.62119 0.124376
      vertex 0.599999 -0.62119 0.235622
    endloop
  endfacet
  facet normal 0 0.309008 -0.951059
    outer loop
      vertex 0.599999 -0.45 0
      vertex 0.74 -0.344198 0.0343761
      vertex 0.74 -0.45 0
    endloop
  endfacet
  facet normal 0 0.309008 -0.951059
    outer loop
      vertex 0.74 -0.344198 0.0343761
      vertex 0.599999 -0.45 0
      vertex 0.599999 -0.344198 0.0343761
    endloop
  endfacet
  facet normal 0 0.80902 -0.587781
    outer loop
      vertex 0.74 -0.344198 0.0343761
      vertex 0.599999 -0.27881 0.124376
      vertex 0.74 -0.27881 0.124376
    endloop
  endfacet
  facet normal 0 0.80902 -0.587781
    outer loop
      vertex 0.599999 -0.27881 0.124376
      vertex 0.74 -0.344198 0.0343761
      vertex 0.599999 -0.344198 0.0343761
    endloop
  endfacet
  facet normal 0 -0.809012 -0.587793
    outer loop
      vertex 0.599999 -0.5558 0.0343761
      vertex 0.74 -0.62119 0.124376
      vertex 0.599999 -0.62119 0.124376
    endloop
  endfacet
  facet normal 0 -0.809012 -0.587793
    outer loop
      vertex 0.74 -0.62119 0.124376
      vertex 0.599999 -0.5558 0.0343761
      vertex 0.74 -0.5558 0.0343761
    endloop
  endfacet
  facet normal 0 -1 0
    outer loop
      vertex 0.599999 -0.62119 0.124376
      vertex 0.74 -0.62119 0.235622
      vertex 0.599999 -0.62119 0.235622
    endloop
  endfacet
  facet normal 0 -1 -0
    outer loop
      vertex 0.74 -0.62119 0.235622
      vertex 0.599999 -0.62119 0.124376
      vertex 0.74 -0.62119 0.124376
    endloop
  endfacet
  facet normal 0 -0.809015 0.587788
    outer loop
      vertex 0.599999 -0.62119 0.235622
      vertex 0.74 -0.5558 0.325623
      vertex 0.599999 -0.5558 0.325623
    endloop
  endfacet
  facet normal 0 -0.809015 0.587788
    outer loop
      vertex 0.74 -0.5558 0.325623
      vertex 0.599999 -0.62119 0.235622
      vertex 0.74 -0.62119 0.235622
    endloop
  endfacet
  facet normal 1 0 0
    outer loop
      vertex 0.74 -0.344198 0.325623
      vertex 0.74 -0.27881 0.124376
      vertex 0.74 -0.27881 0.235622
    endloop
  endfacet
  facet normal 1 0 0
    outer loop
      vertex 0.74 -0.344198 0.325623
      vertex 0.74 -0.344198 0.0343761
      vertex 0.74 -0.27881 0.124376
    endloop
  endfacet
  facet normal 1 0 0
    outer loop
      vertex 0.74 -0.45 0.36
      vertex 0.74 -0.344198 0.0343761
      vertex 0.74 -0.344198 0.325623
    endloop
  endfacet
  facet normal 1 0 0
    outer loop
      vertex 0.74 -0.45 0.36
      vertex 0.74 -0.45 0
      vertex 0.74 -0.344198 0.0343761
    endloop
  endfacet
  facet normal 1 -0 0
    outer loop
      vertex 0.74 -0.5558 0.325623
      vertex 0.74 -0.45 0
      vertex 0.74 -0.45 0.36
    endloop
  endfacet
  facet normal 1 0 0
    outer loop
      vertex 0.74 -0.5558 0.325623
      vertex 0.74 -0.5558 0.0343761
      vertex 0.74 -0.45 0
    endloop
  endfacet
  facet normal 1 -0 0
    outer loop
      vertex 0.74 -0.62119 0.235622
      vertex 0.74 -0.5558 0.0343761
      vertex 0.74 -0.5558 0.325623
    endloop
  endfacet
  facet normal 1 0 0
    outer loop
      vertex 0.74 -0.5558 0.0343761
      vertex 0.74 -0.62119 0.235622
      vertex 0.74 -0.62119 0.124376
    endloop
  endfacet
  facet normal -0 0.309016 0.951057
    outer loop
      vertex 0.599999 -0.344198 0.325623
      vertex 0.74 -0.45 0.36
      vertex 0.74 -0.344198 0.325623
    endloop
  endfacet
  facet normal 0 0.309016 0.951057
    outer loop
      vertex 0.74 -0.45 0.36
      vertex 0.599999 -0.344198 0.325623
      vertex 0.599999 -0.45 0.36
    endloop
  endfacet
  facet normal 0 -0.309021 0.951055
    outer loop
      vertex -0.459999 -0.45 0.36
      vertex -0.32 -0.5558 0.325623
      vertex -0.32 -0.45 0.36
    endloop
  endfacet
  facet normal 0 -0.309021 0.951055
    outer loop
      vertex -0.32 -0.5558 0.325623
      vertex -0.459999 -0.45 0.36
      vertex -0.459999 -0.5558 0.325623
    endloop
  endfacet
  facet normal 0 1 -0
    outer loop
      vertex -0.32 -0.27881 0.124376
      vertex -0.459999 -0.27881 0.235622
      vertex -0.32 -0.27881 0.235622
    endloop
  endfacet
  facet normal 0 1 0
    outer loop
      vertex -0.459999 -0.27881 0.235622
      vertex -0.32 -0.27881 0.124376
      vertex -0.459999 -0.27881 0.124376
    endloop
  endfacet
  facet normal 0 0.809024 0.587776
    outer loop
      vertex -0.32 -0.27881 0.235622
      vertex -0.459999 -0.344198 0.325623
      vertex -0.32 -0.344198 0.325623
    endloop
  endfacet
  facet normal 0 0.809024 0.587776
    outer loop
      vertex -0.459999 -0.344198 0.325623
      vertex -0.32 -0.27881 0.235622
      vertex -0.459999 -0.27881 0.235622
    endloop
  endfacet
  facet normal 0 -0.309014 -0.951058
    outer loop
      vertex -0.459999 -0.5558 0.0343761
      vertex -0.32 -0.45 0
      vertex -0.32 -0.5558 0.0343761
    endloop
  endfacet
  facet normal -0 -0.309014 -0.951058
    outer loop
      vertex -0.32 -0.45 0
      vertex -0.459999 -0.5558 0.0343761
      vertex -0.459999 -0.45 0
    endloop
  endfacet
  facet normal -1 0 0
    outer loop
      vertex -0.459999 -0.344198 0.0343761
      vertex -0.459999 -0.27881 0.235622
      vertex -0.459999 -0.27881 0.124376
    endloop
  endfacet
  facet normal -1 0 0
    outer loop
      vertex -0.459999 -0.344198 0.0343761
      vertex -0.459999 -0.344198 0.325623
      vertex -0.459999 -0.27881 0.235622
    endloop
  endfacet
  facet normal -1 0 0
    outer loop
      vertex -0.459999 -0.45 0
      vertex -0.459999 -0.344198 0.325623
      vertex -0.459999 -0.344198 0.0343761
    endloop
  endfacet
  facet normal -1 0 0
    outer loop
      vertex -0.459999 -0.45 0
      vertex -0.459999 -0.45 0.36
      vertex -0.459999 -0.344198 0.325623
    endloop
  endfacet
  facet normal -1 0 0
    outer loop
      vertex -0.459999 -0.5558 0.0343761
      vertex -0.459999 -0.45 0.36
      vertex -0.459999 -0.45 0
    endloop
  endfacet
  facet normal -1 0 0
    outer loop
      vertex -0.459999 -0.5558 0.0343761
      vertex -0.459999 -0.5558 0.325623
      vertex -0.459999 -0.45 0.36
    endloop
  endfacet
  facet normal -1 0 0
    outer loop
      vertex -0.459999 -0.62119 0.124376
      vertex -0.459999 -0.5558 0.325623
      vertex -0.459999 -0.5558 0.0343761
    endloop
  endfacet
  facet normal -1 0 0
    outer loop
      vertex -0.459999 -0.5558 0.325623
      vertex -0.459999 -0.62119 0.124376
      vertex -0.459999 -0.62119 0.235622
    endloop
  endfacet
  facet normal 0 0.309008 -0.951059
    outer loop
      vertex -0.459999 -0.45 0
      vertex -0.32 -0.344198 0.0343761
      vertex -0.32 -0.45 0
    endloop
  endfacet
  facet normal 0 0.309008 -0.951059
    outer loop
      vertex -0.32 -0.344198 0.0343761
      vertex -0.459999 -0.45 0
      vertex -0.459999 -0.344198 0.0343761
    endloop
  endfacet
  facet normal 0 0.80902 -0.587781
    outer loop
      vertex -0.32 -0.344198 0.0343761
      vertex -0.459999 -0.27881 0.124376
      vertex -0.32 -0.27881 0.124376
    endloop
  endfacet
  facet normal 0 0.80902 -0.587781
    outer loop
      vertex -0.459999 -0.27881 0.124376
      vertex -0.32 -0.344198 0.0343761
      vertex -0.459999 -0.344198 0.0343761
    endloop
  endfacet
  facet normal 0 -0.809012 -0.587793
    outer loop
      vertex -0.459999 -0.5558 0.0343761
      vertex -0.32 -0.62119 0.124376
      vertex -0.459999 -0.62119 0.124376
    endloop
  endfacet
  facet normal 0 -0.809012 -0.587793
    outer loop
      vertex -0.32 -0.62119 0.124376
      vertex -0.459999 -0.5558 0.0343761
      vertex -0.32 -0.5558 0.0343761
    endloop
  endfacet
  facet normal 0 -1 0
    outer loop
      vertex -0.459999 -0.62119 0.124376
      vertex -0.32 -0.62119 0.235622
      vertex -0.459999 -0.62119 0.235622
    endloop
  endfacet
  facet normal 0 -1 -0
    outer loop
      vertex -0.32 -0.62119 0.235622
      vertex -0.459999 -0.62119 0.124376
      vertex -0.32 -0.62119 0.124376
    endloop
  endfacet
  facet normal 0 -0.809015 0.587788
    outer loop
      vertex -0.459999 -0.62119 0.235622
      vertex -0.32 -0.5558 0.325623
      vertex -0.459999 -0.5558 0.325623
    endloop
  endfacet
  facet normal 0 -0.809015 0.587788
    outer loop
      vertex -0.32 -0.5558 0.325623
      vertex -0.459999 -0.62119 0.235622
      vertex -0.32 -0.62119 0.235622
    endloop
  endfacet
  facet normal 1 0 0
    outer loop
      vertex -0.32 -0.344198 0.325623
      vertex -0.32 -0.27881 0.124376
      vertex -0.32 -0.27881 0.235622
    endloop
  endfacet
  facet normal 1 0 0
    outer loop
      vertex -0.32 -0.344198 0.325623
      vertex -0.32 -0.344198 0.0343761
      vertex -0.32 -0.27881 0.124376
    endloop
  endfacet
  facet normal 1 0 0
    outer loop
      vertex -0.32 -0.45 0.36
      vertex -0.32 -0.344198 0.0343761
      vertex -0.32 -0.344198 0.325623
    endloop
  endfacet
  facet normal 1 0 0
    outer loop
      vertex -0.32 -0.45 0.36
      vertex -0.32 -0.45 0
      vertex -0.32 -0.344198 0.0343761
    endloop
  endfacet
  facet normal 1 -0 0
    outer loop
      vertex -0.32 -0.5558 0.325623
      vertex -0.32 -0.45 0
      vertex -0.32 -0.45 0.36
    endloop
  endfacet
  facet normal 1 0 0
    outer loop
      vertex -0.32 -0.5558 0.325623
      vertex -0.32 -0.5558 0.0343761
      vertex -0.32 -0.45 0
    endloop
  endfacet
  facet normal 1 -0 0
    outer loop
      vertex -0.32 -0.62119 0.235622
      vertex -0.32 -0.5558 0.0343761
      vertex -0.32 -0.5558 0.325623
    endloop
  endfacet
  facet normal 1 0 0
    outer loop
      vertex -0.32 -0.5558 0.0343761
      vertex -0.32 -0.62119 0.235622
      vertex -0.32 -0.62119 0.124376
    endloop
  endfacet
  facet normal -0 0.309016 0.951057
    outer loop
      vertex -0.459999 -0.344198 0.325623
      vertex -0.32 -0.45 0.36
      vertex -0.32 -0.344198 0.325623
    endloop
  endfacet
  facet normal 0 0.309016 0.951057
    outer loop
      vertex -0.32 -0.45 0.36
      vertex -0.459999 -0.344198 0.325623
      vertex -0.459999 -0.45 0.36
    endloop
  endfacet
  facet normal 0 -0.309021 0.951055
    outer loop
      vertex 0.599999 -0.9 0.36
      vertex 0.74 -1.0058 0.325623
      vertex 0.74 -0.9 0.36
    endloop
  endfacet
  facet normal 0 -0.309021 0.951055
    outer loop
      vertex 0.74 -1.0058 0.325623
      vertex 0.599999 -0.9 0.36
      vertex 0.599999 -1.0058 0.325623
    endloop
  endfacet
  facet normal 0 1 -0
    outer loop
      vertex 0.74 -0.728809 0.124376
      vertex 0.599999 -0.728809 0.235622
      vertex 0.74 -0.728809 0.235622
    endloop
  endfacet
  facet normal 0 1 0
    outer loop
      vertex 0.599999 -0.728809 0.235622
      vertex 0.74 -0.728809 0.124376
      vertex 0.599999 -0.728809 0.124376
    endloop
  endfacet
  facet normal 0 -0.309014 -0.951058
    outer loop
      vertex 0.599999 -1.0058 0.0343761
      vertex 0.74 -0.9 0
      vertex 0.74 -1.0058 0.0343761
    endloop
  endfacet
  facet normal -0 -0.309014 -0.951058
    outer loop
      vertex 0.74 -0.9 0
      vertex 0.599999 -1.0058 0.0343761
      vertex 0.599999 -0.9 0
    endloop
  endfacet
  facet normal 0 0.809019 0.587782
    outer loop
      vertex 0.74 -0.728809 0.235622
      vertex 0.599999 -0.794198 0.325623
      vertex 0.74 -0.794198 0.325623
    endloop
  endfacet
  facet normal 0 0.809019 0.587782
    outer loop
      vertex 0.599999 -0.794198 0.325623
      vertex 0.74 -0.728809 0.235622
      vertex 0.599999 -0.728809 0.235622
    endloop
  endfacet
  facet normal 0 0.309008 -0.951059
    outer loop
      vertex 0.599999 -0.9 0
      vertex 0.74 -0.794198 0.0343761
      vertex 0.74 -0.9 0
    endloop
  endfacet
  facet normal 0 0.309008 -0.951059
    outer loop
      vertex 0.74 -0.794198 0.0343761
      vertex 0.599999 -0.9 0
      vertex 0.599999 -0.794198 0.0343761
    endloop
  endfacet
  facet normal 0 -1 0
    outer loop
      vertex 0.599999 -1.07119 0.124376
      vertex 0.74 -1.07119 0.235622
      vertex 0.599999 -1.07119 0.235622
    endloop
  endfacet
  facet normal 0 -1 -0
    outer loop
      vertex 0.74 -1.07119 0.235622
      vertex 0.599999 -1.07119 0.124376
      vertex 0.74 -1.07119 0.124376
    endloop
  endfacet
  facet normal 0 0.809016 -0.587787
    outer loop
      vertex 0.74 -0.794198 0.0343761
      vertex 0.599999 -0.728809 0.124376
      vertex 0.74 -0.728809 0.124376
    endloop
  endfacet
  facet normal 0 0.809016 -0.587787
    outer loop
      vertex 0.599999 -0.728809 0.124376
      vertex 0.74 -0.794198 0.0343761
      vertex 0.599999 -0.794198 0.0343761
    endloop
  endfacet
  facet normal -1 0 0
    outer loop
      vertex 0.599999 -0.794198 0.0343761
      vertex 0.599999 -0.728809 0.235622
      vertex 0.599999 -0.728809 0.124376
    endloop
  endfacet
  facet normal -1 0 0
    outer loop
      vertex 0.599999 -0.794198 0.0343761
      vertex 0.599999 -0.794198 0.325623
      vertex 0.599999 -0.728809 0.235622
    endloop
  endfacet
  facet normal -1 0 0
    outer loop
      vertex 0.599999 -0.9 0
      vertex 0.599999 -0.794198 0.325623
      vertex 0.599999 -0.794198 0.0343761
    endloop
  endfacet
  facet normal -1 0 0
    outer loop
      vertex 0.599999 -0.9 0
      vertex 0.599999 -0.9 0.36
      vertex 0.599999 -0.794198 0.325623
    endloop
  endfacet
  facet normal -1 0 0
    outer loop
      vertex 0.599999 -1.0058 0.0343761
      vertex 0.599999 -0.9 0.36
      vertex 0.599999 -0.9 0
    endloop
  endfacet
  facet normal -1 0 0
    outer loop
      vertex 0.599999 -1.0058 0.0343761
      vertex 0.599999 -1.0058 0.325623
      vertex 0.599999 -0.9 0.36
    endloop
  endfacet
  facet normal -1 0 0
    outer loop
      vertex 0.599999 -1.07119 0.124376
      vertex 0.599999 -1.0058 0.325623
      vertex 0.599999 -1.0058 0.0343761
    endloop
  endfacet
  facet normal -1 0 0
    outer loop
      vertex 0.599999 -1.0058 0.325623
      vertex 0.599999 -1.07119 0.124376
      vertex 0.599999 -1.07119 0.235622
    endloop
  endfacet
  facet normal -0 0.309016 0.951057
    outer loop
      vertex 0.599999 -0.794198 0.325623
      vertex 0.74 -0.9 0.36
      vertex 0.74 -0.794198 0.325623
    endloop
  endfacet
  facet normal 0 0.309016 0.951057
    outer loop
      vertex 0.74 -0.9 0.36
      vertex 0.599999 -0.794198 0.325623
      vertex 0.599999 -0.9 0.36
    endloop
  endfacet
  facet normal 1 0 0
    outer loop
      vertex 0.74 -0.794198 0.325623
      vertex 0.74 -0.728809 0.124376
      vertex 0.74 -0.728809 0.235622
    endloop
  endfacet
  facet normal 1 0 0
    outer loop
      vertex 0.74 -0.794198 0.325623
      vertex 0.74 -0.794198 0.0343761
      vertex 0.74 -0.728809 0.124376
    endloop
  endfacet
  facet normal 1 0 0
    outer loop
      vertex 0.74 -0.9 0.36
      vertex 0.74 -0.794198 0.0343761
      vertex 0.74 -0.794198 0.325623
    endloop
  endfacet
  facet normal 1 0 0
    outer loop
      vertex 0.74 -0.9 0.36
      vertex 0.74 -0.9 0
      vertex 0.74 -0.794198 0.0343761
    endloop
  endfacet
  facet normal 1 -0 0
    outer loop
      vertex 0.74 -1.0058 0.325623
      vertex 0.74 -0.9 0
      vertex 0.74 -0.9 0.36
    endloop
  endfacet
  facet normal 1 0 0
    outer loop
      vertex 0.74 -1.0058 0.325623
      vertex 0.74 -1.0058 0.0343761
      vertex 0.74 -0.9 0
    endloop
  endfacet
  facet normal 1 -0 0
    outer loop
      vertex 0.74 -1.07119 0.235622
      vertex 0.74 -1.0058 0.0343761
      vertex 0.74 -1.0058 0.325623
    endloop
  endfacet
  facet normal 1 0 0
    outer loop
      vertex 0.74 -1.0058 0.0343761
      vertex 0.74 -1.07119 0.235622
      vertex 0.74 -1.07119 0.124376
    endloop
  endfacet
  facet normal 0 -0.809012 -0.587793
    outer loop
      vertex 0.599999 -1.0058 0.0343761
      vertex 0.74 -1.07119 0.124376
      vertex 0.599999 -1.07119 0.124376
    endloop
  endfacet
  facet normal 0 -0.809012 -0.587793
    outer loop
      vertex 0.74 -1.07119 0.124376
      vertex 0.599999 -1.0058 0.0343761
      vertex 0.74 -1.0058 0.0343761
    endloop
  endfacet
  facet normal 0 -0.809015 0.587788
    outer loop
      vertex 0.599999 -1.07119 0.235622
      vertex 0.74 -1.0058 0.325623
      vertex 0.599999 -1.0058 0.325623
    endloop
  endfacet
  facet normal 0 -0.809015 0.587788
    outer loop
      vertex 0.74 -1.0058 0.325623
      vertex 0.599999 -1.07119 0.235622
      vertex 0.74 -1.07119 0.235622
    endloop
  endfacet
  facet normal 0 -0.309021 0.951055
    outer loop
      vertex -0.459999 -0.9 0.36
      vertex -0.32 -1.0058 0.325623
      vertex -0.32 -0.9 0.36
    endloop
  endfacet
  facet normal 0 -0.309021 0.951055
    outer loop
      vertex -0.32 -1.0058 0.325623
      vertex -0.459999 -0.9 0.36
      vertex -0.459999 -1.0058 0.325623
    endloop
  endfacet
  facet normal 0 1 -0
    outer loop
      vertex -0.32 -0.728809 0.124376
      vertex -0.459999 -0.728809 0.235622
      vertex -0.32 -0.728809 0.235622
    endloop
  endfacet
  facet normal 0 1 0
    outer loop
      vertex -0.459999 -0.728809 0.235622
      vertex -0.32 -0.728809 0.124376
      vertex -0.459999 -0.728809 0.124376
    endloop
  endfacet
  facet normal 0 -0.309014 -0.951058
    outer loop
      vertex -0.459999 -1.0058 0.0343761
      vertex -0.32 -0.9 0
      vertex -0.32 -1.0058 0.0343761
    endloop
  endfacet
  facet normal -0 -0.309014 -0.951058
    outer loop
      vertex -0.32 -0.9 0
      vertex -0.459999 -1.0058 0.0343761
      vertex -0.459999 -0.9 0
    endloop
  endfacet
  facet normal 0 0.809019 0.587782
    outer loop
      vertex -0.32 -0.728809 0.235622
      vertex -0.459999 -0.794198 0.325623
      vertex -0.32 -0.794198 0.325623
    endloop
  endfacet
  facet normal 0 0.809019 0.587782
    outer loop
      vertex -0.459999 -0.794198 0.325623
      vertex -0.32 -0.728809 0.235622
      vertex -0.459999 -0.728809 0.235622
    endloop
  endfacet
  facet normal 0 0.309008 -0.951059
    outer loop
      vertex -0.459999 -0.9 0
      vertex -0.32 -0.794198 0.0343761
      vertex -0.32 -0.9 0
    endloop
  endfacet
  facet normal 0 0.309008 -0.951059
    outer loop
      vertex -0.32 -0.794198 0.0343761
      vertex -0.459999 -0.9 0
      vertex -0.459999 -0.794198 0.0343761
    endloop
  endfacet
  facet normal 0 -1 0
    outer loop
      vertex -0.459999 -1.07119 0.124376
      vertex -0.32 -1.07119 0.235622
      vertex -0.459999 -1.07119 0.235622
    endloop
  endfacet
  facet normal 0 -1 -0
    outer loop
      vertex -0.32 -1.07119 0.235622
      vertex -0.459999 -1.07119 0.124376
      vertex -0.32 -1.07119 0.124376
    endloop
  endfacet
  facet normal 0 0.809016 -0.587787
    outer loop
      vertex -0.32 -0.794198 0.0343761
      vertex -0.459999 -0.728809 0.124376
      vertex -0.32 -0.728809 0.124376
    endloop
  endfacet
  facet normal 0 0.809016 -0.587787
    outer loop
      vertex -0.459999 -0.728809 0.124376
      vertex -0.32 -0.794198 0.0343761
      vertex -0.459999 -0.794198 0.0343761
    endloop
  endfacet
  facet normal -1 0 0
    outer loop
      vertex -0.459999 -0.794198 0.0343761
      vertex -0.459999 -0.728809 0.235622
      vertex -0.459999 -0.728809 0.124376
    endloop
  endfacet
  facet normal -1 0 0
    outer loop
      vertex -0.459999 -0.794198 0.0343761
      vertex -0.459999 -0.794198 0.325623
      vertex -0.459999 -0.728809 0.235622
    endloop
  endfacet
  facet normal -1 0 0
    outer loop
      vertex -0.459999 -0.9 0
      vertex -0.459999 -0.794198 0.325623
      vertex -0.459999 -0.794198 0.0343761
    endloop
  endfacet
  facet normal -1 0 0
    outer loop
      vertex -0.459999 -0.9 0
      vertex -0.459999 -0.9 0.36
      vertex -0.459999 -0.794198 0.325623
    endloop
  endfacet
  facet normal -1 0 0
    outer loop
      vertex -0.459999 -1.0058 0.0343761
      vertex -0.459999 -0.9 0.36
      vertex -0.459999 -0.9 0
    endloop
  endfacet
  facet normal -1 0 0
    outer loop
      vertex -0.459999 -1.0058 0.0343761
      vertex -0.459999 -1.0058 0.325623
      vertex -0.459999 -0.9 0.36
    endloop
  endfacet
  facet normal -1 0 0
    outer loop
      vertex -0.459999 -1.07119 0.124376
      vertex -0.459999 -1.0058 0.325623
      vertex -0.459999 -1.0058 0.0343761
    endloop
  endfacet
  facet normal -1 0 0
    outer loop
      vertex -0.459999 -1.0058 0.325623
      vertex -0.459999 -1.07119 0.124376
      vertex -0.459999 -1.07119 0.235622
    endloop
  endfacet
  facet normal -0 0.309016 0.951057
    outer loop
      vertex -0.459999 -0.794198 0.325623
      vertex -0.32 -0.9 0.36
      vertex -0.32 -0.794198 0.325623
    endloop
  endfacet
  facet normal 0 0.309016 0.951057
    outer loop
      vertex -0.32 -0.9 0.36
      vertex -0.459999 -0.794198 0.325623
      vertex -0.459999 -0.9 0.36
    endloop
  endfacet
  facet normal 1 0 0
    outer loop
      vertex -0.32 -0.794198 0.325623
      vertex -0.32 -0.728809 0.124376
      vertex -0.32 -0.728809 0.235622
    endloop
  endfacet
  facet normal 1 0 0
    outer loop
      vertex -0.32 -0.794198 0.325623
      vertex -0.32 -0.794198 0.0343761
      vertex -0.32 -0.728809 0.124376
    endloop
  endfacet
  facet normal 1 0 0
    outer loop
      vertex -0.32 -0.9 0.36
      vertex -0.32 -0.794198 0.0343761
      vertex -0.32 -0.794198 0.325623
    endloop
  endfacet
  facet normal 1 0 0
    outer loop
      vertex -0.32 -0.9 0.36
      vertex -0.32 -0.9 0
      vertex -0.32 -0.794198 0.0343761
    endloop
  endfacet
  facet normal 1 -0 0
    outer loop
      vertex -0.32 -1.0058 0.325623
      vertex -0.32 -0.9 0
      vertex -0.32 -0.9 0.36
    endloop
  endfacet
  facet normal 1 0 0
    outer loop
      vertex -0.32 -1.0058 0.325623
      vertex -0.32 -1.0058 0.0343761
      vertex -0.32 -0.9 0
    endloop
  endfacet
  facet normal 1 -0 0
    outer loop
      vertex -0.32 -1.07119 0.235622
      vertex -0.32 -1.0058 0.0343761
      vertex -0.32 -1.0058 0.325623
    endloop
  endfacet
  facet normal 1 0 0
    outer loop
      vertex -0.32 -1.0058 0.0343761
      vertex -0.32 -1.07119 0.235622
      vertex -0.32 -1.07119 0.124376
    endloop
  endfacet
  facet normal 0 -0.809012 -0.587793
    outer loop
      vertex -0.459999 -1.0058 0.0343761
      vertex -0.32 -1.07119 0.124376
      vertex -0.459999 -1.07119 0.124376
    endloop
  endfacet
  facet normal 0 -0.809012 -0.587793
    outer loop
      vertex -0.32 -1.07119 0.124376
      vertex -0.459999 -1.0058 0.0343761
      vertex -0.32 -1.0058 0.0343761
    endloop
  endfacet
  facet normal 0 -0.809015 0.587788
    outer loop
      vertex -0.459999 -1.07119 0.235622
      vertex -0.32 -1.0058 0.325623
      vertex -0.459999 -1.0058 0.325623
    endloop
  endfacet
  facet normal 0 -0.809015 0.587788
    outer loop
      vertex -0.32 -1.0058 0.325623
      vertex -0.459999 -1.07119 0.235622
      vertex -0.32 -1.07119 0.235622
    endloop
  endfacet
endsolid OpenSCAD_Model
