solid OpenSCAD_Model
  facet normal 0.587793 0 0.809011
    outer loop
      vertex 0.142147 0.0599995 1.13749
      vertex 0.372148 -1.16 0.970381
      vertex 0.372148 0.0599995 0.970381
    endloop
  endfacet
  facet normal 0.587793 0 0.809011
    outer loop
      vertex 0.372148 -1.16 0.970381
      vertex 0.142147 0.0599995 1.13749
      vertex 0.142147 -1.16 1.13749
    endloop
  endfacet
  facet normal 0.951058 0 0.309013
    outer loop
      vertex 0.421009 -1.16 0.82
      vertex 0.372148 0.0599995 0.970381
      vertex 0.372148 -1.16 0.970381
    endloop
  endfacet
  facet normal 0.951058 -1.01459e-07 0.309013
    outer loop
      vertex 0.372148 0.0599995 0.970381
      vertex 0.421009 -1.16 0.82
      vertex 0.459999 0.0599995 0.7
    endloop
  endfacet
  facet normal 0.951057 0 0.309014
    outer loop
      vertex 0.459999 -1.18 0.7
      vertex 0.421009 -1.16 0.82
      vertex 0.421009 -1.18 0.82
    endloop
  endfacet
  facet normal 0.951057 0 0.309014
    outer loop
      vertex 0.421009 -1.16 0.82
      vertex 0.459999 -1.18 0.7
      vertex 0.459999 0.0599995 0.7
    endloop
  endfacet
  facet normal -0.951058 -1.01459e-07 0.309013
    outer loop
      vertex -0.459999 0.0599995 0.7
      vertex -0.421009 -1.16 0.82
      vertex -0.372148 0.0599995 0.970381
    endloop
  endfacet
  facet normal -0.951057 0 0.309014
    outer loop
      vertex -0.459999 -1.18 0.7
      vertex -0.421009 -1.16 0.82
      vertex -0.459999 0.0599995 0.7
    endloop
  endfacet
  facet normal -0.951057 0 0.309014
    outer loop
      vertex -0.421009 -1.16 0.82
      vertex -0.459999 -1.18 0.7
      vertex -0.421009 -1.18 0.82
    endloop
  endfacet
  facet normal -0.951058 0 0.309013
    outer loop
      vertex -0.372148 0.0599995 0.970381
      vertex -0.421009 -1.16 0.82
      vertex -0.372148 -1.16 0.970381
    endloop
  endfacet
  facet normal -0 0 1
    outer loop
      vertex -0.142147 0.0599995 1.13749
      vertex 0.142147 -1.16 1.13749
      vertex 0.142147 0.0599995 1.13749
    endloop
  endfacet
  facet normal 0 0 1
    outer loop
      vertex 0.142147 -1.16 1.13749
      vertex -0.142147 0.0599995 1.13749
      vertex -0.142147 -1.16 1.13749
    endloop
  endfacet
  facet normal -0.951058 0 -0.309012
    outer loop
      vertex -0.372148 -1.18 0.429618
      vertex -0.459999 0.0599995 0.7
      vertex -0.372148 0.0599995 0.429618
    endloop
  endfacet
  facet normal -0.951058 -0 -0.309012
    outer loop
      vertex -0.459999 0.0599995 0.7
      vertex -0.372148 -1.18 0.429618
      vertex -0.459999 -1.18 0.7
    endloop
  endfacet
  facet normal 0 -1 0
    outer loop
      vertex -0.372148 -1.18 0.429618
      vertex -0.421009 -1.18 0.82
      vertex -0.459999 -1.18 0.7
    endloop
  endfacet
  facet normal 0 -1 0
    outer loop
      vertex -0.142147 -1.18 0.262513
      vertex -0.421009 -1.18 0.82
      vertex -0.372148 -1.18 0.429618
    endloop
  endfacet
  facet normal 0 -1 0
    outer loop
      vertex -0.421009 -1.18 0.82
      vertex -0.142147 -1.18 0.262513
      vertex 0.421009 -1.18 0.82
    endloop
  endfacet
  facet normal 0 -1 -0
    outer loop
      vertex 0.421009 -1.18 0.82
      vertex 0.372148 -1.18 0.429618
      vertex 0.459999 -1.18 0.7
    endloop
  endfacet
  facet normal 0 -1 0
    outer loop
      vertex 0.142147 -1.18 0.262513
      vertex 0.421009 -1.18 0.82
      vertex -0.142147 -1.18 0.262513
    endloop
  endfacet
  facet normal 0 -1 0
    outer loop
      vertex 0.421009 -1.18 0.82
      vertex 0.142147 -1.18 0.262513
      vertex 0.372148 -1.18 0.429618
    endloop
  endfacet
  facet normal -0.587784 0 -0.809018
    outer loop
      vertex -0.372148 -1.18 0.429618
      vertex -0.142147 0.0599995 0.262513
      vertex -0.142147 -1.18 0.262513
    endloop
  endfacet
  facet normal -0.587784 0 -0.809018
    outer loop
      vertex -0.142147 0.0599995 0.262513
      vertex -0.372148 -1.18 0.429618
      vertex -0.372148 0.0599995 0.429618
    endloop
  endfacet
  facet normal 0.587784 0 -0.809018
    outer loop
      vertex 0.142147 -1.18 0.262513
      vertex 0.372148 0.0599995 0.429618
      vertex 0.372148 -1.18 0.429618
    endloop
  endfacet
  facet normal 0.587784 0 -0.809018
    outer loop
      vertex 0.372148 0.0599995 0.429618
      vertex 0.142147 -1.18 0.262513
      vertex 0.142147 0.0599995 0.262513
    endloop
  endfacet
  facet normal 0.951058 0 -0.309012
    outer loop
      vertex 0.459999 -1.18 0.7
      vertex 0.372148 0.0599995 0.429618
      vertex 0.459999 0.0599995 0.7
    endloop
  endfacet
  facet normal 0.951058 0 -0.309012
    outer loop
      vertex 0.372148 0.0599995 0.429618
      vertex 0.459999 -1.18 0.7
      vertex 0.372148 -1.18 0.429618
    endloop
  endfacet
  facet normal 0 1 0
    outer loop
      vertex 0.372148 0.0599995 0.970381
      vertex -0.142147 0.0599995 1.13749
      vertex 0.142147 0.0599995 1.13749
    endloop
  endfacet
  facet normal 0 1 0
    outer loop
      vertex 0.372148 0.0599995 0.970381
      vertex -0.372148 0.0599995 0.970381
      vertex -0.142147 0.0599995 1.13749
    endloop
  endfacet
  facet normal 0 1 0
    outer loop
      vertex 0.459999 0.0599995 0.7
      vertex -0.372148 0.0599995 0.970381
      vertex 0.372148 0.0599995 0.970381
    endloop
  endfacet
  facet normal 0 1 0
    outer loop
      vertex 0.459999 0.0599995 0.7
      vertex -0.459999 0.0599995 0.7
      vertex -0.372148 0.0599995 0.970381
    endloop
  endfacet
  facet normal 0 1 -0
    outer loop
      vertex 0.372148 0.0599995 0.429618
      vertex -0.459999 0.0599995 0.7
      vertex 0.459999 0.0599995 0.7
    endloop
  endfacet
  facet normal 0 1 0
    outer loop
      vertex 0.372148 0.0599995 0.429618
      vertex -0.372148 0.0599995 0.429618
      vertex -0.459999 0.0599995 0.7
    endloop
  endfacet
  facet normal 0 1 -0
    outer loop
      vertex 0.142147 0.0599995 0.262513
      vertex -0.372148 0.0599995 0.429618
      vertex 0.372148 0.0599995 0.429618
    endloop
  endfacet
  facet normal 0 1 0
    outer loop
      vertex -0.372148 0.0599995 0.429618
      vertex 0.142147 0.0599995 0.262513
      vertex -0.142147 0.0599995 0.262513
    endloop
  endfacet
  facet normal -0.587793 0 0.809011
    outer loop
      vertex -0.372148 0.0599995 0.970381
      vertex -0.142147 -1.16 1.13749
      vertex -0.142147 0.0599995 1.13749
    endloop
  endfacet
  facet normal -0.587793 0 0.809011
    outer loop
      vertex -0.142147 -1.16 1.13749
      vertex -0.372148 0.0599995 0.970381
      vertex -0.372148 -1.16 0.970381
    endloop
  endfacet
  facet normal 0 0 -1
    outer loop
      vertex -0.142147 -1.18 0.262513
      vertex 0.142147 0.0599995 0.262513
      vertex 0.142147 -1.18 0.262513
    endloop
  endfacet
  facet normal -0 0 -1
    outer loop
      vertex 0.142147 0.0599995 0.262513
      vertex -0.142147 -1.18 0.262513
      vertex -0.142147 0.0599995 0.262513
    endloop
  endfacet
  facet normal 1 -0 0
    outer loop
      vertex 0.459999 -1.2 1.16
      vertex 0.459999 -1.16 0.82
      vertex 0.459999 -1.16 1.16
    endloop
  endfacet
  facet normal 1 0 0
    outer loop
      vertex 0.459999 -1.16 0.82
      vertex 0.459999 -1.2 1.16
      vertex 0.459999 -1.2 0.82
    endloop
  endfacet
  facet normal -0 0 1
    outer loop
      vertex -0.459999 -1.16 1.16
      vertex 0.459999 -1.2 1.16
      vertex 0.459999 -1.16 1.16
    endloop
  endfacet
  facet normal 0 0 1
    outer loop
      vertex 0.459999 -1.2 1.16
      vertex -0.459999 -1.16 1.16
      vertex -0.459999 -1.2 1.16
    endloop
  endfacet
  facet normal 0 0 -1
    outer loop
      vertex 0.459999 -1.2 0.82
      vertex 0.421009 -1.18 0.82
      vertex 0.459999 -1.16 0.82
    endloop
  endfacet
  facet normal 0 0 -1
    outer loop
      vertex 0.459999 -1.2 0.82
      vertex -0.421009 -1.18 0.82
      vertex 0.421009 -1.18 0.82
    endloop
  endfacet
  facet normal 0 0 -1
    outer loop
      vertex -0.459999 -1.2 0.82
      vertex -0.421009 -1.18 0.82
      vertex 0.459999 -1.2 0.82
    endloop
  endfacet
  facet normal 0 0 -1
    outer loop
      vertex -0.459999 -1.16 0.82
      vertex -0.421009 -1.18 0.82
      vertex -0.459999 -1.2 0.82
    endloop
  endfacet
  facet normal 0 0 -1
    outer loop
      vertex -0.421009 -1.18 0.82
      vertex -0.459999 -1.16 0.82
      vertex -0.421009 -1.16 0.82
    endloop
  endfacet
  facet normal -0 0 -1
    outer loop
      vertex 0.459999 -1.16 0.82
      vertex 0.421009 -1.18 0.82
      vertex 0.421009 -1.16 0.82
    endloop
  endfacet
  facet normal -1 0 0
    outer loop
      vertex -0.459999 -1.2 0.82
      vertex -0.459999 -1.16 1.16
      vertex -0.459999 -1.16 0.82
    endloop
  endfacet
  facet normal -1 -0 0
    outer loop
      vertex -0.459999 -1.16 1.16
      vertex -0.459999 -1.2 0.82
      vertex -0.459999 -1.2 1.16
    endloop
  endfacet
  facet normal 0 1 0
    outer loop
      vertex 0.459999 -1.16 1.16
      vertex 0.142147 -1.16 1.13749
      vertex -0.459999 -1.16 1.16
    endloop
  endfacet
  facet normal 0 1 0
    outer loop
      vertex 0.459999 -1.16 1.16
      vertex 0.372148 -1.16 0.970381
      vertex 0.142147 -1.16 1.13749
    endloop
  endfacet
  facet normal 0 1 -0
    outer loop
      vertex 0.459999 -1.16 0.82
      vertex 0.372148 -1.16 0.970381
      vertex 0.459999 -1.16 1.16
    endloop
  endfacet
  facet normal 0 1 0
    outer loop
      vertex 0.372148 -1.16 0.970381
      vertex 0.459999 -1.16 0.82
      vertex 0.421009 -1.16 0.82
    endloop
  endfacet
  facet normal 0 1 -0
    outer loop
      vertex -0.142147 -1.16 1.13749
      vertex -0.459999 -1.16 1.16
      vertex 0.142147 -1.16 1.13749
    endloop
  endfacet
  facet normal 0 1 -0
    outer loop
      vertex -0.372148 -1.16 0.970381
      vertex -0.459999 -1.16 1.16
      vertex -0.142147 -1.16 1.13749
    endloop
  endfacet
  facet normal 0 1 0
    outer loop
      vertex -0.459999 -1.16 0.82
      vertex -0.372148 -1.16 0.970381
      vertex -0.421009 -1.16 0.82
    endloop
  endfacet
  facet normal 0 1 0
    outer loop
      vertex -0.372148 -1.16 0.970381
      vertex -0.459999 -1.16 0.82
      vertex -0.459999 -1.16 1.16
    endloop
  endfacet
  facet normal 0 -1 0
    outer loop
      vertex -0.459999 -1.2 0.82
      vertex 0.459999 -1.2 1.16
      vertex -0.459999 -1.2 1.16
    endloop
  endfacet
  facet normal 0 -1 -0
    outer loop
      vertex 0.459999 -1.2 1.16
      vertex -0.459999 -1.2 0.82
      vertex 0.459999 -1.2 0.82
    endloop
  endfacet
endsolid OpenSCAD_Model
