solid OpenSCAD_Model
  facet normal 1 -0 0
    outer loop
      vertex 2.1 -1.2 0.0799999
      vertex 2.1 1.2 0
      vertex 2.1 1.2 0.0799999
    endloop
  endfacet
  facet normal 1 0 0
    outer loop
      vertex 2.1 1.2 0
      vertex 2.1 -1.2 0.0799999
      vertex 2.1 -1.2 0
    endloop
  endfacet
  facet normal 0 0 1
    outer loop
      vertex 0.4 0.4 0.0799999
      vertex -0.15 0.75 0.0799999
      vertex -0.15 0.4 0.0799999
    endloop
  endfacet
  facet normal 0 0 1
    outer loop
      vertex 2.1 1.2 0.0799999
      vertex 1.96 -0.839999 0.0799999
      vertex 2.1 -1.2 0.0799999
    endloop
  endfacet
  facet normal 0 0 1
    outer loop
      vertex 2.1 1.2 0.0799999
      vertex 1.8 -0.25 0.0799999
      vertex 1.96 -0.839999 0.0799999
    endloop
  endfacet
  facet normal 0 0 1
    outer loop
      vertex 2.1 1.2 0.0799999
      vertex 1.73971 -0.0249996 0.0799999
      vertex 1.8 -0.25 0.0799999
    endloop
  endfacet
  facet normal 0 0 1
    outer loop
      vertex 2.1 1.2 0.0799999
      vertex 1.575 0.139711 0.0799999
      vertex 1.73971 -0.0249996 0.0799999
    endloop
  endfacet
  facet normal 0 0 1
    outer loop
      vertex 2.1 1.2 0.0799999
      vertex 1.35 0.2 0.0799999
      vertex 1.575 0.139711 0.0799999
    endloop
  endfacet
  facet normal -0 0 1
    outer loop
      vertex 0.4 0.4 0.0799999
      vertex 1.35 0.2 0.0799999
      vertex 2.1 1.2 0.0799999
    endloop
  endfacet
  facet normal 0 0 1
    outer loop
      vertex 1.35 0.2 0.0799999
      vertex 0.4 0.4 0.0799999
      vertex 1.125 0.139711 0.0799999
    endloop
  endfacet
  facet normal 0 0 1
    outer loop
      vertex 0.960288 -0.0249996 0.0799999
      vertex 0.4 0.4 0.0799999
      vertex 0.9 -0.25 0.0799999
    endloop
  endfacet
  facet normal 0 0 1
    outer loop
      vertex 1.125 0.139711 0.0799999
      vertex 0.4 0.4 0.0799999
      vertex 0.960288 -0.0249996 0.0799999
    endloop
  endfacet
  facet normal 0 0 1
    outer loop
      vertex 2.1 1.2 0.0799999
      vertex -0.15 0.75 0.0799999
      vertex 0.4 0.4 0.0799999
    endloop
  endfacet
  facet normal -0 0 1
    outer loop
      vertex -2.1 1.2 0.0799999
      vertex -0.15 0.75 0.0799999
      vertex 2.1 1.2 0.0799999
    endloop
  endfacet
  facet normal 0 0 1
    outer loop
      vertex -0.95 0.75 0.0799999
      vertex -1.5 0.4 0.0799999
      vertex -0.95 0.4 0.0799999
    endloop
  endfacet
  facet normal 0 0 1
    outer loop
      vertex -1.5 0.4 0.0799999
      vertex -1.74 -0.839999 0.0799999
      vertex -1.5 -0.799999 0.0799999
    endloop
  endfacet
  facet normal 0 0 1
    outer loop
      vertex -1.5 0.4 0.0799999
      vertex -1.96 -0.839999 0.0799999
      vertex -1.74 -0.839999 0.0799999
    endloop
  endfacet
  facet normal 0 0 1
    outer loop
      vertex -2.1 -1.2 0.0799999
      vertex -1.96 -0.839999 0.0799999
      vertex -2.1 1.2 0.0799999
    endloop
  endfacet
  facet normal 0 0 1
    outer loop
      vertex -1.5 0.4 0.0799999
      vertex -2.1 1.2 0.0799999
      vertex -1.96 -0.839999 0.0799999
    endloop
  endfacet
  facet normal 0 0 1
    outer loop
      vertex -0.95 0.75 0.0799999
      vertex -2.1 1.2 0.0799999
      vertex -1.5 0.4 0.0799999
    endloop
  endfacet
  facet normal 0 0 1
    outer loop
      vertex -0.15 0.75 0.0799999
      vertex -2.1 1.2 0.0799999
      vertex -0.95 0.75 0.0799999
    endloop
  endfacet
  facet normal -0 0 1
    outer loop
      vertex 1.96 -1.06 0.0799999
      vertex 2.1 -1.2 0.0799999
      vertex 1.96 -0.839999 0.0799999
    endloop
  endfacet
  facet normal -0 0 1
    outer loop
      vertex 1.74 -1.06 0.0799999
      vertex 2.1 -1.2 0.0799999
      vertex 1.96 -1.06 0.0799999
    endloop
  endfacet
  facet normal -0 0 1
    outer loop
      vertex 1.35 -0.7 0.0799999
      vertex 1.74 -0.839999 0.0799999
      vertex 1.575 -0.639711 0.0799999
    endloop
  endfacet
  facet normal 0 0 1
    outer loop
      vertex 1.74 -0.839999 0.0799999
      vertex 1.35 -0.7 0.0799999
      vertex 1.74 -1.06 0.0799999
    endloop
  endfacet
  facet normal 0 0 1
    outer loop
      vertex 1.125 -0.639711 0.0799999
      vertex 1.74 -1.06 0.0799999
      vertex 1.35 -0.7 0.0799999
    endloop
  endfacet
  facet normal 0 0 1
    outer loop
      vertex 0.4 -0.799999 0.0799999
      vertex 0.9 -0.25 0.0799999
      vertex 0.4 0.4 0.0799999
    endloop
  endfacet
  facet normal 0 0 1
    outer loop
      vertex 0.9 -0.25 0.0799999
      vertex 0.4 -0.799999 0.0799999
      vertex 0.960288 -0.474999 0.0799999
    endloop
  endfacet
  facet normal 0 0 1
    outer loop
      vertex 0.4 -0.799999 0.0799999
      vertex 1.125 -0.639711 0.0799999
      vertex 0.960288 -0.474999 0.0799999
    endloop
  endfacet
  facet normal -0 0 1
    outer loop
      vertex 0.4 -0.799999 0.0799999
      vertex 1.74 -1.06 0.0799999
      vertex 1.125 -0.639711 0.0799999
    endloop
  endfacet
  facet normal 0 0 1
    outer loop
      vertex 0.4 -0.799999 0.0799999
      vertex 2.1 -1.2 0.0799999
      vertex 1.74 -1.06 0.0799999
    endloop
  endfacet
  facet normal 0 0 1
    outer loop
      vertex -1.74 -1.06 0.0799999
      vertex 0.4 -0.799999 0.0799999
      vertex -1.5 -0.799999 0.0799999
    endloop
  endfacet
  facet normal 0 0 1
    outer loop
      vertex -1.74 -1.06 0.0799999
      vertex -1.5 -0.799999 0.0799999
      vertex -1.74 -0.839999 0.0799999
    endloop
  endfacet
  facet normal 0 0 1
    outer loop
      vertex -2.1 -1.2 0.0799999
      vertex 0.4 -0.799999 0.0799999
      vertex -1.74 -1.06 0.0799999
    endloop
  endfacet
  facet normal 0 0 1
    outer loop
      vertex -2.1 -1.2 0.0799999
      vertex -1.74 -1.06 0.0799999
      vertex -1.96 -1.06 0.0799999
    endloop
  endfacet
  facet normal 0 0 1
    outer loop
      vertex 0.4 -0.799999 0.0799999
      vertex -2.1 -1.2 0.0799999
      vertex 2.1 -1.2 0.0799999
    endloop
  endfacet
  facet normal 0 0 1
    outer loop
      vertex -1.96 -0.839999 0.0799999
      vertex -2.1 -1.2 0.0799999
      vertex -1.96 -1.06 0.0799999
    endloop
  endfacet
  facet normal -0 0 1
    outer loop
      vertex 1.73971 -0.474999 0.0799999
      vertex 1.96 -0.839999 0.0799999
      vertex 1.8 -0.25 0.0799999
    endloop
  endfacet
  facet normal -0 0 1
    outer loop
      vertex 1.575 -0.639711 0.0799999
      vertex 1.74 -0.839999 0.0799999
      vertex 1.73971 -0.474999 0.0799999
    endloop
  endfacet
  facet normal 0 0 1
    outer loop
      vertex 1.96 -0.839999 0.0799999
      vertex 1.73971 -0.474999 0.0799999
      vertex 1.74 -0.839999 0.0799999
    endloop
  endfacet
  facet normal 0 0 -1
    outer loop
      vertex -2.1 -1.2 0
      vertex 2.1 1.2 0
      vertex 2.1 -1.2 0
    endloop
  endfacet
  facet normal -0 0 -1
    outer loop
      vertex 2.1 1.2 0
      vertex -2.1 -1.2 0
      vertex -2.1 1.2 0
    endloop
  endfacet
  facet normal -1 0 0
    outer loop
      vertex -2.1 -1.2 0
      vertex -2.1 1.2 0.0799999
      vertex -2.1 1.2 0
    endloop
  endfacet
  facet normal -1 -0 0
    outer loop
      vertex -2.1 1.2 0.0799999
      vertex -2.1 -1.2 0
      vertex -2.1 -1.2 0.0799999
    endloop
  endfacet
  facet normal 0 1 -0
    outer loop
      vertex 2.1 1.2 0
      vertex -2.1 1.2 0.0799999
      vertex 2.1 1.2 0.0799999
    endloop
  endfacet
  facet normal 0 1 0
    outer loop
      vertex -2.1 1.2 0.0799999
      vertex 2.1 1.2 0
      vertex -2.1 1.2 0
    endloop
  endfacet
  facet normal 0 -1 0
    outer loop
      vertex -2.1 -1.2 0
      vertex 2.1 -1.2 0.0799999
      vertex -2.1 -1.2 0.0799999
    endloop
  endfacet
  facet normal 0 -1 -0
    outer loop
      vertex 2.1 -1.2 0.0799999
      vertex -2.1 -1.2 0
      vertex 2.1 -1.2 0
    endloop
  endfacet
  facet normal 1 -0 0
    outer loop
      vertex 0.4 -0.799999 1.08
      vertex 0.4 0.4 0.0799999
      vertex 0.4 0.4 1.08
    endloop
  endfacet
  facet normal 1 0 0
    outer loop
      vertex 0.4 0.4 0.0799999
      vertex 0.4 -0.799999 1.08
      vertex 0.4 -0.799999 0.0799999
    endloop
  endfacet
  facet normal 0 0 1
    outer loop
      vertex 0.4 0.4 1.08
      vertex -0.849999 -0.2 1.08
      vertex 0.4 -0.799999 1.08
    endloop
  endfacet
  facet normal -0 0 1
    outer loop
      vertex -1.5 0.4 1.08
      vertex -0.849999 -0.2 1.08
      vertex 0.4 0.4 1.08
    endloop
  endfacet
  facet normal 0 0 1
    outer loop
      vertex -1.5 -0.799999 1.08
      vertex -1.35 -0.2 1.08
      vertex -1.5 0.4 1.08
    endloop
  endfacet
  facet normal 0 0 1
    outer loop
      vertex -0.849999 -0.2 1.08
      vertex -1.5 0.4 1.08
      vertex -1.35 -0.2 1.08
    endloop
  endfacet
  facet normal -0 0 1
    outer loop
      vertex -0.849999 -0.7 1.08
      vertex 0.4 -0.799999 1.08
      vertex -0.849999 -0.2 1.08
    endloop
  endfacet
  facet normal 0 0 1
    outer loop
      vertex -1.5 -0.799999 1.08
      vertex -0.849999 -0.7 1.08
      vertex -1.35 -0.7 1.08
    endloop
  endfacet
  facet normal 0 0 1
    outer loop
      vertex -0.849999 -0.7 1.08
      vertex -1.5 -0.799999 1.08
      vertex 0.4 -0.799999 1.08
    endloop
  endfacet
  facet normal 0 0 1
    outer loop
      vertex -1.35 -0.2 1.08
      vertex -1.5 -0.799999 1.08
      vertex -1.35 -0.7 1.08
    endloop
  endfacet
  facet normal -1 0 0
    outer loop
      vertex -1.5 -0.799999 0.0799999
      vertex -1.5 0.4 1.08
      vertex -1.5 0.4 0.0799999
    endloop
  endfacet
  facet normal -1 -0 0
    outer loop
      vertex -1.5 0.4 1.08
      vertex -1.5 -0.799999 0.0799999
      vertex -1.5 -0.799999 1.08
    endloop
  endfacet
  facet normal 0 1 0
    outer loop
      vertex 0.4 0.4 1.08
      vertex -0.15 0.4 0.629999
      vertex -1.5 0.4 1.08
    endloop
  endfacet
  facet normal 0 1 -0
    outer loop
      vertex 0.4 0.4 0.0799999
      vertex -0.15 0.4 0.629999
      vertex 0.4 0.4 1.08
    endloop
  endfacet
  facet normal 0 1 0
    outer loop
      vertex -0.15 0.4 0.629999
      vertex 0.4 0.4 0.0799999
      vertex -0.15 0.4 0.0799999
    endloop
  endfacet
  facet normal 0 1 -0
    outer loop
      vertex -0.95 0.4 0.629999
      vertex -1.5 0.4 1.08
      vertex -0.15 0.4 0.629999
    endloop
  endfacet
  facet normal 0 1 0
    outer loop
      vertex -1.5 0.4 0.0799999
      vertex -0.95 0.4 0.629999
      vertex -0.95 0.4 0.0799999
    endloop
  endfacet
  facet normal 0 1 0
    outer loop
      vertex -0.95 0.4 0.629999
      vertex -1.5 0.4 0.0799999
      vertex -1.5 0.4 1.08
    endloop
  endfacet
  facet normal 0 -1 0
    outer loop
      vertex -1.5 -0.799999 0.0799999
      vertex 0.4 -0.799999 1.08
      vertex -1.5 -0.799999 1.08
    endloop
  endfacet
  facet normal 0 -1 -0
    outer loop
      vertex 0.4 -0.799999 1.08
      vertex -1.5 -0.799999 0.0799999
      vertex 0.4 -0.799999 0.0799999
    endloop
  endfacet
  facet normal 1 -0 0
    outer loop
      vertex -0.15 0.4 0.629999
      vertex -0.15 0.75 0.0799999
      vertex -0.15 0.75 0.629999
    endloop
  endfacet
  facet normal 1 0 0
    outer loop
      vertex -0.15 0.75 0.0799999
      vertex -0.15 0.4 0.629999
      vertex -0.15 0.4 0.0799999
    endloop
  endfacet
  facet normal -0 0 1
    outer loop
      vertex -0.95 0.75 0.629999
      vertex -0.15 0.4 0.629999
      vertex -0.15 0.75 0.629999
    endloop
  endfacet
  facet normal 0 0 1
    outer loop
      vertex -0.15 0.4 0.629999
      vertex -0.95 0.75 0.629999
      vertex -0.95 0.4 0.629999
    endloop
  endfacet
  facet normal -1 0 0
    outer loop
      vertex -0.95 0.4 0.0799999
      vertex -0.95 0.75 0.629999
      vertex -0.95 0.75 0.0799999
    endloop
  endfacet
  facet normal -1 -0 0
    outer loop
      vertex -0.95 0.75 0.629999
      vertex -0.95 0.4 0.0799999
      vertex -0.95 0.4 0.629999
    endloop
  endfacet
  facet normal 0 1 -0
    outer loop
      vertex -0.15 0.75 0.0799999
      vertex -0.95 0.75 0.629999
      vertex -0.15 0.75 0.629999
    endloop
  endfacet
  facet normal 0 1 0
    outer loop
      vertex -0.95 0.75 0.629999
      vertex -0.15 0.75 0.0799999
      vertex -0.95 0.75 0.0799999
    endloop
  endfacet
  facet normal 1 -0 0
    outer loop
      vertex -0.849999 -0.7 1.33
      vertex -0.849999 -0.2 1.08
      vertex -0.849999 -0.2 1.33
    endloop
  endfacet
  facet normal 1 0 0
    outer loop
      vertex -0.849999 -0.2 1.08
      vertex -0.849999 -0.7 1.33
      vertex -0.849999 -0.7 1.08
    endloop
  endfacet
  facet normal -0 0 1
    outer loop
      vertex -1.35 -0.2 1.33
      vertex -0.849999 -0.7 1.33
      vertex -0.849999 -0.2 1.33
    endloop
  endfacet
  facet normal 0 0 1
    outer loop
      vertex -0.849999 -0.7 1.33
      vertex -1.35 -0.2 1.33
      vertex -1.35 -0.7 1.33
    endloop
  endfacet
  facet normal -1 0 0
    outer loop
      vertex -1.35 -0.7 1.08
      vertex -1.35 -0.2 1.33
      vertex -1.35 -0.2 1.08
    endloop
  endfacet
  facet normal -1 -0 0
    outer loop
      vertex -1.35 -0.2 1.33
      vertex -1.35 -0.7 1.08
      vertex -1.35 -0.7 1.33
    endloop
  endfacet
  facet normal 0 1 -0
    outer loop
      vertex -0.849999 -0.2 1.08
      vertex -1.35 -0.2 1.33
      vertex -0.849999 -0.2 1.33
    endloop
  endfacet
  facet normal 0 1 0
    outer loop
      vertex -1.35 -0.2 1.33
      vertex -0.849999 -0.2 1.08
      vertex -1.35 -0.2 1.08
    endloop
  endfacet
  facet normal 0 -1 0
    outer loop
      vertex -1.35 -0.7 1.08
      vertex -0.849999 -0.7 1.33
      vertex -1.35 -0.7 1.33
    endloop
  endfacet
  facet normal 0 -1 -0
    outer loop
      vertex -0.849999 -0.7 1.33
      vertex -1.35 -0.7 1.08
      vertex -0.849999 -0.7 1.08
    endloop
  endfacet
  facet normal -0.258821 -0.965925 0
    outer loop
      vertex 1.125 -0.639711 0.0799999
      vertex 1.35 -0.7 1.63
      vertex 1.125 -0.639711 1.63
    endloop
  endfacet
  facet normal -0.258821 -0.965925 -0
    outer loop
      vertex 1.35 -0.7 1.63
      vertex 1.125 -0.639711 0.0799999
      vertex 1.35 -0.7 0.0799999
    endloop
  endfacet
  facet normal 0.707108 0.707105 0
    outer loop
      vertex 1.73971 -0.0249996 1.63
      vertex 1.575 0.139711 0.0799999
      vertex 1.575 0.139711 1.63
    endloop
  endfacet
  facet normal 0.707108 0.707105 0
    outer loop
      vertex 1.575 0.139711 0.0799999
      vertex 1.73971 -0.0249996 1.63
      vertex 1.73971 -0.0249996 0.0799999
    endloop
  endfacet
  facet normal 0.965924 0.258824 0
    outer loop
      vertex 1.8 -0.25 1.63
      vertex 1.73971 -0.0249996 0.0799999
      vertex 1.73971 -0.0249996 1.63
    endloop
  endfacet
  facet normal 0.965924 0.258824 0
    outer loop
      vertex 1.73971 -0.0249996 0.0799999
      vertex 1.8 -0.25 1.63
      vertex 1.8 -0.25 0.0799999
    endloop
  endfacet
  facet normal -0.965926 -0.258818 0
    outer loop
      vertex 0.960288 -0.474999 0.0799999
      vertex 0.9 -0.25 1.63
      vertex 0.9 -0.25 0.0799999
    endloop
  endfacet
  facet normal -0.965926 -0.258818 0
    outer loop
      vertex 0.9 -0.25 1.63
      vertex 0.960288 -0.474999 0.0799999
      vertex 0.960288 -0.474999 1.63
    endloop
  endfacet
  facet normal -0.258821 0.965925 0
    outer loop
      vertex 1.35 0.2 0.0799999
      vertex 1.125 0.139711 1.63
      vertex 1.35 0.2 1.63
    endloop
  endfacet
  facet normal -0.258821 0.965925 0
    outer loop
      vertex 1.125 0.139711 1.63
      vertex 1.35 0.2 0.0799999
      vertex 1.125 0.139711 0.0799999
    endloop
  endfacet
  facet normal -0.707104 0.70711 0
    outer loop
      vertex 1.125 0.139711 0.0799999
      vertex 0.960288 -0.0249996 1.63
      vertex 1.125 0.139711 1.63
    endloop
  endfacet
  facet normal -0.707104 0.70711 0
    outer loop
      vertex 0.960288 -0.0249996 1.63
      vertex 1.125 0.139711 0.0799999
      vertex 0.960288 -0.0249996 0.0799999
    endloop
  endfacet
  facet normal 0.258821 -0.965925 0
    outer loop
      vertex 1.35 -0.7 0.0799999
      vertex 1.575 -0.639711 1.63
      vertex 1.35 -0.7 1.63
    endloop
  endfacet
  facet normal 0.258821 -0.965925 0
    outer loop
      vertex 1.575 -0.639711 1.63
      vertex 1.35 -0.7 0.0799999
      vertex 1.575 -0.639711 0.0799999
    endloop
  endfacet
  facet normal 0.258821 0.965925 -0
    outer loop
      vertex 1.575 0.139711 0.0799999
      vertex 1.35 0.2 1.63
      vertex 1.575 0.139711 1.63
    endloop
  endfacet
  facet normal 0.258821 0.965925 0
    outer loop
      vertex 1.35 0.2 1.63
      vertex 1.575 0.139711 0.0799999
      vertex 1.35 0.2 0.0799999
    endloop
  endfacet
  facet normal -0.965927 0.258816 0
    outer loop
      vertex 0.9 -0.25 0.0799999
      vertex 0.960288 -0.0249996 1.63
      vertex 0.960288 -0.0249996 0.0799999
    endloop
  endfacet
  facet normal -0.965927 0.258816 0
    outer loop
      vertex 0.960288 -0.0249996 1.63
      vertex 0.9 -0.25 0.0799999
      vertex 0.9 -0.25 1.63
    endloop
  endfacet
  facet normal 0.707111 -0.707102 0
    outer loop
      vertex 1.575 -0.639711 1.63
      vertex 1.73971 -0.474999 0.0799999
      vertex 1.73971 -0.474999 1.63
    endloop
  endfacet
  facet normal 0.707111 -0.707102 0
    outer loop
      vertex 1.73971 -0.474999 0.0799999
      vertex 1.575 -0.639711 1.63
      vertex 1.575 -0.639711 0.0799999
    endloop
  endfacet
  facet normal 0.965924 -0.258826 0
    outer loop
      vertex 1.73971 -0.474999 1.63
      vertex 1.8 -0.25 0.0799999
      vertex 1.8 -0.25 1.63
    endloop
  endfacet
  facet normal 0.965924 -0.258826 0
    outer loop
      vertex 1.8 -0.25 0.0799999
      vertex 1.73971 -0.474999 1.63
      vertex 1.73971 -0.474999 0.0799999
    endloop
  endfacet
  facet normal -0 0 -1
    outer loop
      vertex 1.83 -0.25 1.63
      vertex 1.73971 -0.474999 1.63
      vertex 1.8 -0.25 1.63
    endloop
  endfacet
  facet normal 0 0 -1
    outer loop
      vertex 1.73833 -0.532137 1.63
      vertex 1.73971 -0.474999 1.63
      vertex 1.83 -0.25 1.63
    endloop
  endfacet
  facet normal -0 0 -1
    outer loop
      vertex 1.73833 -0.532137 1.63
      vertex 1.575 -0.639711 1.63
      vertex 1.73971 -0.474999 1.63
    endloop
  endfacet
  facet normal 0 0 -1
    outer loop
      vertex 1.49833 -0.706507 1.63
      vertex 1.575 -0.639711 1.63
      vertex 1.73833 -0.532137 1.63
    endloop
  endfacet
  facet normal 0 0 -1
    outer loop
      vertex 1.49833 -0.706507 1.63
      vertex 1.35 -0.7 1.63
      vertex 1.575 -0.639711 1.63
    endloop
  endfacet
  facet normal 0 0 -1
    outer loop
      vertex 1.20167 -0.706507 1.63
      vertex 1.35 -0.7 1.63
      vertex 1.49833 -0.706507 1.63
    endloop
  endfacet
  facet normal 0 0 -1
    outer loop
      vertex 1.20167 -0.706507 1.63
      vertex 1.125 -0.639711 1.63
      vertex 1.35 -0.7 1.63
    endloop
  endfacet
  facet normal 0 0 -1
    outer loop
      vertex 0.961672 -0.532137 1.63
      vertex 1.125 -0.639711 1.63
      vertex 1.20167 -0.706507 1.63
    endloop
  endfacet
  facet normal 0 0 -1
    outer loop
      vertex 0.961672 -0.532137 1.63
      vertex 0.960288 -0.474999 1.63
      vertex 1.125 -0.639711 1.63
    endloop
  endfacet
  facet normal 0 0 -1
    outer loop
      vertex 0.87 -0.25 1.63
      vertex 0.960288 -0.474999 1.63
      vertex 0.961672 -0.532137 1.63
    endloop
  endfacet
  facet normal 0 0 -1
    outer loop
      vertex 0.960288 -0.474999 1.63
      vertex 0.87 -0.25 1.63
      vertex 0.9 -0.25 1.63
    endloop
  endfacet
  facet normal 0 0 -1
    outer loop
      vertex 1.73971 -0.0249996 1.63
      vertex 1.83 -0.25 1.63
      vertex 1.8 -0.25 1.63
    endloop
  endfacet
  facet normal 0 0 -1
    outer loop
      vertex 1.73971 -0.0249996 1.63
      vertex 1.73833 0.0321369 1.63
      vertex 1.83 -0.25 1.63
    endloop
  endfacet
  facet normal 0 0 -1
    outer loop
      vertex 1.575 0.139711 1.63
      vertex 1.73833 0.0321369 1.63
      vertex 1.73971 -0.0249996 1.63
    endloop
  endfacet
  facet normal 0 0 -1
    outer loop
      vertex 1.575 0.139711 1.63
      vertex 1.49833 0.206507 1.63
      vertex 1.73833 0.0321369 1.63
    endloop
  endfacet
  facet normal 0 0 -1
    outer loop
      vertex 1.35 0.2 1.63
      vertex 1.49833 0.206507 1.63
      vertex 1.575 0.139711 1.63
    endloop
  endfacet
  facet normal 0 0 -1
    outer loop
      vertex 1.35 0.2 1.63
      vertex 1.20167 0.206507 1.63
      vertex 1.49833 0.206507 1.63
    endloop
  endfacet
  facet normal 0 0 -1
    outer loop
      vertex 1.125 0.139711 1.63
      vertex 1.20167 0.206507 1.63
      vertex 1.35 0.2 1.63
    endloop
  endfacet
  facet normal -0 0 -1
    outer loop
      vertex 1.125 0.139711 1.63
      vertex 0.961672 0.0321369 1.63
      vertex 1.20167 0.206507 1.63
    endloop
  endfacet
  facet normal 0 0 -1
    outer loop
      vertex 0.960288 -0.0249996 1.63
      vertex 0.961672 0.0321369 1.63
      vertex 1.125 0.139711 1.63
    endloop
  endfacet
  facet normal 0 0 -1
    outer loop
      vertex 0.87 -0.25 1.63
      vertex 0.960288 -0.0249996 1.63
      vertex 0.9 -0.25 1.63
    endloop
  endfacet
  facet normal -0 0 -1
    outer loop
      vertex 0.960288 -0.0249996 1.63
      vertex 0.87 -0.25 1.63
      vertex 0.961672 0.0321369 1.63
    endloop
  endfacet
  facet normal -0.707107 -0.707107 0
    outer loop
      vertex 1.125 -0.639711 0.0799999
      vertex 0.960288 -0.474999 1.63
      vertex 0.960288 -0.474999 0.0799999
    endloop
  endfacet
  facet normal -0.707107 -0.707107 0
    outer loop
      vertex 0.960288 -0.474999 1.63
      vertex 1.125 -0.639711 0.0799999
      vertex 1.125 -0.639711 1.63
    endloop
  endfacet
  facet normal 0.545905 0.177372 0.818857
    outer loop
      vertex 1.73833 0.0321369 1.63
      vertex 1.35 -0.25 1.95
      vertex 1.83 -0.25 1.63
    endloop
  endfacet
  facet normal 0 -0.573998 0.818857
    outer loop
      vertex 1.35 -0.25 1.95
      vertex 1.20167 -0.706507 1.63
      vertex 1.49833 -0.706507 1.63
    endloop
  endfacet
  facet normal -0.545904 0.177375 0.818857
    outer loop
      vertex 0.961672 0.0321369 1.63
      vertex 0.87 -0.25 1.63
      vertex 1.35 -0.25 1.95
    endloop
  endfacet
  facet normal 0.337387 -0.464374 0.818857
    outer loop
      vertex 1.73833 -0.532137 1.63
      vertex 1.35 -0.25 1.95
      vertex 1.49833 -0.706507 1.63
    endloop
  endfacet
  facet normal -0.337389 -0.464373 0.818857
    outer loop
      vertex 1.35 -0.25 1.95
      vertex 0.961672 -0.532137 1.63
      vertex 1.20167 -0.706507 1.63
    endloop
  endfacet
  facet normal -0.337389 0.464373 0.818857
    outer loop
      vertex 1.20167 0.206507 1.63
      vertex 0.961672 0.0321369 1.63
      vertex 1.35 -0.25 1.95
    endloop
  endfacet
  facet normal 0.545905 -0.177372 0.818857
    outer loop
      vertex 1.83 -0.25 1.63
      vertex 1.35 -0.25 1.95
      vertex 1.73833 -0.532137 1.63
    endloop
  endfacet
  facet normal 0 0.573998 0.818857
    outer loop
      vertex 1.49833 0.206507 1.63
      vertex 1.20167 0.206507 1.63
      vertex 1.35 -0.25 1.95
    endloop
  endfacet
  facet normal 0.337387 0.464373 0.818857
    outer loop
      vertex 1.49833 0.206507 1.63
      vertex 1.35 -0.25 1.95
      vertex 1.73833 0.0321369 1.63
    endloop
  endfacet
  facet normal -0.545904 -0.177375 0.818857
    outer loop
      vertex 1.35 -0.25 1.95
      vertex 0.87 -0.25 1.63
      vertex 0.961672 -0.532137 1.63
    endloop
  endfacet
  facet normal 1 -0 0
    outer loop
      vertex -1.74 -1.06 1.5
      vertex -1.74 -0.839999 0.0799999
      vertex -1.74 -0.839999 1.5
    endloop
  endfacet
  facet normal 1 0 0
    outer loop
      vertex -1.74 -0.839999 0.0799999
      vertex -1.74 -1.06 1.5
      vertex -1.74 -1.06 0.0799999
    endloop
  endfacet
  facet normal -1 0 0
    outer loop
      vertex -1.96 -1.06 0.0799999
      vertex -1.96 -0.839999 1.5
      vertex -1.96 -0.839999 0.0799999
    endloop
  endfacet
  facet normal -1 -0 0
    outer loop
      vertex -1.96 -0.839999 1.5
      vertex -1.96 -1.06 0.0799999
      vertex -1.96 -1.06 1.5
    endloop
  endfacet
  facet normal 0 1 -0
    outer loop
      vertex -1.74 -0.839999 0.0799999
      vertex -1.96 -0.839999 1.5
      vertex -1.74 -0.839999 1.5
    endloop
  endfacet
  facet normal 0 1 0
    outer loop
      vertex -1.96 -0.839999 1.5
      vertex -1.74 -0.839999 0.0799999
      vertex -1.96 -0.839999 0.0799999
    endloop
  endfacet
  facet normal 0 -1 0
    outer loop
      vertex -1.96 -1.06 0.0799999
      vertex -1.74 -1.06 1.5
      vertex -1.96 -1.06 1.5
    endloop
  endfacet
  facet normal 0 -1 -0
    outer loop
      vertex -1.74 -1.06 1.5
      vertex -1.96 -1.06 0.0799999
      vertex -1.74 -1.06 0.0799999
    endloop
  endfacet
  facet normal 1 -0 0
    outer loop
      vertex -1.6 -0.70843 1.86
      vertex -1.6 -0.7 1.5
      vertex -1.6 -0.7 1.86
    endloop
  endfacet
  facet normal 1 -0 0
    outer loop
      vertex -1.6 -1.19157 1.86
      vertex -1.6 -0.7 1.5
      vertex -1.6 -0.70843 1.86
    endloop
  endfacet
  facet normal 1 0 0
    outer loop
      vertex -1.6 -1.2 1.5
      vertex -1.6 -1.19157 1.86
      vertex -1.6 -1.2 1.86
    endloop
  endfacet
  facet normal 1 0 0
    outer loop
      vertex -1.6 -1.19157 1.86
      vertex -1.6 -1.2 1.5
      vertex -1.6 -0.7 1.5
    endloop
  endfacet
  facet normal 0 0 -1
    outer loop
      vertex -1.6 -1.19157 1.86
      vertex -1.49 -0.95 1.86
      vertex -1.55875 -1.1616 1.86
    endloop
  endfacet
  facet normal 0 0 -1
    outer loop
      vertex -1.6 -0.70843 1.86
      vertex -1.49 -0.95 1.86
      vertex -1.6 -1.19157 1.86
    endloop
  endfacet
  facet normal 0 0 -1
    outer loop
      vertex -1.49 -0.95 1.86
      vertex -1.6 -0.70843 1.86
      vertex -1.55875 -0.738397 1.86
    endloop
  endfacet
  facet normal 0 0 -1
    outer loop
      vertex -1.96125 -1.29238 1.86
      vertex -1.6116 -1.2 1.86
      vertex -1.73875 -1.29238 1.86
    endloop
  endfacet
  facet normal -0 0 -1
    outer loop
      vertex -1.6116 -1.2 1.86
      vertex -1.96125 -1.29238 1.86
      vertex -2.0884 -1.2 1.86
    endloop
  endfacet
  facet normal 0 0 -1
    outer loop
      vertex -2.21 -0.95 1.86
      vertex -2.1 -1.19157 1.86
      vertex -2.14125 -1.1616 1.86
    endloop
  endfacet
  facet normal 0 0 -1
    outer loop
      vertex -2.1 -1.19157 1.86
      vertex -2.21 -0.95 1.86
      vertex -2.1 -0.70843 1.86
    endloop
  endfacet
  facet normal 0 0 -1
    outer loop
      vertex -2.1 -0.70843 1.86
      vertex -2.21 -0.95 1.86
      vertex -2.14125 -0.738397 1.86
    endloop
  endfacet
  facet normal 0 0 -1
    outer loop
      vertex -1.6116 -0.7 1.86
      vertex -1.96125 -0.607619 1.86
      vertex -1.73875 -0.607619 1.86
    endloop
  endfacet
  facet normal 0 -0 -1
    outer loop
      vertex -1.96125 -0.607619 1.86
      vertex -1.6116 -0.7 1.86
      vertex -2.0884 -0.7 1.86
    endloop
  endfacet
  facet normal -0 0 1
    outer loop
      vertex -2.1 -0.7 1.86
      vertex -2.1 -0.70843 1.86
      vertex -2.0884 -0.7 1.86
    endloop
  endfacet
  facet normal 0 0 1
    outer loop
      vertex -1.6 -0.7 1.86
      vertex -1.6116 -0.7 1.86
      vertex -1.6 -0.70843 1.86
    endloop
  endfacet
  facet normal 0 0 1
    outer loop
      vertex -2.1 -1.19157 1.86
      vertex -2.1 -1.2 1.86
      vertex -2.0884 -1.2 1.86
    endloop
  endfacet
  facet normal 0 0 1
    outer loop
      vertex -1.6 -1.19157 1.86
      vertex -1.6116 -1.2 1.86
      vertex -1.6 -1.2 1.86
    endloop
  endfacet
  facet normal 0 0 -1
    outer loop
      vertex -1.6 -1.2 1.5
      vertex -1.74 -1.06 1.5
      vertex -1.6 -0.7 1.5
    endloop
  endfacet
  facet normal 0 0 -1
    outer loop
      vertex -1.6 -1.2 1.5
      vertex -1.96 -1.06 1.5
      vertex -1.74 -1.06 1.5
    endloop
  endfacet
  facet normal -0 0 -1
    outer loop
      vertex -1.96 -1.06 1.5
      vertex -2.1 -1.2 1.5
      vertex -1.96 -0.839999 1.5
    endloop
  endfacet
  facet normal 0 0 -1
    outer loop
      vertex -2.1 -1.2 1.5
      vertex -1.96 -1.06 1.5
      vertex -1.6 -1.2 1.5
    endloop
  endfacet
  facet normal 0 0 -1
    outer loop
      vertex -1.74 -0.839999 1.5
      vertex -1.6 -0.7 1.5
      vertex -1.74 -1.06 1.5
    endloop
  endfacet
  facet normal 0 0 -1
    outer loop
      vertex -1.96 -0.839999 1.5
      vertex -1.6 -0.7 1.5
      vertex -1.74 -0.839999 1.5
    endloop
  endfacet
  facet normal 0 0 -1
    outer loop
      vertex -1.96 -0.839999 1.5
      vertex -2.1 -0.7 1.5
      vertex -1.6 -0.7 1.5
    endloop
  endfacet
  facet normal 0 0 -1
    outer loop
      vertex -2.1 -0.7 1.5
      vertex -1.96 -0.839999 1.5
      vertex -2.1 -1.2 1.5
    endloop
  endfacet
  facet normal -1 0 0
    outer loop
      vertex -2.1 -0.7 1.5
      vertex -2.1 -0.70843 1.86
      vertex -2.1 -0.7 1.86
    endloop
  endfacet
  facet normal -1 0 0
    outer loop
      vertex -2.1 -0.7 1.5
      vertex -2.1 -1.19157 1.86
      vertex -2.1 -0.70843 1.86
    endloop
  endfacet
  facet normal -1 0 0
    outer loop
      vertex -2.1 -1.2 1.5
      vertex -2.1 -1.19157 1.86
      vertex -2.1 -0.7 1.5
    endloop
  endfacet
  facet normal -1 -0 0
    outer loop
      vertex -2.1 -1.19157 1.86
      vertex -2.1 -1.2 1.5
      vertex -2.1 -1.2 1.86
    endloop
  endfacet
  facet normal 0 1 -0
    outer loop
      vertex -1.6 -0.7 1.5
      vertex -1.6116 -0.7 1.86
      vertex -1.6 -0.7 1.86
    endloop
  endfacet
  facet normal 0 1 0
    outer loop
      vertex -1.6116 -0.7 1.86
      vertex -1.6 -0.7 1.5
      vertex -2.0884 -0.7 1.86
    endloop
  endfacet
  facet normal 0 1 0
    outer loop
      vertex -2.1 -0.7 1.5
      vertex -2.0884 -0.7 1.86
      vertex -1.6 -0.7 1.5
    endloop
  endfacet
  facet normal 0 1 0
    outer loop
      vertex -2.0884 -0.7 1.86
      vertex -2.1 -0.7 1.5
      vertex -2.1 -0.7 1.86
    endloop
  endfacet
  facet normal 0 -1 0
    outer loop
      vertex -2.1 -1.2 1.5
      vertex -2.0884 -1.2 1.86
      vertex -2.1 -1.2 1.86
    endloop
  endfacet
  facet normal 0 -1 -0
    outer loop
      vertex -2.0884 -1.2 1.86
      vertex -2.1 -1.2 1.5
      vertex -1.6116 -1.2 1.86
    endloop
  endfacet
  facet normal 0 -1 0
    outer loop
      vertex -1.6 -1.2 1.5
      vertex -1.6116 -1.2 1.86
      vertex -2.1 -1.2 1.5
    endloop
  endfacet
  facet normal 0 -1 0
    outer loop
      vertex -1.6116 -1.2 1.86
      vertex -1.6 -1.2 1.5
      vertex -1.6 -1.2 1.86
    endloop
  endfacet
  facet normal 0.514124 0.167039 0.841293
    outer loop
      vertex -1.55875 -0.738397 1.86
      vertex -1.85 -0.95 2.08
      vertex -1.49 -0.95 1.86
    endloop
  endfacet
  facet normal -0.514124 0.167039 0.841293
    outer loop
      vertex -2.14125 -0.738397 1.86
      vertex -2.21 -0.95 1.86
      vertex -1.85 -0.95 2.08
    endloop
  endfacet
  facet normal 0 -0.540581 0.841292
    outer loop
      vertex -1.85 -0.95 2.08
      vertex -1.96125 -1.29238 1.86
      vertex -1.73875 -1.29238 1.86
    endloop
  endfacet
  facet normal 0.514124 -0.167042 0.841293
    outer loop
      vertex -1.49 -0.95 1.86
      vertex -1.85 -0.95 2.08
      vertex -1.55875 -1.1616 1.86
    endloop
  endfacet
  facet normal 0.317746 -0.437338 0.841292
    outer loop
      vertex -1.85 -0.95 2.08
      vertex -1.6 -1.19157 1.86
      vertex -1.55875 -1.1616 1.86
    endloop
  endfacet
  facet normal 0.317744 -0.437337 0.841293
    outer loop
      vertex -1.6116 -1.2 1.86
      vertex -1.85 -0.95 2.08
      vertex -1.73875 -1.29238 1.86
    endloop
  endfacet
  facet normal 0.317793 -0.437295 0.841297
    outer loop
      vertex -1.6 -1.19157 1.86
      vertex -1.85 -0.95 2.08
      vertex -1.6116 -1.2 1.86
    endloop
  endfacet
  facet normal -0.317744 -0.437337 0.841293
    outer loop
      vertex -1.85 -0.95 2.08
      vertex -2.0884 -1.2 1.86
      vertex -1.96125 -1.29238 1.86
    endloop
  endfacet
  facet normal -0.317793 -0.437295 0.841297
    outer loop
      vertex -1.85 -0.95 2.08
      vertex -2.1 -1.19157 1.86
      vertex -2.0884 -1.2 1.86
    endloop
  endfacet
  facet normal -0.317746 -0.437338 0.841292
    outer loop
      vertex -2.1 -1.19157 1.86
      vertex -1.85 -0.95 2.08
      vertex -2.14125 -1.1616 1.86
    endloop
  endfacet
  facet normal -0.317747 0.437335 0.841294
    outer loop
      vertex -2.0884 -0.7 1.86
      vertex -1.85 -0.95 2.08
      vertex -1.96125 -0.607619 1.86
    endloop
  endfacet
  facet normal -0.317793 0.437295 0.841297
    outer loop
      vertex -2.1 -0.70843 1.86
      vertex -1.85 -0.95 2.08
      vertex -2.0884 -0.7 1.86
    endloop
  endfacet
  facet normal -0.317727 0.437356 0.84129
    outer loop
      vertex -1.85 -0.95 2.08
      vertex -2.1 -0.70843 1.86
      vertex -2.14125 -0.738397 1.86
    endloop
  endfacet
  facet normal 0 0.54058 0.841293
    outer loop
      vertex -1.73875 -0.607619 1.86
      vertex -1.96125 -0.607619 1.86
      vertex -1.85 -0.95 2.08
    endloop
  endfacet
  facet normal 0.317747 0.437335 0.841294
    outer loop
      vertex -1.85 -0.95 2.08
      vertex -1.6116 -0.7 1.86
      vertex -1.73875 -0.607619 1.86
    endloop
  endfacet
  facet normal 0.317727 0.437356 0.84129
    outer loop
      vertex -1.6 -0.70843 1.86
      vertex -1.85 -0.95 2.08
      vertex -1.55875 -0.738397 1.86
    endloop
  endfacet
  facet normal 0.317793 0.437295 0.841297
    outer loop
      vertex -1.6116 -0.7 1.86
      vertex -1.85 -0.95 2.08
      vertex -1.6 -0.70843 1.86
    endloop
  endfacet
  facet normal -0.514124 -0.167042 0.841293
    outer loop
      vertex -1.85 -0.95 2.08
      vertex -2.21 -0.95 1.86
      vertex -2.14125 -1.1616 1.86
    endloop
  endfacet
  facet normal 1 -0 0
    outer loop
      vertex 1.96 -1.06 1.5
      vertex 1.96 -0.839999 0.0799999
      vertex 1.96 -0.839999 1.5
    endloop
  endfacet
  facet normal 1 0 0
    outer loop
      vertex 1.96 -0.839999 0.0799999
      vertex 1.96 -1.06 1.5
      vertex 1.96 -1.06 0.0799999
    endloop
  endfacet
  facet normal -1 0 0
    outer loop
      vertex 1.74 -1.06 0.0799999
      vertex 1.74 -0.839999 1.5
      vertex 1.74 -0.839999 0.0799999
    endloop
  endfacet
  facet normal -1 -0 0
    outer loop
      vertex 1.74 -0.839999 1.5
      vertex 1.74 -1.06 0.0799999
      vertex 1.74 -1.06 1.5
    endloop
  endfacet
  facet normal 0 1 -0
    outer loop
      vertex 1.96 -0.839999 0.0799999
      vertex 1.74 -0.839999 1.5
      vertex 1.96 -0.839999 1.5
    endloop
  endfacet
  facet normal 0 1 0
    outer loop
      vertex 1.74 -0.839999 1.5
      vertex 1.96 -0.839999 0.0799999
      vertex 1.74 -0.839999 0.0799999
    endloop
  endfacet
  facet normal 0 -1 0
    outer loop
      vertex 1.74 -1.06 0.0799999
      vertex 1.96 -1.06 1.5
      vertex 1.74 -1.06 1.5
    endloop
  endfacet
  facet normal 0 -1 -0
    outer loop
      vertex 1.96 -1.06 1.5
      vertex 1.74 -1.06 0.0799999
      vertex 1.96 -1.06 0.0799999
    endloop
  endfacet
  facet normal 1 -0 0
    outer loop
      vertex 2.1 -0.70843 1.86
      vertex 2.1 -0.7 1.5
      vertex 2.1 -0.7 1.86
    endloop
  endfacet
  facet normal 1 -0 0
    outer loop
      vertex 2.1 -1.19157 1.86
      vertex 2.1 -0.7 1.5
      vertex 2.1 -0.70843 1.86
    endloop
  endfacet
  facet normal 1 0 0
    outer loop
      vertex 2.1 -1.2 1.5
      vertex 2.1 -1.19157 1.86
      vertex 2.1 -1.2 1.86
    endloop
  endfacet
  facet normal 1 0 0
    outer loop
      vertex 2.1 -1.19157 1.86
      vertex 2.1 -1.2 1.5
      vertex 2.1 -0.7 1.5
    endloop
  endfacet
  facet normal 0 0 -1
    outer loop
      vertex 2.1 -1.19157 1.86
      vertex 2.21 -0.95 1.86
      vertex 2.14125 -1.1616 1.86
    endloop
  endfacet
  facet normal 0 0 -1
    outer loop
      vertex 2.1 -0.70843 1.86
      vertex 2.21 -0.95 1.86
      vertex 2.1 -1.19157 1.86
    endloop
  endfacet
  facet normal 0 0 -1
    outer loop
      vertex 2.21 -0.95 1.86
      vertex 2.1 -0.70843 1.86
      vertex 2.14125 -0.738397 1.86
    endloop
  endfacet
  facet normal 0 0 -1
    outer loop
      vertex 1.73875 -1.29238 1.86
      vertex 2.0884 -1.2 1.86
      vertex 1.96125 -1.29238 1.86
    endloop
  endfacet
  facet normal -0 0 -1
    outer loop
      vertex 2.0884 -1.2 1.86
      vertex 1.73875 -1.29238 1.86
      vertex 1.6116 -1.2 1.86
    endloop
  endfacet
  facet normal 0 0 -1
    outer loop
      vertex 1.49 -0.95 1.86
      vertex 1.6 -1.19157 1.86
      vertex 1.55875 -1.1616 1.86
    endloop
  endfacet
  facet normal 0 0 -1
    outer loop
      vertex 1.6 -1.19157 1.86
      vertex 1.49 -0.95 1.86
      vertex 1.6 -0.70843 1.86
    endloop
  endfacet
  facet normal 0 0 -1
    outer loop
      vertex 1.6 -0.70843 1.86
      vertex 1.49 -0.95 1.86
      vertex 1.55875 -0.738397 1.86
    endloop
  endfacet
  facet normal 0 0 -1
    outer loop
      vertex 2.0884 -0.7 1.86
      vertex 1.73875 -0.607619 1.86
      vertex 1.96125 -0.607619 1.86
    endloop
  endfacet
  facet normal 0 -0 -1
    outer loop
      vertex 1.73875 -0.607619 1.86
      vertex 2.0884 -0.7 1.86
      vertex 1.6116 -0.7 1.86
    endloop
  endfacet
  facet normal -0 0 1
    outer loop
      vertex 1.6 -0.7 1.86
      vertex 1.6 -0.70843 1.86
      vertex 1.6116 -0.7 1.86
    endloop
  endfacet
  facet normal 0 0 1
    outer loop
      vertex 2.1 -0.7 1.86
      vertex 2.0884 -0.7 1.86
      vertex 2.1 -0.70843 1.86
    endloop
  endfacet
  facet normal 0 0 1
    outer loop
      vertex 1.6 -1.19157 1.86
      vertex 1.6 -1.2 1.86
      vertex 1.6116 -1.2 1.86
    endloop
  endfacet
  facet normal 0 0 1
    outer loop
      vertex 2.1 -1.19157 1.86
      vertex 2.0884 -1.2 1.86
      vertex 2.1 -1.2 1.86
    endloop
  endfacet
  facet normal 0 0 -1
    outer loop
      vertex 2.1 -1.2 1.5
      vertex 1.96 -1.06 1.5
      vertex 2.1 -0.7 1.5
    endloop
  endfacet
  facet normal 0 0 -1
    outer loop
      vertex 2.1 -1.2 1.5
      vertex 1.74 -1.06 1.5
      vertex 1.96 -1.06 1.5
    endloop
  endfacet
  facet normal -0 0 -1
    outer loop
      vertex 1.74 -1.06 1.5
      vertex 1.6 -1.2 1.5
      vertex 1.74 -0.839999 1.5
    endloop
  endfacet
  facet normal 0 0 -1
    outer loop
      vertex 1.6 -1.2 1.5
      vertex 1.74 -1.06 1.5
      vertex 2.1 -1.2 1.5
    endloop
  endfacet
  facet normal 0 0 -1
    outer loop
      vertex 1.96 -0.839999 1.5
      vertex 2.1 -0.7 1.5
      vertex 1.96 -1.06 1.5
    endloop
  endfacet
  facet normal 0 0 -1
    outer loop
      vertex 1.74 -0.839999 1.5
      vertex 2.1 -0.7 1.5
      vertex 1.96 -0.839999 1.5
    endloop
  endfacet
  facet normal 0 0 -1
    outer loop
      vertex 1.74 -0.839999 1.5
      vertex 1.6 -0.7 1.5
      vertex 2.1 -0.7 1.5
    endloop
  endfacet
  facet normal 0 0 -1
    outer loop
      vertex 1.6 -0.7 1.5
      vertex 1.74 -0.839999 1.5
      vertex 1.6 -1.2 1.5
    endloop
  endfacet
  facet normal -1 0 0
    outer loop
      vertex 1.6 -0.7 1.5
      vertex 1.6 -0.70843 1.86
      vertex 1.6 -0.7 1.86
    endloop
  endfacet
  facet normal -1 0 0
    outer loop
      vertex 1.6 -0.7 1.5
      vertex 1.6 -1.19157 1.86
      vertex 1.6 -0.70843 1.86
    endloop
  endfacet
  facet normal -1 0 0
    outer loop
      vertex 1.6 -1.2 1.5
      vertex 1.6 -1.19157 1.86
      vertex 1.6 -0.7 1.5
    endloop
  endfacet
  facet normal -1 -0 0
    outer loop
      vertex 1.6 -1.19157 1.86
      vertex 1.6 -1.2 1.5
      vertex 1.6 -1.2 1.86
    endloop
  endfacet
  facet normal 0 1 -0
    outer loop
      vertex 2.1 -0.7 1.5
      vertex 2.0884 -0.7 1.86
      vertex 2.1 -0.7 1.86
    endloop
  endfacet
  facet normal 0 1 0
    outer loop
      vertex 2.0884 -0.7 1.86
      vertex 2.1 -0.7 1.5
      vertex 1.6116 -0.7 1.86
    endloop
  endfacet
  facet normal 0 1 0
    outer loop
      vertex 1.6 -0.7 1.5
      vertex 1.6116 -0.7 1.86
      vertex 2.1 -0.7 1.5
    endloop
  endfacet
  facet normal 0 1 0
    outer loop
      vertex 1.6116 -0.7 1.86
      vertex 1.6 -0.7 1.5
      vertex 1.6 -0.7 1.86
    endloop
  endfacet
  facet normal 0 -1 0
    outer loop
      vertex 1.6 -1.2 1.5
      vertex 1.6116 -1.2 1.86
      vertex 1.6 -1.2 1.86
    endloop
  endfacet
  facet normal 0 -1 -0
    outer loop
      vertex 1.6116 -1.2 1.86
      vertex 1.6 -1.2 1.5
      vertex 2.0884 -1.2 1.86
    endloop
  endfacet
  facet normal 0 -1 0
    outer loop
      vertex 2.1 -1.2 1.5
      vertex 2.0884 -1.2 1.86
      vertex 1.6 -1.2 1.5
    endloop
  endfacet
  facet normal 0 -1 0
    outer loop
      vertex 2.0884 -1.2 1.86
      vertex 2.1 -1.2 1.5
      vertex 2.1 -1.2 1.86
    endloop
  endfacet
  facet normal 0.514124 0.167039 0.841293
    outer loop
      vertex 2.14125 -0.738397 1.86
      vertex 1.85 -0.95 2.08
      vertex 2.21 -0.95 1.86
    endloop
  endfacet
  facet normal -0.514124 0.167039 0.841293
    outer loop
      vertex 1.55875 -0.738397 1.86
      vertex 1.49 -0.95 1.86
      vertex 1.85 -0.95 2.08
    endloop
  endfacet
  facet normal 0 -0.540581 0.841292
    outer loop
      vertex 1.85 -0.95 2.08
      vertex 1.73875 -1.29238 1.86
      vertex 1.96125 -1.29238 1.86
    endloop
  endfacet
  facet normal 0.514124 -0.167042 0.841293
    outer loop
      vertex 2.21 -0.95 1.86
      vertex 1.85 -0.95 2.08
      vertex 2.14125 -1.1616 1.86
    endloop
  endfacet
  facet normal 0.317746 -0.437338 0.841292
    outer loop
      vertex 1.85 -0.95 2.08
      vertex 2.1 -1.19157 1.86
      vertex 2.14125 -1.1616 1.86
    endloop
  endfacet
  facet normal 0.317793 -0.437295 0.841297
    outer loop
      vertex 2.1 -1.19157 1.86
      vertex 1.85 -0.95 2.08
      vertex 2.0884 -1.2 1.86
    endloop
  endfacet
  facet normal 0.317744 -0.437337 0.841293
    outer loop
      vertex 2.0884 -1.2 1.86
      vertex 1.85 -0.95 2.08
      vertex 1.96125 -1.29238 1.86
    endloop
  endfacet
  facet normal -0.317744 -0.437337 0.841293
    outer loop
      vertex 1.85 -0.95 2.08
      vertex 1.6116 -1.2 1.86
      vertex 1.73875 -1.29238 1.86
    endloop
  endfacet
  facet normal -0.317793 -0.437295 0.841297
    outer loop
      vertex 1.85 -0.95 2.08
      vertex 1.6 -1.19157 1.86
      vertex 1.6116 -1.2 1.86
    endloop
  endfacet
  facet normal -0.317746 -0.437338 0.841292
    outer loop
      vertex 1.6 -1.19157 1.86
      vertex 1.85 -0.95 2.08
      vertex 1.55875 -1.1616 1.86
    endloop
  endfacet
  facet normal -0.317747 0.437335 0.841294
    outer loop
      vertex 1.6116 -0.7 1.86
      vertex 1.85 -0.95 2.08
      vertex 1.73875 -0.607619 1.86
    endloop
  endfacet
  facet normal -0.317793 0.437295 0.841297
    outer loop
      vertex 1.6 -0.70843 1.86
      vertex 1.85 -0.95 2.08
      vertex 1.6116 -0.7 1.86
    endloop
  endfacet
  facet normal -0.317727 0.437356 0.84129
    outer loop
      vertex 1.85 -0.95 2.08
      vertex 1.6 -0.70843 1.86
      vertex 1.55875 -0.738397 1.86
    endloop
  endfacet
  facet normal 0 0.54058 0.841293
    outer loop
      vertex 1.96125 -0.607619 1.86
      vertex 1.73875 -0.607619 1.86
      vertex 1.85 -0.95 2.08
    endloop
  endfacet
  facet normal 0.317747 0.437335 0.841294
    outer loop
      vertex 1.85 -0.95 2.08
      vertex 2.0884 -0.7 1.86
      vertex 1.96125 -0.607619 1.86
    endloop
  endfacet
  facet normal 0.317727 0.437356 0.84129
    outer loop
      vertex 2.1 -0.70843 1.86
      vertex 1.85 -0.95 2.08
      vertex 2.14125 -0.738397 1.86
    endloop
  endfacet
  facet normal 0.317793 0.437295 0.841297
    outer loop
      vertex 2.0884 -0.7 1.86
      vertex 1.85 -0.95 2.08
      vertex 2.1 -0.70843 1.86
    endloop
  endfacet
  facet normal -0.514124 -0.167042 0.841293
    outer loop
      vertex 1.85 -0.95 2.08
      vertex 1.49 -0.95 1.86
      vertex 1.55875 -1.1616 1.86
    endloop
  endfacet
endsolid OpenSCAD_Model
