solid OpenSCAD_Model
  facet normal -0.923877 -0.382689 0
    outer loop
      vertex -0.0636387 -0.0636387 0
      vertex -0.0899992 0 0.349999
      vertex -0.0899992 0 0
    endloop
  endfacet
  facet normal -0.923877 -0.382689 0
    outer loop
      vertex -0.0899992 0 0.349999
      vertex -0.0636387 -0.0636387 0
      vertex -0.0636387 -0.0636387 0.349999
    endloop
  endfacet
  facet normal 0.382689 0.923877 -0
    outer loop
      vertex 0.0636387 0.0636387 0
      vertex 0 0.0899992 0.271466
      vertex 0.0636387 0.0636387 0.309113
    endloop
  endfacet
  facet normal 0.382689 0.923877 0
    outer loop
      vertex 0 0.0899992 0.271466
      vertex 0.0636387 0.0636387 0
      vertex 0 0.0899992 0
    endloop
  endfacet
  facet normal 0.923877 0.382691 2.32005e-06
    outer loop
      vertex 0.0899992 0 0.349999
      vertex 0.0636387 0.0636387 0.309113
      vertex 0.0754973 0.0350099 0.349999
    endloop
  endfacet
  facet normal 0.923877 0.382689 0
    outer loop
      vertex 0.0636387 0.0636387 0.309113
      vertex 0.0899992 0 0.349999
      vertex 0.0899992 0 0
    endloop
  endfacet
  facet normal 0.923877 0.382689 0
    outer loop
      vertex 0.0636387 0.0636387 0.309113
      vertex 0.0899992 0 0
      vertex 0.0636387 0.0636387 0
    endloop
  endfacet
  facet normal 0.923877 -0.382689 0
    outer loop
      vertex 0.0636387 -0.0636387 0.349999
      vertex 0.0899992 0 0
      vertex 0.0899992 0 0.349999
    endloop
  endfacet
  facet normal 0.923877 -0.382689 0
    outer loop
      vertex 0.0899992 0 0
      vertex 0.0636387 -0.0636387 0.349999
      vertex 0.0636387 -0.0636387 0
    endloop
  endfacet
  facet normal -0.382689 -0.923877 0
    outer loop
      vertex -0.0636387 -0.0636387 0
      vertex 0 -0.0899992 0.349999
      vertex -0.0636387 -0.0636387 0.349999
    endloop
  endfacet
  facet normal -0.382689 -0.923877 -0
    outer loop
      vertex 0 -0.0899992 0.349999
      vertex -0.0636387 -0.0636387 0
      vertex 0 -0.0899992 0
    endloop
  endfacet
  facet normal -0.382689 0.923877 0
    outer loop
      vertex -0.0636387 0.0636387 0
      vertex 0 0.0899992 0.271466
      vertex 0 0.0899992 0
    endloop
  endfacet
  facet normal -0.382689 0.923877 0
    outer loop
      vertex 0 0.0899992 0.271466
      vertex -0.0636387 0.0636387 0
      vertex -0.0636387 0.0636387 0.309113
    endloop
  endfacet
  facet normal -0.923877 0.382689 0
    outer loop
      vertex -0.0899992 0 0
      vertex -0.0636387 0.0636387 0.309113
      vertex -0.0636387 0.0636387 0
    endloop
  endfacet
  facet normal -0.923877 0.382689 0
    outer loop
      vertex -0.0899992 0 0.349999
      vertex -0.0636387 0.0636387 0.309113
      vertex -0.0899992 0 0
    endloop
  endfacet
  facet normal -0.923877 0.382691 2.32005e-06
    outer loop
      vertex -0.0636387 0.0636387 0.309113
      vertex -0.0899992 0 0.349999
      vertex -0.0754973 0.0350099 0.349999
    endloop
  endfacet
  facet normal 0.382689 -0.923877 0
    outer loop
      vertex 0 -0.0899992 0
      vertex 0.0636387 -0.0636387 0.349999
      vertex 0 -0.0899992 0.349999
    endloop
  endfacet
  facet normal 0.382689 -0.923877 0
    outer loop
      vertex 0.0636387 -0.0636387 0.349999
      vertex 0 -0.0899992 0
      vertex 0.0636387 -0.0636387 0
    endloop
  endfacet
  facet normal 0 0 1
    outer loop
      vertex 0.0754973 0.0350099 0.349999
      vertex 0.0636387 -0.0636387 0.349999
      vertex 0.0899992 0 0.349999
    endloop
  endfacet
  facet normal 0 0 1
    outer loop
      vertex 0.0754973 0.0350099 0.349999
      vertex 0 -0.0899992 0.349999
      vertex 0.0636387 -0.0636387 0.349999
    endloop
  endfacet
  facet normal -0 0 1
    outer loop
      vertex -0.0754973 0.0350099 0.349999
      vertex 0 -0.0899992 0.349999
      vertex 0.0754973 0.0350099 0.349999
    endloop
  endfacet
  facet normal 0 0 1
    outer loop
      vertex 0 -0.0899992 0.349999
      vertex -0.0754973 0.0350099 0.349999
      vertex -0.0636387 -0.0636387 0.349999
    endloop
  endfacet
  facet normal 0 0 1
    outer loop
      vertex -0.0636387 -0.0636387 0.349999
      vertex -0.0754973 0.0350099 0.349999
      vertex -0.0899992 0 0.349999
    endloop
  endfacet
  facet normal 0 0 -1
    outer loop
      vertex 0.0636387 -0.0636387 0
      vertex 0.0636387 0.0636387 0
      vertex 0.0899992 0 0
    endloop
  endfacet
  facet normal 0 0 -1
    outer loop
      vertex 0 -0.0899992 0
      vertex 0.0636387 0.0636387 0
      vertex 0.0636387 -0.0636387 0
    endloop
  endfacet
  facet normal 0 0 -1
    outer loop
      vertex 0 -0.0899992 0
      vertex 0 0.0899992 0
      vertex 0.0636387 0.0636387 0
    endloop
  endfacet
  facet normal 0 0 -1
    outer loop
      vertex -0.0636387 -0.0636387 0
      vertex 0 0.0899992 0
      vertex 0 -0.0899992 0
    endloop
  endfacet
  facet normal 0 0 -1
    outer loop
      vertex -0.0636387 -0.0636387 0
      vertex -0.0636387 0.0636387 0
      vertex 0 0.0899992 0
    endloop
  endfacet
  facet normal 0 -0 -1
    outer loop
      vertex -0.0636387 0.0636387 0
      vertex -0.0636387 -0.0636387 0
      vertex -0.0899992 0 0
    endloop
  endfacet
  facet normal 0.951057 -0.177245 0.253129
    outer loop
      vertex 0.419999 0.0409575 0.428679
      vertex 0.339787 -0.141599 0.602223
      vertex 0.419999 0 0.4
    endloop
  endfacet
  facet normal -5.09854e-06 -0.819151 -0.573578
    outer loop
      vertex -0.339787 -0.141599 0.602223
      vertex -0.419999 0 0.4
      vertex -0.129786 0.229111 0.072794
    endloop
  endfacet
  facet normal 0.951057 0.177246 -0.253128
    outer loop
      vertex 0.419999 0.0409575 0.428679
      vertex 0.339787 0.141599 0.197776
      vertex 0.339787 0.182556 0.226455
    endloop
  endfacet
  facet normal 0.951058 0.177244 -0.253128
    outer loop
      vertex 0.339787 0.141599 0.197776
      vertex 0.419999 0.0409575 0.428679
      vertex 0.419999 0 0.4
    endloop
  endfacet
  facet normal -0.951057 -0.177241 0.253133
    outer loop
      vertex -0.339787 -0.10064 0.630902
      vertex -0.419999 0.0409575 0.428679
      vertex -0.339787 -0.141599 0.602223
    endloop
  endfacet
  facet normal 0.587782 -0.464033 0.662711
    outer loop
      vertex 0.129786 -0.188153 0.755883
      vertex 0.129786 -0.229111 0.727204
      vertex 0.339787 -0.141599 0.602223
    endloop
  endfacet
  facet normal 0 -0.819152 -0.573576
    outer loop
      vertex -0.339787 -0.141599 0.602223
      vertex -0.0160394 0.0089014 0.387286
      vertex 0.339787 -0.141599 0.602223
    endloop
  endfacet
  facet normal 8.48787e-07 -0.819153 -0.573575
    outer loop
      vertex -0.0754973 0.0350099 0.349999
      vertex -0.0160394 0.0089014 0.387286
      vertex -0.339787 -0.141599 0.602223
    endloop
  endfacet
  facet normal 0 -0.819154 -0.573573
    outer loop
      vertex -0.0124998 0.0124179 0.382264
      vertex -0.0754973 0.0350099 0.349999
      vertex 0.0124998 0.0124179 0.382264
    endloop
  endfacet
  facet normal 5.4191e-06 -0.819149 -0.57358
    outer loop
      vertex -0.0160394 0.0089014 0.387286
      vertex -0.0754973 0.0350099 0.349999
      vertex -0.0124998 0.0124179 0.382264
    endloop
  endfacet
  facet normal -8.07533e-07 -0.819152 -0.573576
    outer loop
      vertex -0.129786 0.229111 0.072794
      vertex -0.0754973 0.0350099 0.349999
      vertex -0.339787 -0.141599 0.602223
    endloop
  endfacet
  facet normal -2.27478e-06 -0.819152 -0.573576
    outer loop
      vertex -0.0636387 0.0636387 0.309113
      vertex -0.129786 0.229111 0.072794
      vertex 0 0.0899992 0.271466
    endloop
  endfacet
  facet normal 4.30324e-06 -0.819152 -0.573577
    outer loop
      vertex -0.0754973 0.0350099 0.349999
      vertex -0.129786 0.229111 0.072794
      vertex -0.0636387 0.0636387 0.309113
    endloop
  endfacet
  facet normal -0 -0.819152 -0.573576
    outer loop
      vertex 0.0160394 0.0089014 0.387286
      vertex 0.339787 -0.141599 0.602223
      vertex -0.0160394 0.0089014 0.387286
    endloop
  endfacet
  facet normal -5.4191e-06 -0.819149 -0.57358
    outer loop
      vertex 0.0754973 0.0350099 0.349999
      vertex 0.0160394 0.0089014 0.387286
      vertex 0.0124998 0.0124179 0.382264
    endloop
  endfacet
  facet normal -0 -0.819154 -0.573573
    outer loop
      vertex 0.0754973 0.0350099 0.349999
      vertex 0.0124998 0.0124179 0.382264
      vertex -0.0754973 0.0350099 0.349999
    endloop
  endfacet
  facet normal -8.48787e-07 -0.819153 -0.573575
    outer loop
      vertex 0.0160394 0.0089014 0.387286
      vertex 0.0754973 0.0350099 0.349999
      vertex 0.339787 -0.141599 0.602223
    endloop
  endfacet
  facet normal -4.30324e-06 -0.819152 -0.573577
    outer loop
      vertex 0.129786 0.229111 0.072794
      vertex 0.0754973 0.0350099 0.349999
      vertex 0.0636387 0.0636387 0.309113
    endloop
  endfacet
  facet normal -0 -0.819152 -0.573577
    outer loop
      vertex 0.129786 0.229111 0.072794
      vertex 0 0.0899992 0.271466
      vertex -0.129786 0.229111 0.072794
    endloop
  endfacet
  facet normal 2.27478e-06 -0.819152 -0.573576
    outer loop
      vertex 0 0.0899992 0.271466
      vertex 0.129786 0.229111 0.072794
      vertex 0.0636387 0.0636387 0.309113
    endloop
  endfacet
  facet normal 8.07533e-07 -0.819152 -0.573576
    outer loop
      vertex 0.0754973 0.0350099 0.349999
      vertex 0.129786 0.229111 0.072794
      vertex 0.339787 -0.141599 0.602223
    endloop
  endfacet
  facet normal -0.951057 -0.177245 0.253129
    outer loop
      vertex -0.419999 0.0409575 0.428679
      vertex -0.419999 0 0.4
      vertex -0.339787 -0.141599 0.602223
    endloop
  endfacet
  facet normal -0.587783 -0.464025 0.662715
    outer loop
      vertex -0.339787 -0.10064 0.630902
      vertex -0.339787 -0.141599 0.602223
      vertex -0.129786 -0.188153 0.755883
    endloop
  endfacet
  facet normal 0.587783 -0.464025 0.662715
    outer loop
      vertex 0.339787 -0.10064 0.630902
      vertex 0.129786 -0.188153 0.755883
      vertex 0.339787 -0.141599 0.602223
    endloop
  endfacet
  facet normal 0 0.819153 0.573576
    outer loop
      vertex 0.339787 -0.10064 0.630902
      vertex 0.0124998 0.0285396 0.446414
      vertex -0.339787 -0.10064 0.630902
    endloop
  endfacet
  facet normal 5.39138e-05 0.819198 0.573511
    outer loop
      vertex 0.339787 -0.10064 0.630902
      vertex 0.0141445 0.0301735 0.44408
      vertex 0.0124998 0.0285396 0.446414
    endloop
  endfacet
  facet normal -9.97661e-06 0.819145 0.573586
    outer loop
      vertex 0.339787 -0.10064 0.630902
      vertex 0.0249996 0.0409578 0.428679
      vertex 0.0141445 0.0301735 0.44408
    endloop
  endfacet
  facet normal 3.90604e-07 0.819153 0.573575
    outer loop
      vertex 0.339787 0.182556 0.226455
      vertex 0.0249996 0.0409578 0.428679
      vertex 0.339787 -0.10064 0.630902
    endloop
  endfacet
  facet normal 0 0.819153 0.573574
    outer loop
      vertex 0.0124998 0.0533761 0.410944
      vertex 0.339787 0.182556 0.226455
      vertex -0.0124998 0.0533761 0.410944
    endloop
  endfacet
  facet normal 3.45639e-06 0.819151 0.573578
    outer loop
      vertex 0.0249996 0.0409578 0.428679
      vertex 0.339787 0.182556 0.226455
      vertex 0.0124998 0.0533761 0.410944
    endloop
  endfacet
  facet normal -0 0.819153 0.573576
    outer loop
      vertex -0.0124998 0.0285396 0.446414
      vertex -0.339787 -0.10064 0.630902
      vertex 0.0124998 0.0285396 0.446414
    endloop
  endfacet
  facet normal -5.39138e-05 0.819198 0.573511
    outer loop
      vertex -0.0141445 0.0301735 0.44408
      vertex -0.339787 -0.10064 0.630902
      vertex -0.0124998 0.0285396 0.446414
    endloop
  endfacet
  facet normal 9.97661e-06 0.819145 0.573586
    outer loop
      vertex -0.0249996 0.0409578 0.428679
      vertex -0.339787 -0.10064 0.630902
      vertex -0.0141445 0.0301735 0.44408
    endloop
  endfacet
  facet normal -3.45639e-06 0.819151 0.573578
    outer loop
      vertex -0.339787 0.182556 0.226455
      vertex -0.0249996 0.0409578 0.428679
      vertex -0.0124998 0.0533761 0.410944
    endloop
  endfacet
  facet normal -3.90604e-07 0.819153 0.573575
    outer loop
      vertex -0.0249996 0.0409578 0.428679
      vertex -0.339787 0.182556 0.226455
      vertex -0.339787 -0.10064 0.630902
    endloop
  endfacet
  facet normal -0 0.819153 0.573574
    outer loop
      vertex -0.339787 0.182556 0.226455
      vertex -0.0124998 0.0533761 0.410944
      vertex 0.339787 0.182556 0.226455
    endloop
  endfacet
  facet normal 0 -0.819154 -0.573574
    outer loop
      vertex -0.339787 -0.141599 0.602223
      vertex 0.129786 -0.229111 0.727204
      vertex -0.129786 -0.229111 0.727204
    endloop
  endfacet
  facet normal 0 -0.819154 -0.573574
    outer loop
      vertex 0.129786 -0.229111 0.727204
      vertex -0.339787 -0.141599 0.602223
      vertex 0.339787 -0.141599 0.602223
    endloop
  endfacet
  facet normal -1.5308e-06 0.819153 0.573575
    outer loop
      vertex -0.339787 0.182556 0.226455
      vertex -0.419999 0.0409575 0.428679
      vertex -0.339787 -0.10064 0.630902
    endloop
  endfacet
  facet normal 0 0.573584 -0.819146
    outer loop
      vertex -0.129786 0.229111 0.072794
      vertex 0.129786 0.270068 0.101473
      vertex 0.129786 0.229111 0.072794
    endloop
  endfacet
  facet normal 0 0.573584 -0.819146
    outer loop
      vertex 0.129786 0.270068 0.101473
      vertex -0.129786 0.229111 0.072794
      vertex -0.129786 0.270068 0.101473
    endloop
  endfacet
  facet normal -7.56299e-06 -0.81915 -0.573579
    outer loop
      vertex -0.129786 0.229111 0.072794
      vertex -0.419999 0 0.4
      vertex -0.339787 0.141599 0.197776
    endloop
  endfacet
  facet normal -0.951057 0.177246 -0.253128
    outer loop
      vertex -0.339787 0.141599 0.197776
      vertex -0.419999 0.0409575 0.428679
      vertex -0.339787 0.182556 0.226455
    endloop
  endfacet
  facet normal -0.951058 0.177244 -0.253128
    outer loop
      vertex -0.419999 0.0409575 0.428679
      vertex -0.339787 0.141599 0.197776
      vertex -0.419999 0 0.4
    endloop
  endfacet
  facet normal 7.56299e-06 -0.81915 -0.573579
    outer loop
      vertex 0.419999 0 0.4
      vertex 0.129786 0.229111 0.072794
      vertex 0.339787 0.141599 0.197776
    endloop
  endfacet
  facet normal 5.09854e-06 -0.819151 -0.573578
    outer loop
      vertex 0.339787 -0.141599 0.602223
      vertex 0.129786 0.229111 0.072794
      vertex 0.419999 0 0.4
    endloop
  endfacet
  facet normal 0.951057 -0.177241 0.253133
    outer loop
      vertex 0.339787 -0.10064 0.630902
      vertex 0.339787 -0.141599 0.602223
      vertex 0.419999 0.0409575 0.428679
    endloop
  endfacet
  facet normal 1.5308e-06 0.819153 0.573575
    outer loop
      vertex 0.339787 0.182556 0.226455
      vertex 0.339787 -0.10064 0.630902
      vertex 0.419999 0.0409575 0.428679
    endloop
  endfacet
  facet normal 0 -0.573575 0.819153
    outer loop
      vertex -0.129786 -0.188153 0.755883
      vertex 0.129786 -0.229111 0.727204
      vertex 0.129786 -0.188153 0.755883
    endloop
  endfacet
  facet normal 0 -0.573575 0.819153
    outer loop
      vertex 0.129786 -0.229111 0.727204
      vertex -0.129786 -0.188153 0.755883
      vertex -0.129786 -0.229111 0.727204
    endloop
  endfacet
  facet normal -0.587782 -0.464033 0.662711
    outer loop
      vertex -0.129786 -0.188153 0.755883
      vertex -0.339787 -0.141599 0.602223
      vertex -0.129786 -0.229111 0.727204
    endloop
  endfacet
  facet normal -0.587784 0.46404 -0.662704
    outer loop
      vertex -0.339787 0.182556 0.226455
      vertex -0.129786 0.229111 0.072794
      vertex -0.339787 0.141599 0.197776
    endloop
  endfacet
  facet normal -0.587784 0.46404 -0.662704
    outer loop
      vertex -0.129786 0.229111 0.072794
      vertex -0.339787 0.182556 0.226455
      vertex -0.129786 0.270068 0.101473
    endloop
  endfacet
  facet normal 0 0.819156 0.573571
    outer loop
      vertex 0.129786 0.270068 0.101473
      vertex -0.339787 0.182556 0.226455
      vertex 0.339787 0.182556 0.226455
    endloop
  endfacet
  facet normal 0 0.819156 0.573571
    outer loop
      vertex -0.339787 0.182556 0.226455
      vertex 0.129786 0.270068 0.101473
      vertex -0.129786 0.270068 0.101473
    endloop
  endfacet
  facet normal 0.587784 0.46404 -0.662704
    outer loop
      vertex 0.129786 0.229111 0.072794
      vertex 0.339787 0.182556 0.226455
      vertex 0.339787 0.141599 0.197776
    endloop
  endfacet
  facet normal 0.587784 0.46404 -0.662704
    outer loop
      vertex 0.339787 0.182556 0.226455
      vertex 0.129786 0.229111 0.072794
      vertex 0.129786 0.270068 0.101473
    endloop
  endfacet
  facet normal 0 0.819151 0.573578
    outer loop
      vertex 0.339787 -0.10064 0.630902
      vertex -0.129786 -0.188153 0.755883
      vertex 0.129786 -0.188153 0.755883
    endloop
  endfacet
  facet normal 0 0.819151 0.573578
    outer loop
      vertex -0.129786 -0.188153 0.755883
      vertex 0.339787 -0.10064 0.630902
      vertex -0.339787 -0.10064 0.630902
    endloop
  endfacet
  facet normal 0.866048 -0.286766 0.409544
    outer loop
      vertex 0.0243417 0.294241 0.607421
      vertex 0.0249996 0.0409578 0.428679
      vertex 0.0249996 0.294894 0.606487
    endloop
  endfacet
  facet normal 0.866023 -0.286791 0.409579
    outer loop
      vertex 0.0249996 0.0409578 0.428679
      vertex 0.0243417 0.294241 0.607421
      vertex 0.0141445 0.0301735 0.44408
    endloop
  endfacet
  facet normal 0 0 -1
    outer loop
      vertex -0.0124998 0.0124178 0.382264
      vertex 0.0124998 0.0124179 0.382264
      vertex 0.0124998 0.0124178 0.382264
    endloop
  endfacet
  facet normal -0 0 -1
    outer loop
      vertex 0.0124998 0.0124179 0.382264
      vertex -0.0124998 0.0124178 0.382264
      vertex -0.0124998 0.0124179 0.382264
    endloop
  endfacet
  facet normal 0 0.573575 -0.819153
    outer loop
      vertex -0.0124998 0.0533761 0.410944
      vertex 0.0124998 0.307313 0.588752
      vertex 0.0124998 0.0533761 0.410944
    endloop
  endfacet
  facet normal 0 0.573575 -0.819153
    outer loop
      vertex 0.0124998 0.307313 0.588752
      vertex -0.0124998 0.0533761 0.410944
      vertex -0.0124998 0.307313 0.588752
    endloop
  endfacet
  facet normal 0.817377 0 -0.576103
    outer loop
      vertex 0.0160394 0.0089014 0.387286
      vertex 0.0124998 0.0124178 0.382264
      vertex 0.0124998 0.0124179 0.382264
    endloop
  endfacet
  facet normal 0.866032 0.286781 -0.409568
    outer loop
      vertex 0.0249996 0.294894 0.606487
      vertex 0.0124998 0.0533761 0.410944
      vertex 0.0124998 0.307313 0.588752
    endloop
  endfacet
  facet normal 0.866028 0.286786 -0.409573
    outer loop
      vertex 0.0124998 0.0533761 0.410944
      vertex 0.0249996 0.294894 0.606487
      vertex 0.0249996 0.0409578 0.428679
    endloop
  endfacet
  facet normal -0.817377 0 -0.576103
    outer loop
      vertex -0.0124998 0.0124178 0.382264
      vertex -0.0160394 0.0089014 0.387286
      vertex -0.0124998 0.0124179 0.382264
    endloop
  endfacet
  facet normal -0.866032 0.286781 -0.409568
    outer loop
      vertex -0.0124998 0.0533761 0.410944
      vertex -0.0249996 0.294894 0.606487
      vertex -0.0124998 0.307313 0.588752
    endloop
  endfacet
  facet normal -0.866028 0.286786 -0.409573
    outer loop
      vertex -0.0249996 0.294894 0.606487
      vertex -0.0124998 0.0533761 0.410944
      vertex -0.0249996 0.0409578 0.428679
    endloop
  endfacet
  facet normal -0.866025 -0.286789 0.409577
    outer loop
      vertex -0.0141445 0.0301735 0.44408
      vertex -0.0124998 0.282476 0.624222
      vertex -0.0243417 0.294241 0.607421
    endloop
  endfacet
  facet normal -0.866053 -0.286761 0.409537
    outer loop
      vertex -0.0124998 0.282476 0.624222
      vertex -0.0141445 0.0301735 0.44408
      vertex -0.0124998 0.0285396 0.446414
    endloop
  endfacet
  facet normal -0.866048 -0.286766 0.409544
    outer loop
      vertex -0.0249996 0.0409578 0.428679
      vertex -0.0243417 0.294241 0.607421
      vertex -0.0249996 0.294894 0.606487
    endloop
  endfacet
  facet normal -0.866023 -0.286791 0.409579
    outer loop
      vertex -0.0243417 0.294241 0.607421
      vertex -0.0249996 0.0409578 0.428679
      vertex -0.0141445 0.0301735 0.44408
    endloop
  endfacet
  facet normal 0 -0.819155 -0.573572
    outer loop
      vertex -0.0124998 0.0124178 0.382264
      vertex 0.0160394 0.0089014 0.387286
      vertex -0.0160394 0.0089014 0.387286
    endloop
  endfacet
  facet normal 0 -0.819155 -0.573572
    outer loop
      vertex 0.0160394 0.0089014 0.387286
      vertex -0.0124998 0.0124178 0.382264
      vertex 0.0124998 0.0124178 0.382264
    endloop
  endfacet
  facet normal 0 -0.573576 0.819152
    outer loop
      vertex -0.0124998 0.282476 0.624222
      vertex 0.0124998 0.0285396 0.446414
      vertex 0.0124998 0.282476 0.624222
    endloop
  endfacet
  facet normal 0 -0.573576 0.819152
    outer loop
      vertex 0.0124998 0.0285396 0.446414
      vertex -0.0124998 0.282476 0.624222
      vertex -0.0124998 0.0285396 0.446414
    endloop
  endfacet
  facet normal 0.866025 -0.286789 0.409577
    outer loop
      vertex 0.0124998 0.282476 0.624222
      vertex 0.0141445 0.0301735 0.44408
      vertex 0.0243417 0.294241 0.607421
    endloop
  endfacet
  facet normal 0.866053 -0.286761 0.409537
    outer loop
      vertex 0.0141445 0.0301735 0.44408
      vertex 0.0124998 0.282476 0.624222
      vertex 0.0124998 0.0285396 0.446414
    endloop
  endfacet
  facet normal 0.866027 0.286784 -0.409576
    outer loop
      vertex 0.0599995 0.344044 0.640902
      vertex 0.0299997 0.324698 0.563923
      vertex 0.0299997 0.373847 0.598337
    endloop
  endfacet
  facet normal -0.866026 -0.286787 0.409576
    outer loop
      vertex -0.0599995 0.294894 0.606487
      vertex -0.0299997 0.31424 0.683466
      vertex -0.0599995 0.344044 0.640902
    endloop
  endfacet
  facet normal -0.866029 -0.286778 0.409575
    outer loop
      vertex -0.0299997 0.31424 0.683466
      vertex -0.0599995 0.294894 0.606487
      vertex -0.0299997 0.26509 0.649052
    endloop
  endfacet
  facet normal 0.866026 -0.286787 0.409576
    outer loop
      vertex 0.0299997 0.31424 0.683466
      vertex 0.0599995 0.294894 0.606487
      vertex 0.0599995 0.344044 0.640902
    endloop
  endfacet
  facet normal 0.866029 -0.286778 0.409575
    outer loop
      vertex 0.0599995 0.294894 0.606487
      vertex 0.0299997 0.31424 0.683466
      vertex 0.0299997 0.26509 0.649052
    endloop
  endfacet
  facet normal 0.866026 0.286787 -0.409576
    outer loop
      vertex 0.0599995 0.294894 0.606487
      vertex 0.0299997 0.324698 0.563923
      vertex 0.0599995 0.344044 0.640902
    endloop
  endfacet
  facet normal 0 0.819164 0.573559
    outer loop
      vertex 0.0299997 0.373847 0.598337
      vertex -0.0599995 0.344044 0.640902
      vertex 0.0599995 0.344044 0.640902
    endloop
  endfacet
  facet normal 0 0.819164 0.573559
    outer loop
      vertex -0.0599995 0.344044 0.640902
      vertex 0.0299997 0.373847 0.598337
      vertex -0.0299997 0.373847 0.598337
    endloop
  endfacet
  facet normal 0 -0.573563 0.819161
    outer loop
      vertex -0.0299997 0.31424 0.683466
      vertex 0.0299997 0.26509 0.649052
      vertex 0.0299997 0.31424 0.683466
    endloop
  endfacet
  facet normal 0 -0.573563 0.819161
    outer loop
      vertex 0.0299997 0.26509 0.649052
      vertex -0.0299997 0.31424 0.683466
      vertex -0.0299997 0.26509 0.649052
    endloop
  endfacet
  facet normal 0 0.573571 -0.819156
    outer loop
      vertex -0.0299997 0.324698 0.563923
      vertex 0.0299997 0.373847 0.598337
      vertex 0.0299997 0.324698 0.563923
    endloop
  endfacet
  facet normal 0 0.573571 -0.819156
    outer loop
      vertex 0.0299997 0.373847 0.598337
      vertex -0.0299997 0.324698 0.563923
      vertex -0.0299997 0.373847 0.598337
    endloop
  endfacet
  facet normal -0.866027 0.286784 -0.409576
    outer loop
      vertex -0.0299997 0.324698 0.563923
      vertex -0.0599995 0.344044 0.640902
      vertex -0.0299997 0.373847 0.598337
    endloop
  endfacet
  facet normal 0 0.819149 0.573581
    outer loop
      vertex 0.0599995 0.344044 0.640902
      vertex -0.0299997 0.31424 0.683466
      vertex 0.0299997 0.31424 0.683466
    endloop
  endfacet
  facet normal 0 0.819149 0.573581
    outer loop
      vertex -0.0299997 0.31424 0.683466
      vertex 0.0599995 0.344044 0.640902
      vertex -0.0599995 0.344044 0.640902
    endloop
  endfacet
  facet normal -0.866026 0.286787 -0.409576
    outer loop
      vertex -0.0299997 0.324698 0.563923
      vertex -0.0599995 0.294894 0.606487
      vertex -0.0599995 0.344044 0.640902
    endloop
  endfacet
  facet normal 0 -0.819154 -0.573573
    outer loop
      vertex -0.0299997 0.26509 0.649052
      vertex -0.0124998 0.282476 0.624222
      vertex 0.0299997 0.26509 0.649052
    endloop
  endfacet
  facet normal -3.17099e-05 -0.819144 -0.573588
    outer loop
      vertex -0.0299997 0.26509 0.649052
      vertex -0.0243417 0.294241 0.607421
      vertex -0.0124998 0.282476 0.624222
    endloop
  endfacet
  facet normal 2.30889e-05 -0.819147 -0.573583
    outer loop
      vertex -0.0599995 0.294894 0.606487
      vertex -0.0243417 0.294241 0.607421
      vertex -0.0299997 0.26509 0.649052
    endloop
  endfacet
  facet normal 0 -0.819562 -0.572991
    outer loop
      vertex -0.0243417 0.294241 0.607421
      vertex -0.0599995 0.294894 0.606487
      vertex -0.0249996 0.294894 0.606487
    endloop
  endfacet
  facet normal 0 -0.819149 -0.573581
    outer loop
      vertex -0.0299997 0.324698 0.563923
      vertex -0.0249996 0.294894 0.606487
      vertex -0.0599995 0.294894 0.606487
    endloop
  endfacet
  facet normal 0 -0.819159 -0.573566
    outer loop
      vertex -0.0124998 0.307313 0.588752
      vertex -0.0299997 0.324698 0.563923
      vertex 0.0124998 0.307313 0.588752
    endloop
  endfacet
  facet normal 3.74471e-05 -0.819147 -0.573584
    outer loop
      vertex -0.0249996 0.294894 0.606487
      vertex -0.0299997 0.324698 0.563923
      vertex -0.0124998 0.307313 0.588752
    endloop
  endfacet
  facet normal -0 -0.819154 -0.573573
    outer loop
      vertex 0.0124998 0.282476 0.624222
      vertex 0.0299997 0.26509 0.649052
      vertex -0.0124998 0.282476 0.624222
    endloop
  endfacet
  facet normal 3.17099e-05 -0.819144 -0.573588
    outer loop
      vertex 0.0243417 0.294241 0.607421
      vertex 0.0299997 0.26509 0.649052
      vertex 0.0124998 0.282476 0.624222
    endloop
  endfacet
  facet normal -0 -0.819562 -0.572991
    outer loop
      vertex 0.0599995 0.294894 0.606487
      vertex 0.0243417 0.294241 0.607421
      vertex 0.0249996 0.294894 0.606487
    endloop
  endfacet
  facet normal -2.30889e-05 -0.819147 -0.573583
    outer loop
      vertex 0.0243417 0.294241 0.607421
      vertex 0.0599995 0.294894 0.606487
      vertex 0.0299997 0.26509 0.649052
    endloop
  endfacet
  facet normal -3.74471e-05 -0.819147 -0.573584
    outer loop
      vertex 0.0299997 0.324698 0.563923
      vertex 0.0249996 0.294894 0.606487
      vertex 0.0124998 0.307313 0.588752
    endloop
  endfacet
  facet normal -0 -0.819159 -0.573566
    outer loop
      vertex 0.0299997 0.324698 0.563923
      vertex 0.0124998 0.307313 0.588752
      vertex -0.0299997 0.324698 0.563923
    endloop
  endfacet
  facet normal 0 -0.819149 -0.573581
    outer loop
      vertex 0.0249996 0.294894 0.606487
      vertex 0.0299997 0.324698 0.563923
      vertex 0.0599995 0.294894 0.606487
    endloop
  endfacet
endsolid OpenSCAD_Model
