solid OpenSCAD_Model
  facet normal 1 0 0
    outer loop
      vertex -0.349999 -0.95 0.44
      vertex -0.349999 -1.1 0.44
      vertex -0.349999 -0.95 0.25
    endloop
  endfacet
  facet normal 1 0 0
    outer loop
      vertex -0.349999 0.95 0.25
      vertex -0.349999 1.1 0.409514
      vertex -0.349999 1.05646 0.44
    endloop
  endfacet
  facet normal 1 0 0
    outer loop
      vertex -0.349999 0.95 0.25
      vertex -0.349999 1.05646 0.44
      vertex -0.349999 0.95 0.44
    endloop
  endfacet
  facet normal 1 0 0
    outer loop
      vertex -0.349999 1.1 0.409514
      vertex -0.349999 0.95 0.25
      vertex -0.349999 1.1 0
    endloop
  endfacet
  facet normal 1 -0 0
    outer loop
      vertex -0.349999 -0.95 0.25
      vertex -0.349999 1.1 0
      vertex -0.349999 0.95 0.25
    endloop
  endfacet
  facet normal 1 0 0
    outer loop
      vertex -0.349999 -0.95 0.25
      vertex -0.349999 -1.1 0
      vertex -0.349999 1.1 0
    endloop
  endfacet
  facet normal 1 0 0
    outer loop
      vertex -0.349999 -1.1 0
      vertex -0.349999 -0.95 0.25
      vertex -0.349999 -1.1 0.44
    endloop
  endfacet
  facet normal -0 0 1
    outer loop
      vertex -0.75 1.1 0.44
      vertex -0.65 1.05646 0.44
      vertex -0.65 1.1 0.44
    endloop
  endfacet
  facet normal 0 0 1
    outer loop
      vertex -0.65 1.05646 0.44
      vertex -0.75 1.1 0.44
      vertex -0.65 0.95 0.44
    endloop
  endfacet
  facet normal 0 0 1
    outer loop
      vertex -0.65 0.95 0.44
      vertex -0.75 1.1 0.44
      vertex -0.65 -0.95 0.44
    endloop
  endfacet
  facet normal -0 0 1
    outer loop
      vertex -0.65 1.05646 0.44
      vertex -0.349999 0.95 0.44
      vertex -0.349999 1.05646 0.44
    endloop
  endfacet
  facet normal 0 0 1
    outer loop
      vertex -0.349999 0.95 0.44
      vertex -0.65 1.05646 0.44
      vertex -0.65 0.95 0.44
    endloop
  endfacet
  facet normal -0 0 1
    outer loop
      vertex -0.65 -0.95 0.44
      vertex -0.349999 -1.1 0.44
      vertex -0.349999 -0.95 0.44
    endloop
  endfacet
  facet normal 0 0 1
    outer loop
      vertex -0.65 -0.95 0.44
      vertex -0.75 -1.1 0.44
      vertex -0.349999 -1.1 0.44
    endloop
  endfacet
  facet normal 0 0 1
    outer loop
      vertex -0.75 -1.1 0.44
      vertex -0.65 -0.95 0.44
      vertex -0.75 1.1 0.44
    endloop
  endfacet
  facet normal 0 0 -1
    outer loop
      vertex -0.75 -1.1 0
      vertex -0.349999 1.1 0
      vertex -0.349999 -1.1 0
    endloop
  endfacet
  facet normal -0 0 -1
    outer loop
      vertex -0.349999 1.1 0
      vertex -0.75 -1.1 0
      vertex -0.75 1.1 0
    endloop
  endfacet
  facet normal -1 0 0
    outer loop
      vertex -0.75 -1.1 0
      vertex -0.75 1.1 0.44
      vertex -0.75 1.1 0
    endloop
  endfacet
  facet normal -1 -0 0
    outer loop
      vertex -0.75 1.1 0.44
      vertex -0.75 -1.1 0
      vertex -0.75 -1.1 0.44
    endloop
  endfacet
  facet normal 0 1 0
    outer loop
      vertex -0.349999 1.1 0.409514
      vertex -0.349999 1.1 0
      vertex -0.65 1.1 0.409514
    endloop
  endfacet
  facet normal 0 1 -0
    outer loop
      vertex -0.65 1.1 0.409514
      vertex -0.75 1.1 0.44
      vertex -0.65 1.1 0.44
    endloop
  endfacet
  facet normal 0 1 0
    outer loop
      vertex -0.75 1.1 0
      vertex -0.65 1.1 0.409514
      vertex -0.349999 1.1 0
    endloop
  endfacet
  facet normal 0 1 0
    outer loop
      vertex -0.65 1.1 0.409514
      vertex -0.75 1.1 0
      vertex -0.75 1.1 0.44
    endloop
  endfacet
  facet normal 0 -1 0
    outer loop
      vertex -0.75 -1.1 0
      vertex -0.349999 -1.1 0.44
      vertex -0.75 -1.1 0.44
    endloop
  endfacet
  facet normal 0 -1 -0
    outer loop
      vertex -0.349999 -1.1 0.44
      vertex -0.75 -1.1 0
      vertex -0.349999 -1.1 0
    endloop
  endfacet
  facet normal 1 -0 0
    outer loop
      vertex 0.75 -1.1 0.44
      vertex 0.75 1.1 0
      vertex 0.75 1.1 0.44
    endloop
  endfacet
  facet normal 1 0 0
    outer loop
      vertex 0.75 1.1 0
      vertex 0.75 -1.1 0.44
      vertex 0.75 -1.1 0
    endloop
  endfacet
  facet normal -0 0 1
    outer loop
      vertex 0.349999 1.05646 0.44
      vertex 0.65 0.95 0.44
      vertex 0.65 1.05646 0.44
    endloop
  endfacet
  facet normal 0 0 1
    outer loop
      vertex 0.65 0.95 0.44
      vertex 0.349999 1.05646 0.44
      vertex 0.349999 0.95 0.44
    endloop
  endfacet
  facet normal 0 0 1
    outer loop
      vertex 0.65 1.05646 0.44
      vertex 0.75 1.1 0.44
      vertex 0.65 1.1 0.44
    endloop
  endfacet
  facet normal 0 0 1
    outer loop
      vertex 0.65 0.95 0.44
      vertex 0.75 1.1 0.44
      vertex 0.65 1.05646 0.44
    endloop
  endfacet
  facet normal 0 0 1
    outer loop
      vertex 0.75 1.1 0.44
      vertex 0.65 0.95 0.44
      vertex 0.75 -1.1 0.44
    endloop
  endfacet
  facet normal -0 0 1
    outer loop
      vertex 0.65 -0.95 0.44
      vertex 0.75 -1.1 0.44
      vertex 0.65 0.95 0.44
    endloop
  endfacet
  facet normal 0 0 1
    outer loop
      vertex 0.349999 -1.1 0.44
      vertex 0.65 -0.95 0.44
      vertex 0.349999 -0.95 0.44
    endloop
  endfacet
  facet normal 0 0 1
    outer loop
      vertex 0.65 -0.95 0.44
      vertex 0.349999 -1.1 0.44
      vertex 0.75 -1.1 0.44
    endloop
  endfacet
  facet normal 0 0 -1
    outer loop
      vertex 0.349999 -1.1 0
      vertex 0.75 1.1 0
      vertex 0.75 -1.1 0
    endloop
  endfacet
  facet normal -0 0 -1
    outer loop
      vertex 0.75 1.1 0
      vertex 0.349999 -1.1 0
      vertex 0.349999 1.1 0
    endloop
  endfacet
  facet normal -1 0 0
    outer loop
      vertex 0.349999 0.95 0.25
      vertex 0.349999 1.1 0.409514
      vertex 0.349999 1.1 0
    endloop
  endfacet
  facet normal -1 -0 0
    outer loop
      vertex 0.349999 1.1 0.409514
      vertex 0.349999 0.95 0.25
      vertex 0.349999 1.05646 0.44
    endloop
  endfacet
  facet normal -1 0 0
    outer loop
      vertex 0.349999 1.1 0
      vertex 0.349999 -0.95 0.25
      vertex 0.349999 0.95 0.25
    endloop
  endfacet
  facet normal -1 0 0
    outer loop
      vertex 0.349999 -1.1 0
      vertex 0.349999 -0.95 0.25
      vertex 0.349999 1.1 0
    endloop
  endfacet
  facet normal -1 0 0
    outer loop
      vertex 0.349999 -1.1 0.44
      vertex 0.349999 -0.95 0.25
      vertex 0.349999 -1.1 0
    endloop
  endfacet
  facet normal -1 0 0
    outer loop
      vertex 0.349999 -0.95 0.25
      vertex 0.349999 -1.1 0.44
      vertex 0.349999 -0.95 0.44
    endloop
  endfacet
  facet normal -1 -0 0
    outer loop
      vertex 0.349999 1.05646 0.44
      vertex 0.349999 0.95 0.25
      vertex 0.349999 0.95 0.44
    endloop
  endfacet
  facet normal 0 1 0
    outer loop
      vertex 0.75 1.1 0.44
      vertex 0.65 1.1 0.409514
      vertex 0.65 1.1 0.44
    endloop
  endfacet
  facet normal 0 1 -0
    outer loop
      vertex 0.75 1.1 0
      vertex 0.65 1.1 0.409514
      vertex 0.75 1.1 0.44
    endloop
  endfacet
  facet normal 0 1 0
    outer loop
      vertex 0.349999 1.1 0
      vertex 0.65 1.1 0.409514
      vertex 0.75 1.1 0
    endloop
  endfacet
  facet normal 0 1 0
    outer loop
      vertex 0.65 1.1 0.409514
      vertex 0.349999 1.1 0
      vertex 0.349999 1.1 0.409514
    endloop
  endfacet
  facet normal 0 -1 0
    outer loop
      vertex 0.349999 -1.1 0
      vertex 0.75 -1.1 0.44
      vertex 0.349999 -1.1 0.44
    endloop
  endfacet
  facet normal 0 -1 -0
    outer loop
      vertex 0.75 -1.1 0.44
      vertex 0.349999 -1.1 0
      vertex 0.75 -1.1 0
    endloop
  endfacet
  facet normal 1 -0 0
    outer loop
      vertex 0.65 0.857818 0.75
      vertex 0.65 0.95 0.685454
      vertex 0.65 0.95 0.75
    endloop
  endfacet
  facet normal 1 0 0
    outer loop
      vertex 0.65 0.95 0.685454
      vertex 0.65 0.857818 0.75
      vertex 0.65 0.95 0.514545
    endloop
  endfacet
  facet normal 1 -0 0
    outer loop
      vertex 0.65 0.719318 0.75
      vertex 0.65 0.95 0.514545
      vertex 0.65 0.857818 0.75
    endloop
  endfacet
  facet normal 1 0 0
    outer loop
      vertex 0.65 0.719318 0.75
      vertex 0.65 0.857818 0.75
      vertex 0.65 0.764883 0.815074
    endloop
  endfacet
  facet normal 1 0 0
    outer loop
      vertex 0.65 0.95 0.514545
      vertex 0.65 0.719318 0.75
      vertex 0.65 0.95 0.44
    endloop
  endfacet
  facet normal 1 0 0
    outer loop
      vertex 0.65 -0.95 0.44
      vertex 0.65 0.719318 0.75
      vertex 0.65 -0.95 0.75
    endloop
  endfacet
  facet normal 1 0 0
    outer loop
      vertex 0.65 0.719318 0.75
      vertex 0.65 -0.95 0.44
      vertex 0.65 0.95 0.44
    endloop
  endfacet
  facet normal 1 0 0
    outer loop
      vertex 0.65 1.21542 0.499607
      vertex 0.65 1.1 0.44
      vertex 0.65 1.13512 0.384925
    endloop
  endfacet
  facet normal 1 0 0
    outer loop
      vertex 0.65 0.95 0.685454
      vertex 0.65 1.1 0.44
      vertex 0.65 1.21542 0.499607
    endloop
  endfacet
  facet normal 1 -0 0
    outer loop
      vertex 0.65 0.95 0.514545
      vertex 0.65 1.1 0.44
      vertex 0.65 0.95 0.685454
    endloop
  endfacet
  facet normal 1 0 0
    outer loop
      vertex 0.65 1.1 0.44
      vertex 0.65 0.95 0.514545
      vertex 0.65 1.05646 0.44
    endloop
  endfacet
  facet normal 1 0 0
    outer loop
      vertex 0.65 1.13512 0.384925
      vertex 0.65 1.1 0.44
      vertex 0.65 1.1 0.409514
    endloop
  endfacet
  facet normal 0 0 1
    outer loop
      vertex 0.65 0.719318 0.75
      vertex 0.45 -0.7 0.75
      vertex 0.65 -0.95 0.75
    endloop
  endfacet
  facet normal 0 0 1
    outer loop
      vertex 0.65 0.719318 0.75
      vertex -0.45 -0.7 0.75
      vertex 0.45 -0.7 0.75
    endloop
  endfacet
  facet normal -0 0 1
    outer loop
      vertex -0.65 0.719318 0.75
      vertex -0.45 -0.7 0.75
      vertex 0.65 0.719318 0.75
    endloop
  endfacet
  facet normal 0 0 1
    outer loop
      vertex -0.65 -0.95 0.75
      vertex -0.45 -0.7 0.75
      vertex -0.65 0.719318 0.75
    endloop
  endfacet
  facet normal 0 0 1
    outer loop
      vertex -0.45 -0.7 0.75
      vertex -0.65 -0.95 0.75
      vertex -0.45 -0.95 0.75
    endloop
  endfacet
  facet normal 0 0 1
    outer loop
      vertex 0.65 -0.95 0.75
      vertex 0.45 -0.7 0.75
      vertex 0.45 -0.95 0.75
    endloop
  endfacet
  facet normal 0 0 -1
    outer loop
      vertex -0.45 -1 0.75
      vertex 0.45 -0.95 0.75
      vertex 0.45 -1 0.75
    endloop
  endfacet
  facet normal -0 0 -1
    outer loop
      vertex 0.45 -0.95 0.75
      vertex -0.45 -1 0.75
      vertex -0.45 -0.95 0.75
    endloop
  endfacet
  facet normal -0 0 1
    outer loop
      vertex -0.65 0.95 0.75
      vertex 0.65 0.857818 0.75
      vertex 0.65 0.95 0.75
    endloop
  endfacet
  facet normal 0 0 1
    outer loop
      vertex 0.65 0.857818 0.75
      vertex -0.65 0.95 0.75
      vertex -0.65 0.857818 0.75
    endloop
  endfacet
  facet normal 0 0 -1
    outer loop
      vertex -0.349999 -0.95 0.25
      vertex 0.349999 0.95 0.25
      vertex 0.349999 -0.95 0.25
    endloop
  endfacet
  facet normal -0 0 -1
    outer loop
      vertex 0.349999 0.95 0.25
      vertex -0.349999 -0.95 0.25
      vertex -0.349999 0.95 0.25
    endloop
  endfacet
  facet normal -1 0 0
    outer loop
      vertex -0.65 0.719318 0.75
      vertex -0.65 0.95 0.514545
      vertex -0.65 0.95 0.44
    endloop
  endfacet
  facet normal -1 0 0
    outer loop
      vertex -0.65 0.95 0.514545
      vertex -0.65 0.857818 0.75
      vertex -0.65 0.95 0.685454
    endloop
  endfacet
  facet normal -1 0 0
    outer loop
      vertex -0.65 0.95 0.685454
      vertex -0.65 0.857818 0.75
      vertex -0.65 0.95 0.75
    endloop
  endfacet
  facet normal -1 0 0
    outer loop
      vertex -0.65 0.95 0.514545
      vertex -0.65 0.719318 0.75
      vertex -0.65 0.857818 0.75
    endloop
  endfacet
  facet normal -1 0 0
    outer loop
      vertex -0.65 0.857818 0.75
      vertex -0.65 0.719318 0.75
      vertex -0.65 0.764883 0.815074
    endloop
  endfacet
  facet normal -1 0 0
    outer loop
      vertex -0.65 -0.95 0.44
      vertex -0.65 0.719318 0.75
      vertex -0.65 0.95 0.44
    endloop
  endfacet
  facet normal -1 -0 0
    outer loop
      vertex -0.65 0.719318 0.75
      vertex -0.65 -0.95 0.44
      vertex -0.65 -0.95 0.75
    endloop
  endfacet
  facet normal -1 0 0
    outer loop
      vertex -0.65 1.1 0.44
      vertex -0.65 1.13512 0.384925
      vertex -0.65 1.1 0.409514
    endloop
  endfacet
  facet normal -1 0 0
    outer loop
      vertex -0.65 1.13512 0.384925
      vertex -0.65 1.1 0.44
      vertex -0.65 1.21542 0.499607
    endloop
  endfacet
  facet normal -1 0 0
    outer loop
      vertex -0.65 0.95 0.514545
      vertex -0.65 1.1 0.44
      vertex -0.65 1.05646 0.44
    endloop
  endfacet
  facet normal -1 0 0
    outer loop
      vertex -0.65 0.95 0.685454
      vertex -0.65 1.1 0.44
      vertex -0.65 0.95 0.514545
    endloop
  endfacet
  facet normal -1 0 0
    outer loop
      vertex -0.65 1.1 0.44
      vertex -0.65 0.95 0.685454
      vertex -0.65 1.21542 0.499607
    endloop
  endfacet
  facet normal 0 1 -0
    outer loop
      vertex 0.65 0.95 0.685454
      vertex -0.65 0.95 0.75
      vertex 0.65 0.95 0.75
    endloop
  endfacet
  facet normal 0 1 0
    outer loop
      vertex -0.65 0.95 0.75
      vertex 0.65 0.95 0.685454
      vertex -0.65 0.95 0.685454
    endloop
  endfacet
  facet normal 0 1 -0
    outer loop
      vertex 0.349999 0.95 0.25
      vertex -0.349999 0.95 0.44
      vertex 0.349999 0.95 0.44
    endloop
  endfacet
  facet normal 0 1 0
    outer loop
      vertex -0.349999 0.95 0.44
      vertex 0.349999 0.95 0.25
      vertex -0.349999 0.95 0.25
    endloop
  endfacet
  facet normal 0 1 0
    outer loop
      vertex 0.349999 0.95 0.44
      vertex 0.65 0.95 0.514545
      vertex 0.65 0.95 0.44
    endloop
  endfacet
  facet normal 0 1 0
    outer loop
      vertex 0.65 0.95 0.514545
      vertex 0.349999 0.95 0.44
      vertex -0.65 0.95 0.514545
    endloop
  endfacet
  facet normal 0 1 -0
    outer loop
      vertex -0.349999 0.95 0.44
      vertex -0.65 0.95 0.514545
      vertex 0.349999 0.95 0.44
    endloop
  endfacet
  facet normal 0 1 0
    outer loop
      vertex -0.65 0.95 0.514545
      vertex -0.349999 0.95 0.44
      vertex -0.65 0.95 0.44
    endloop
  endfacet
  facet normal 0 -1 0
    outer loop
      vertex -0.349999 -0.95 0.25
      vertex 0.349999 -0.95 0.44
      vertex -0.349999 -0.95 0.44
    endloop
  endfacet
  facet normal 0 -1 -0
    outer loop
      vertex 0.349999 -0.95 0.44
      vertex -0.349999 -0.95 0.25
      vertex 0.349999 -0.95 0.25
    endloop
  endfacet
  facet normal 0 -1 0
    outer loop
      vertex -0.65 -0.95 0.44
      vertex -0.45 -0.95 0.75
      vertex -0.65 -0.95 0.75
    endloop
  endfacet
  facet normal 0 -1 0
    outer loop
      vertex -0.45 -0.95 0.75
      vertex -0.349999 -0.95 0.44
      vertex 0.45 -0.95 0.75
    endloop
  endfacet
  facet normal 0 -1 -0
    outer loop
      vertex -0.45 -0.95 0.75
      vertex -0.65 -0.95 0.44
      vertex -0.349999 -0.95 0.44
    endloop
  endfacet
  facet normal 0 -1 0
    outer loop
      vertex 0.349999 -0.95 0.44
      vertex 0.45 -0.95 0.75
      vertex -0.349999 -0.95 0.44
    endloop
  endfacet
  facet normal 0 -1 0
    outer loop
      vertex 0.65 -0.95 0.44
      vertex 0.45 -0.95 0.75
      vertex 0.349999 -0.95 0.44
    endloop
  endfacet
  facet normal 0 -1 0
    outer loop
      vertex 0.45 -0.95 0.75
      vertex 0.65 -0.95 0.44
      vertex 0.65 -0.95 0.75
    endloop
  endfacet
  facet normal -0 0.573572 0.819155
    outer loop
      vertex -0.65 1.21542 0.499607
      vertex 0.65 0.95 0.685454
      vertex 0.65 1.21542 0.499607
    endloop
  endfacet
  facet normal 0 0.573572 0.819155
    outer loop
      vertex 0.65 0.95 0.685454
      vertex -0.65 1.21542 0.499607
      vertex -0.65 0.95 0.685454
    endloop
  endfacet
  facet normal -0 0.573578 0.819151
    outer loop
      vertex -0.65 0.857818 0.75
      vertex 0.65 0.764883 0.815074
      vertex 0.65 0.857818 0.75
    endloop
  endfacet
  facet normal 0 0.573578 0.819151
    outer loop
      vertex 0.65 0.764883 0.815074
      vertex -0.65 0.857818 0.75
      vertex -0.65 0.764883 0.815074
    endloop
  endfacet
  facet normal 0 -0.573581 -0.819149
    outer loop
      vertex 0.65 0.95 0.514545
      vertex 0.349999 1.05646 0.44
      vertex 0.65 1.05646 0.44
    endloop
  endfacet
  facet normal -0 -0.573563 -0.819161
    outer loop
      vertex 0.349999 1.05646 0.44
      vertex -0.349999 1.05646 0.44
      vertex 0.349999 1.1 0.409514
    endloop
  endfacet
  facet normal 0 -0.573581 -0.819149
    outer loop
      vertex 0.65 0.95 0.514545
      vertex -0.349999 1.05646 0.44
      vertex 0.349999 1.05646 0.44
    endloop
  endfacet
  facet normal 0 -0.573581 -0.819149
    outer loop
      vertex -0.65 0.95 0.514545
      vertex -0.349999 1.05646 0.44
      vertex 0.65 0.95 0.514545
    endloop
  endfacet
  facet normal -0 -0.573581 -0.819149
    outer loop
      vertex -0.349999 1.05646 0.44
      vertex -0.65 0.95 0.514545
      vertex -0.65 1.05646 0.44
    endloop
  endfacet
  facet normal 0 -0.573541 -0.819177
    outer loop
      vertex 0.349999 1.1 0.409514
      vertex 0.65 1.13512 0.384925
      vertex 0.65 1.1 0.409514
    endloop
  endfacet
  facet normal 0 -0.573563 -0.819161
    outer loop
      vertex -0.349999 1.1 0.409514
      vertex 0.349999 1.1 0.409514
      vertex -0.349999 1.05646 0.44
    endloop
  endfacet
  facet normal -0 -0.573541 -0.819177
    outer loop
      vertex 0.349999 1.1 0.409514
      vertex -0.349999 1.1 0.409514
      vertex 0.65 1.13512 0.384925
    endloop
  endfacet
  facet normal 0 -0.573541 -0.819177
    outer loop
      vertex -0.65 1.13512 0.384925
      vertex -0.349999 1.1 0.409514
      vertex -0.65 1.1 0.409514
    endloop
  endfacet
  facet normal 0 -0.573541 -0.819177
    outer loop
      vertex -0.349999 1.1 0.409514
      vertex -0.65 1.13512 0.384925
      vertex 0.65 1.13512 0.384925
    endloop
  endfacet
  facet normal 0 0.819156 -0.573571
    outer loop
      vertex 0.65 1.13512 0.384925
      vertex -0.65 1.21542 0.499607
      vertex 0.65 1.21542 0.499607
    endloop
  endfacet
  facet normal 0 0.819156 -0.573571
    outer loop
      vertex -0.65 1.21542 0.499607
      vertex 0.65 1.13512 0.384925
      vertex -0.65 1.13512 0.384925
    endloop
  endfacet
  facet normal 0 -0.819154 0.573574
    outer loop
      vertex -0.65 0.719318 0.75
      vertex 0.65 0.764883 0.815074
      vertex -0.65 0.764883 0.815074
    endloop
  endfacet
  facet normal 0 -0.819154 0.573574
    outer loop
      vertex 0.65 0.764883 0.815074
      vertex -0.65 0.719318 0.75
      vertex 0.65 0.719318 0.75
    endloop
  endfacet
  facet normal 1 0 0
    outer loop
      vertex 0.45 -0.879999 0.799999
      vertex 0.45 -0.7 0.849999
      vertex 0.45 -0.879999 0.849999
    endloop
  endfacet
  facet normal 1 0 0
    outer loop
      vertex 0.45 -0.7 0.849999
      vertex 0.45 -0.879999 0.799999
      vertex 0.45 -0.7 0.75
    endloop
  endfacet
  facet normal 1 0 0
    outer loop
      vertex 0.45 -0.879999 0.799999
      vertex 0.45 -0.95 0.75
      vertex 0.45 -0.7 0.75
    endloop
  endfacet
  facet normal 1 -0 0
    outer loop
      vertex 0.45 -1 0.799999
      vertex 0.45 -0.95 0.75
      vertex 0.45 -0.879999 0.799999
    endloop
  endfacet
  facet normal 1 0 0
    outer loop
      vertex 0.45 -0.95 0.75
      vertex 0.45 -1 0.799999
      vertex 0.45 -1 0.75
    endloop
  endfacet
  facet normal 0 0 1
    outer loop
      vertex 0.45 -0.7 0.849999
      vertex 0.429999 -0.879999 0.849999
      vertex 0.45 -0.879999 0.849999
    endloop
  endfacet
  facet normal 0 0 1
    outer loop
      vertex 0.429999 -0.879999 0.849999
      vertex -0.429999 -0.879999 0.849999
      vertex 0.429999 -1 0.849999
    endloop
  endfacet
  facet normal 0 0 1
    outer loop
      vertex 0.45 -0.7 0.849999
      vertex -0.429999 -0.879999 0.849999
      vertex 0.429999 -0.879999 0.849999
    endloop
  endfacet
  facet normal -0 0 1
    outer loop
      vertex -0.45 -0.7 0.849999
      vertex -0.429999 -0.879999 0.849999
      vertex 0.45 -0.7 0.849999
    endloop
  endfacet
  facet normal 0 0 1
    outer loop
      vertex -0.429999 -0.879999 0.849999
      vertex -0.45 -0.7 0.849999
      vertex -0.45 -0.879999 0.849999
    endloop
  endfacet
  facet normal 0 0 1
    outer loop
      vertex 0.429999 -1 0.849999
      vertex -0.429999 -0.879999 0.849999
      vertex -0.429999 -1 0.849999
    endloop
  endfacet
  facet normal -1 0 0
    outer loop
      vertex -0.45 -0.7 0.75
      vertex -0.45 -0.879999 0.799999
      vertex -0.45 -0.7 0.849999
    endloop
  endfacet
  facet normal -1 0 0
    outer loop
      vertex -0.45 -0.95 0.75
      vertex -0.45 -0.879999 0.799999
      vertex -0.45 -0.7 0.75
    endloop
  endfacet
  facet normal -1 0 0
    outer loop
      vertex -0.45 -1 0.799999
      vertex -0.45 -0.95 0.75
      vertex -0.45 -1 0.75
    endloop
  endfacet
  facet normal -1 0 0
    outer loop
      vertex -0.45 -0.95 0.75
      vertex -0.45 -1 0.799999
      vertex -0.45 -0.879999 0.799999
    endloop
  endfacet
  facet normal -1 -0 0
    outer loop
      vertex -0.45 -0.7 0.849999
      vertex -0.45 -0.879999 0.799999
      vertex -0.45 -0.879999 0.849999
    endloop
  endfacet
  facet normal 0 1 -0
    outer loop
      vertex 0.45 -0.7 0.75
      vertex -0.45 -0.7 0.849999
      vertex 0.45 -0.7 0.849999
    endloop
  endfacet
  facet normal 0 1 0
    outer loop
      vertex -0.45 -0.7 0.849999
      vertex 0.45 -0.7 0.75
      vertex -0.45 -0.7 0.75
    endloop
  endfacet
  facet normal 0 -1 0
    outer loop
      vertex -0.549999 -1 0.959999
      vertex -0.429999 -1 0.849999
      vertex -0.429999 -1 0.959999
    endloop
  endfacet
  facet normal 0 -1 0
    outer loop
      vertex -0.45 -1 0.799999
      vertex -0.429999 -1 0.849999
      vertex -0.549999 -1 0.799999
    endloop
  endfacet
  facet normal 0 -1 0
    outer loop
      vertex -0.549999 -1 0.799999
      vertex -0.429999 -1 0.849999
      vertex -0.549999 -1 0.959999
    endloop
  endfacet
  facet normal 0 -1 0
    outer loop
      vertex 0.429999 -1 0.849999
      vertex 0.549999 -1 0.959999
      vertex 0.429999 -1 0.959999
    endloop
  endfacet
  facet normal 0 -1 0
    outer loop
      vertex -0.45 -1 0.75
      vertex -0.429999 -1 0.849999
      vertex -0.45 -1 0.799999
    endloop
  endfacet
  facet normal 0 -1 -0
    outer loop
      vertex -0.429999 -1 0.849999
      vertex -0.45 -1 0.75
      vertex 0.429999 -1 0.849999
    endloop
  endfacet
  facet normal 0 -1 0
    outer loop
      vertex 0.549999 -1 0.799999
      vertex 0.429999 -1 0.849999
      vertex 0.45 -1 0.799999
    endloop
  endfacet
  facet normal 0 -1 0
    outer loop
      vertex 0.429999 -1 0.849999
      vertex 0.549999 -1 0.799999
      vertex 0.549999 -1 0.959999
    endloop
  endfacet
  facet normal 0 -1 0
    outer loop
      vertex 0.45 -1 0.75
      vertex 0.429999 -1 0.849999
      vertex -0.45 -1 0.75
    endloop
  endfacet
  facet normal 0 -1 0
    outer loop
      vertex 0.429999 -1 0.849999
      vertex 0.45 -1 0.75
      vertex 0.45 -1 0.799999
    endloop
  endfacet
  facet normal 1 -0 0
    outer loop
      vertex -0.429999 -1 0.959999
      vertex -0.429999 -0.879999 0.849999
      vertex -0.429999 -0.879999 0.959999
    endloop
  endfacet
  facet normal 1 0 0
    outer loop
      vertex -0.429999 -0.879999 0.849999
      vertex -0.429999 -1 0.959999
      vertex -0.429999 -1 0.849999
    endloop
  endfacet
  facet normal -0 0 1
    outer loop
      vertex -0.549999 -0.879999 0.959999
      vertex -0.429999 -1 0.959999
      vertex -0.429999 -0.879999 0.959999
    endloop
  endfacet
  facet normal 0 0 1
    outer loop
      vertex -0.429999 -1 0.959999
      vertex -0.549999 -0.879999 0.959999
      vertex -0.549999 -1 0.959999
    endloop
  endfacet
  facet normal 0 0 -1
    outer loop
      vertex -0.549999 -1 0.799999
      vertex -0.45 -0.879999 0.799999
      vertex -0.45 -1 0.799999
    endloop
  endfacet
  facet normal -0 0 -1
    outer loop
      vertex -0.45 -0.879999 0.799999
      vertex -0.549999 -1 0.799999
      vertex -0.549999 -0.879999 0.799999
    endloop
  endfacet
  facet normal -1 0 0
    outer loop
      vertex -0.549999 -1 0.799999
      vertex -0.549999 -0.879999 0.959999
      vertex -0.549999 -0.879999 0.799999
    endloop
  endfacet
  facet normal -1 -0 0
    outer loop
      vertex -0.549999 -0.879999 0.959999
      vertex -0.549999 -1 0.799999
      vertex -0.549999 -1 0.959999
    endloop
  endfacet
  facet normal 0 1 0
    outer loop
      vertex -0.45 -0.879999 0.849999
      vertex -0.429999 -0.879999 0.959999
      vertex -0.429999 -0.879999 0.849999
    endloop
  endfacet
  facet normal 0 1 0
    outer loop
      vertex -0.429999 -0.879999 0.959999
      vertex -0.45 -0.879999 0.849999
      vertex -0.549999 -0.879999 0.959999
    endloop
  endfacet
  facet normal 0 1 0
    outer loop
      vertex -0.549999 -0.879999 0.799999
      vertex -0.45 -0.879999 0.849999
      vertex -0.45 -0.879999 0.799999
    endloop
  endfacet
  facet normal 0 1 0
    outer loop
      vertex -0.45 -0.879999 0.849999
      vertex -0.549999 -0.879999 0.799999
      vertex -0.549999 -0.879999 0.959999
    endloop
  endfacet
  facet normal 1 -0 0
    outer loop
      vertex 0.549999 -1 0.959999
      vertex 0.549999 -0.879999 0.799999
      vertex 0.549999 -0.879999 0.959999
    endloop
  endfacet
  facet normal 1 0 0
    outer loop
      vertex 0.549999 -0.879999 0.799999
      vertex 0.549999 -1 0.959999
      vertex 0.549999 -1 0.799999
    endloop
  endfacet
  facet normal -0 0 1
    outer loop
      vertex 0.429999 -0.879999 0.959999
      vertex 0.549999 -1 0.959999
      vertex 0.549999 -0.879999 0.959999
    endloop
  endfacet
  facet normal 0 0 1
    outer loop
      vertex 0.549999 -1 0.959999
      vertex 0.429999 -0.879999 0.959999
      vertex 0.429999 -1 0.959999
    endloop
  endfacet
  facet normal 0 0 -1
    outer loop
      vertex 0.45 -1 0.799999
      vertex 0.549999 -0.879999 0.799999
      vertex 0.549999 -1 0.799999
    endloop
  endfacet
  facet normal -0 0 -1
    outer loop
      vertex 0.549999 -0.879999 0.799999
      vertex 0.45 -1 0.799999
      vertex 0.45 -0.879999 0.799999
    endloop
  endfacet
  facet normal -1 0 0
    outer loop
      vertex 0.429999 -1 0.849999
      vertex 0.429999 -0.879999 0.959999
      vertex 0.429999 -0.879999 0.849999
    endloop
  endfacet
  facet normal -1 -0 0
    outer loop
      vertex 0.429999 -0.879999 0.959999
      vertex 0.429999 -1 0.849999
      vertex 0.429999 -1 0.959999
    endloop
  endfacet
  facet normal 0 1 0
    outer loop
      vertex 0.549999 -0.879999 0.959999
      vertex 0.45 -0.879999 0.849999
      vertex 0.429999 -0.879999 0.959999
    endloop
  endfacet
  facet normal 0 1 -0
    outer loop
      vertex 0.549999 -0.879999 0.799999
      vertex 0.45 -0.879999 0.849999
      vertex 0.549999 -0.879999 0.959999
    endloop
  endfacet
  facet normal 0 1 0
    outer loop
      vertex 0.45 -0.879999 0.849999
      vertex 0.549999 -0.879999 0.799999
      vertex 0.45 -0.879999 0.799999
    endloop
  endfacet
  facet normal 0 1 0
    outer loop
      vertex 0.429999 -0.879999 0.959999
      vertex 0.45 -0.879999 0.849999
      vertex 0.429999 -0.879999 0.849999
    endloop
  endfacet
endsolid OpenSCAD_Model
