solid OpenSCAD_Model
  facet normal 1 -0 0
    outer loop
      vertex 0.45 -0.45 0.36
      vertex 0.45 0.549999 0
      vertex 0.45 0.549999 0.36
    endloop
  endfacet
  facet normal 1 0 0
    outer loop
      vertex 0.45 0.549999 0
      vertex 0.45 -0.45 0.36
      vertex 0.45 -0.45 0
    endloop
  endfacet
  facet normal 0 0 1
    outer loop
      vertex 0.45 0.549999 0.36
      vertex 0.349999 0.45 0.36
      vertex 0.45 -0.45 0.36
    endloop
  endfacet
  facet normal 0 0 1
    outer loop
      vertex 0.45 0.549999 0.36
      vertex -0.349999 0.45 0.36
      vertex 0.349999 0.45 0.36
    endloop
  endfacet
  facet normal 0 0 1
    outer loop
      vertex -0.349999 0.45 0.36
      vertex -0.45 0.549999 0.36
      vertex -0.349999 -0.349999 0.36
    endloop
  endfacet
  facet normal -0 0 1
    outer loop
      vertex -0.45 0.549999 0.36
      vertex -0.349999 0.45 0.36
      vertex 0.45 0.549999 0.36
    endloop
  endfacet
  facet normal -0 0 1
    outer loop
      vertex 0.349999 -0.349999 0.36
      vertex 0.45 -0.45 0.36
      vertex 0.349999 0.45 0.36
    endloop
  endfacet
  facet normal -0 0 1
    outer loop
      vertex -0.349999 -0.349999 0.36
      vertex 0.45 -0.45 0.36
      vertex 0.349999 -0.349999 0.36
    endloop
  endfacet
  facet normal 0 0 1
    outer loop
      vertex -0.349999 -0.349999 0.36
      vertex -0.45 -0.45 0.36
      vertex 0.45 -0.45 0.36
    endloop
  endfacet
  facet normal 0 0 1
    outer loop
      vertex -0.45 -0.45 0.36
      vertex -0.349999 -0.349999 0.36
      vertex -0.45 0.549999 0.36
    endloop
  endfacet
  facet normal 0 0 -1
    outer loop
      vertex -0.45 -0.45 0
      vertex 0.45 0.549999 0
      vertex 0.45 -0.45 0
    endloop
  endfacet
  facet normal -0 0 -1
    outer loop
      vertex 0.45 0.549999 0
      vertex -0.45 -0.45 0
      vertex -0.45 0.549999 0
    endloop
  endfacet
  facet normal -1 0 0
    outer loop
      vertex -0.45 -0.45 0
      vertex -0.45 0.549999 0.36
      vertex -0.45 0.549999 0
    endloop
  endfacet
  facet normal -1 -0 0
    outer loop
      vertex -0.45 0.549999 0.36
      vertex -0.45 -0.45 0
      vertex -0.45 -0.45 0.36
    endloop
  endfacet
  facet normal 0 1 0
    outer loop
      vertex 0.45 0.549999 0.36
      vertex 0.25 0.549999 0.339999
      vertex -0.45 0.549999 0.36
    endloop
  endfacet
  facet normal 0 1 0
    outer loop
      vertex 0.45 0.549999 0.36
      vertex 0.25 0.549999 0.0599995
      vertex 0.25 0.549999 0.339999
    endloop
  endfacet
  facet normal 0 1 0
    outer loop
      vertex 0.25 0.549999 0.0599995
      vertex 0.45 0.549999 0
      vertex -0.25 0.549999 0.0599995
    endloop
  endfacet
  facet normal 0 1 -0
    outer loop
      vertex 0.45 0.549999 0
      vertex 0.25 0.549999 0.0599995
      vertex 0.45 0.549999 0.36
    endloop
  endfacet
  facet normal 0 1 -0
    outer loop
      vertex -0.25 0.549999 0.339999
      vertex -0.45 0.549999 0.36
      vertex 0.25 0.549999 0.339999
    endloop
  endfacet
  facet normal 0 1 -0
    outer loop
      vertex -0.25 0.549999 0.0599995
      vertex -0.45 0.549999 0.36
      vertex -0.25 0.549999 0.339999
    endloop
  endfacet
  facet normal 0 1 0
    outer loop
      vertex -0.25 0.549999 0.0599995
      vertex -0.45 0.549999 0
      vertex -0.45 0.549999 0.36
    endloop
  endfacet
  facet normal 0 1 0
    outer loop
      vertex -0.45 0.549999 0
      vertex -0.25 0.549999 0.0599995
      vertex 0.45 0.549999 0
    endloop
  endfacet
  facet normal 0 -1 0
    outer loop
      vertex -0.45 -0.45 0
      vertex 0.45 -0.45 0.36
      vertex -0.45 -0.45 0.36
    endloop
  endfacet
  facet normal 0 -1 -0
    outer loop
      vertex 0.45 -0.45 0.36
      vertex -0.45 -0.45 0
      vertex 0.45 -0.45 0
    endloop
  endfacet
  facet normal 1 -0 0
    outer loop
      vertex 0.349999 -0.349999 0.44
      vertex 0.349999 0.45 0.36
      vertex 0.349999 0.45 0.44
    endloop
  endfacet
  facet normal 1 0 0
    outer loop
      vertex 0.349999 0.45 0.36
      vertex 0.349999 -0.349999 0.44
      vertex 0.349999 -0.349999 0.36
    endloop
  endfacet
  facet normal 0 0 1
    outer loop
      vertex 0.349999 0.45 0.44
      vertex -0.0599995 -0.15 0.44
      vertex 0.349999 -0.349999 0.44
    endloop
  endfacet
  facet normal 0 0 1
    outer loop
      vertex 0.349999 0.45 0.44
      vertex -0.101005 -0.0510044 0.44
      vertex -0.0599995 -0.15 0.44
    endloop
  endfacet
  facet normal -0 0 1
    outer loop
      vertex -0.349999 0.45 0.44
      vertex -0.101005 -0.0510044 0.44
      vertex 0.349999 0.45 0.44
    endloop
  endfacet
  facet normal 0 0 1
    outer loop
      vertex -0.101005 -0.0510044 0.44
      vertex -0.349999 0.45 0.44
      vertex -0.2 -0.00999928 0.44
    endloop
  endfacet
  facet normal 0 0 1
    outer loop
      vertex -0.298994 -0.0510044 0.44
      vertex -0.349999 0.45 0.44
      vertex -0.339999 -0.15 0.44
    endloop
  endfacet
  facet normal 0 0 1
    outer loop
      vertex -0.2 -0.00999928 0.44
      vertex -0.349999 0.45 0.44
      vertex -0.298994 -0.0510044 0.44
    endloop
  endfacet
  facet normal -0 0 1
    outer loop
      vertex -0.101005 -0.248995 0.44
      vertex 0.349999 -0.349999 0.44
      vertex -0.0599995 -0.15 0.44
    endloop
  endfacet
  facet normal -0 0 1
    outer loop
      vertex -0.2 -0.29 0.44
      vertex 0.349999 -0.349999 0.44
      vertex -0.101005 -0.248995 0.44
    endloop
  endfacet
  facet normal 0 0 1
    outer loop
      vertex -0.2 -0.29 0.44
      vertex -0.349999 -0.349999 0.44
      vertex 0.349999 -0.349999 0.44
    endloop
  endfacet
  facet normal 0 0 1
    outer loop
      vertex -0.298994 -0.248995 0.44
      vertex -0.349999 -0.349999 0.44
      vertex -0.2 -0.29 0.44
    endloop
  endfacet
  facet normal 0 0 1
    outer loop
      vertex -0.339999 -0.15 0.44
      vertex -0.349999 -0.349999 0.44
      vertex -0.298994 -0.248995 0.44
    endloop
  endfacet
  facet normal 0 0 1
    outer loop
      vertex -0.349999 -0.349999 0.44
      vertex -0.339999 -0.15 0.44
      vertex -0.349999 0.45 0.44
    endloop
  endfacet
  facet normal -1 0 0
    outer loop
      vertex -0.349999 -0.349999 0.36
      vertex -0.349999 0.45 0.44
      vertex -0.349999 0.45 0.36
    endloop
  endfacet
  facet normal -1 -0 0
    outer loop
      vertex -0.349999 0.45 0.44
      vertex -0.349999 -0.349999 0.36
      vertex -0.349999 -0.349999 0.44
    endloop
  endfacet
  facet normal 0 1 -0
    outer loop
      vertex 0.349999 0.45 0.36
      vertex -0.349999 0.45 0.44
      vertex 0.349999 0.45 0.44
    endloop
  endfacet
  facet normal 0 1 0
    outer loop
      vertex -0.349999 0.45 0.44
      vertex 0.349999 0.45 0.36
      vertex -0.349999 0.45 0.36
    endloop
  endfacet
  facet normal 0 -1 0
    outer loop
      vertex -0.349999 -0.349999 0.36
      vertex 0.349999 -0.349999 0.44
      vertex -0.349999 -0.349999 0.44
    endloop
  endfacet
  facet normal 0 -1 -0
    outer loop
      vertex 0.349999 -0.349999 0.44
      vertex -0.349999 -0.349999 0.36
      vertex 0.349999 -0.349999 0.36
    endloop
  endfacet
  facet normal 1 -0 0
    outer loop
      vertex 0.25 0.549999 0.339999
      vertex 0.25 0.724999 0.0599995
      vertex 0.25 0.724999 0.339999
    endloop
  endfacet
  facet normal 1 0 0
    outer loop
      vertex 0.25 0.724999 0.0599995
      vertex 0.25 0.549999 0.339999
      vertex 0.25 0.549999 0.0599995
    endloop
  endfacet
  facet normal -0 0 1
    outer loop
      vertex -0.25 0.724999 0.339999
      vertex 0.25 0.549999 0.339999
      vertex 0.25 0.724999 0.339999
    endloop
  endfacet
  facet normal 0 0 1
    outer loop
      vertex 0.25 0.549999 0.339999
      vertex -0.25 0.724999 0.339999
      vertex -0.25 0.549999 0.339999
    endloop
  endfacet
  facet normal 0 0 -1
    outer loop
      vertex -0.25 0.549999 0.0599995
      vertex 0.25 0.724999 0.0599995
      vertex 0.25 0.549999 0.0599995
    endloop
  endfacet
  facet normal -0 0 -1
    outer loop
      vertex 0.25 0.724999 0.0599995
      vertex -0.25 0.549999 0.0599995
      vertex -0.25 0.724999 0.0599995
    endloop
  endfacet
  facet normal -1 0 0
    outer loop
      vertex -0.25 0.549999 0.0599995
      vertex -0.25 0.724999 0.339999
      vertex -0.25 0.724999 0.0599995
    endloop
  endfacet
  facet normal -1 -0 0
    outer loop
      vertex -0.25 0.724999 0.339999
      vertex -0.25 0.549999 0.0599995
      vertex -0.25 0.549999 0.339999
    endloop
  endfacet
  facet normal 0 1 0
    outer loop
      vertex 0.25 0.724999 0.339999
      vertex 0 0.724999 0.27
      vertex -0.25 0.724999 0.339999
    endloop
  endfacet
  facet normal 0 1 0
    outer loop
      vertex 0.25 0.724999 0.339999
      vertex 0.0494967 0.724999 0.249497
      vertex 0 0.724999 0.27
    endloop
  endfacet
  facet normal 0 1 0
    outer loop
      vertex 0.25 0.724999 0.339999
      vertex 0.0699997 0.724999 0.2
      vertex 0.0494967 0.724999 0.249497
    endloop
  endfacet
  facet normal 0 1 -0
    outer loop
      vertex 0.25 0.724999 0.0599995
      vertex 0.0699997 0.724999 0.2
      vertex 0.25 0.724999 0.339999
    endloop
  endfacet
  facet normal 0 1 0
    outer loop
      vertex 0.0494967 0.724999 0.150502
      vertex 0.25 0.724999 0.0599995
      vertex 0 0.724999 0.129999
    endloop
  endfacet
  facet normal 0 1 0
    outer loop
      vertex 0.0699997 0.724999 0.2
      vertex 0.25 0.724999 0.0599995
      vertex 0.0494967 0.724999 0.150502
    endloop
  endfacet
  facet normal 0 1 -0
    outer loop
      vertex -0.0494967 0.724999 0.249497
      vertex -0.25 0.724999 0.339999
      vertex 0 0.724999 0.27
    endloop
  endfacet
  facet normal 0 1 -0
    outer loop
      vertex -0.0699997 0.724999 0.2
      vertex -0.25 0.724999 0.339999
      vertex -0.0494967 0.724999 0.249497
    endloop
  endfacet
  facet normal 0 1 0
    outer loop
      vertex -0.25 0.724999 0.0599995
      vertex -0.0699997 0.724999 0.2
      vertex -0.0494967 0.724999 0.150502
    endloop
  endfacet
  facet normal 0 1 0
    outer loop
      vertex -0.0699997 0.724999 0.2
      vertex -0.25 0.724999 0.0599995
      vertex -0.25 0.724999 0.339999
    endloop
  endfacet
  facet normal 0 1 0
    outer loop
      vertex 0 0.724999 0.129999
      vertex -0.25 0.724999 0.0599995
      vertex -0.0494967 0.724999 0.150502
    endloop
  endfacet
  facet normal 0 1 0
    outer loop
      vertex -0.25 0.724999 0.0599995
      vertex 0 0.724999 0.129999
      vertex 0.25 0.724999 0.0599995
    endloop
  endfacet
  facet normal -0.923875 0 0.382694
    outer loop
      vertex -0.0699997 0.724999 0.2
      vertex -0.0494967 1.78 0.249497
      vertex -0.0699997 1.78 0.2
    endloop
  endfacet
  facet normal -0.923875 0 0.382694
    outer loop
      vertex -0.0494967 1.78 0.249497
      vertex -0.0699997 0.724999 0.2
      vertex -0.0494967 0.724999 0.249497
    endloop
  endfacet
  facet normal 0.382696 0 -0.923874
    outer loop
      vertex 0 0.724999 0.129999
      vertex 0.0494967 1.78 0.150502
      vertex 0.0494967 0.724999 0.150502
    endloop
  endfacet
  facet normal 0.382696 0 -0.923874
    outer loop
      vertex 0.0494967 1.78 0.150502
      vertex 0 0.724999 0.129999
      vertex 0 1.78 0.129999
    endloop
  endfacet
  facet normal 0.923878 0 -0.382688
    outer loop
      vertex 0.0699997 0.724999 0.2
      vertex 0.0494967 1.78 0.150502
      vertex 0.0699997 1.78 0.2
    endloop
  endfacet
  facet normal 0.923878 0 -0.382688
    outer loop
      vertex 0.0494967 1.78 0.150502
      vertex 0.0699997 0.724999 0.2
      vertex 0.0494967 0.724999 0.150502
    endloop
  endfacet
  facet normal 0.382696 0 0.923874
    outer loop
      vertex 0 1.78 0.27
      vertex 0.0494967 0.724999 0.249497
      vertex 0.0494967 1.78 0.249497
    endloop
  endfacet
  facet normal 0.382696 0 0.923874
    outer loop
      vertex 0.0494967 0.724999 0.249497
      vertex 0 1.78 0.27
      vertex 0 0.724999 0.27
    endloop
  endfacet
  facet normal -0.923878 0 -0.382688
    outer loop
      vertex -0.0494967 0.724999 0.150502
      vertex -0.0699997 1.78 0.2
      vertex -0.0494967 1.78 0.150502
    endloop
  endfacet
  facet normal -0.923878 -0 -0.382688
    outer loop
      vertex -0.0699997 1.78 0.2
      vertex -0.0494967 0.724999 0.150502
      vertex -0.0699997 0.724999 0.2
    endloop
  endfacet
  facet normal 0.923875 -0 0.382694
    outer loop
      vertex 0.0494967 0.724999 0.249497
      vertex 0.0699997 1.78 0.2
      vertex 0.0494967 1.78 0.249497
    endloop
  endfacet
  facet normal 0.923875 0 0.382694
    outer loop
      vertex 0.0699997 1.78 0.2
      vertex 0.0494967 0.724999 0.249497
      vertex 0.0699997 0.724999 0.2
    endloop
  endfacet
  facet normal -0.382696 0 -0.923874
    outer loop
      vertex -0.0494967 0.724999 0.150502
      vertex 0 1.78 0.129999
      vertex 0 0.724999 0.129999
    endloop
  endfacet
  facet normal -0.382696 0 -0.923874
    outer loop
      vertex 0 1.78 0.129999
      vertex -0.0494967 0.724999 0.150502
      vertex -0.0494967 1.78 0.150502
    endloop
  endfacet
  facet normal -0.382696 0 0.923874
    outer loop
      vertex -0.0494967 1.78 0.249497
      vertex 0 0.724999 0.27
      vertex 0 1.78 0.27
    endloop
  endfacet
  facet normal -0.382696 0 0.923874
    outer loop
      vertex 0 0.724999 0.27
      vertex -0.0494967 1.78 0.249497
      vertex -0.0494967 0.724999 0.249497
    endloop
  endfacet
  facet normal 1 -0 0
    outer loop
      vertex 0.0899992 1.78 0.29
      vertex 0.0899992 1.92 0.11
      vertex 0.0899992 1.92 0.29
    endloop
  endfacet
  facet normal 1 0 0
    outer loop
      vertex 0.0899992 1.92 0.11
      vertex 0.0899992 1.78 0.29
      vertex 0.0899992 1.78 0.11
    endloop
  endfacet
  facet normal -0 0 1
    outer loop
      vertex -0.0899992 1.92 0.29
      vertex 0.0899992 1.78 0.29
      vertex 0.0899992 1.92 0.29
    endloop
  endfacet
  facet normal 0 0 1
    outer loop
      vertex 0.0899992 1.78 0.29
      vertex -0.0899992 1.92 0.29
      vertex -0.0899992 1.78 0.29
    endloop
  endfacet
  facet normal 0 0 -1
    outer loop
      vertex -0.0899992 1.78 0.11
      vertex 0.0899992 1.92 0.11
      vertex 0.0899992 1.78 0.11
    endloop
  endfacet
  facet normal -0 0 -1
    outer loop
      vertex 0.0899992 1.92 0.11
      vertex -0.0899992 1.78 0.11
      vertex -0.0899992 1.92 0.11
    endloop
  endfacet
  facet normal -1 0 0
    outer loop
      vertex -0.0899992 1.78 0.11
      vertex -0.0899992 1.92 0.29
      vertex -0.0899992 1.92 0.11
    endloop
  endfacet
  facet normal -1 -0 0
    outer loop
      vertex -0.0899992 1.92 0.29
      vertex -0.0899992 1.78 0.11
      vertex -0.0899992 1.78 0.29
    endloop
  endfacet
  facet normal 0 1 -0
    outer loop
      vertex 0.0899992 1.92 0.11
      vertex -0.0899992 1.92 0.29
      vertex 0.0899992 1.92 0.29
    endloop
  endfacet
  facet normal 0 1 0
    outer loop
      vertex -0.0899992 1.92 0.29
      vertex 0.0899992 1.92 0.11
      vertex -0.0899992 1.92 0.11
    endloop
  endfacet
  facet normal 0 -1 0
    outer loop
      vertex -0.0899992 1.78 0.29
      vertex 0 1.78 0.27
      vertex 0.0899992 1.78 0.29
    endloop
  endfacet
  facet normal 0 -1 0
    outer loop
      vertex -0.0899992 1.78 0.29
      vertex -0.0494967 1.78 0.249497
      vertex 0 1.78 0.27
    endloop
  endfacet
  facet normal 0 -1 0
    outer loop
      vertex -0.0899992 1.78 0.29
      vertex -0.0699997 1.78 0.2
      vertex -0.0494967 1.78 0.249497
    endloop
  endfacet
  facet normal 0 -1 -0
    outer loop
      vertex -0.0494967 1.78 0.150502
      vertex -0.0899992 1.78 0.11
      vertex 0 1.78 0.129999
    endloop
  endfacet
  facet normal 0 -1 -0
    outer loop
      vertex -0.0699997 1.78 0.2
      vertex -0.0899992 1.78 0.11
      vertex -0.0494967 1.78 0.150502
    endloop
  endfacet
  facet normal 0 -1 0
    outer loop
      vertex -0.0899992 1.78 0.11
      vertex -0.0699997 1.78 0.2
      vertex -0.0899992 1.78 0.29
    endloop
  endfacet
  facet normal 0 -1 0
    outer loop
      vertex 0.0494967 1.78 0.249497
      vertex 0.0899992 1.78 0.29
      vertex 0 1.78 0.27
    endloop
  endfacet
  facet normal 0 -1 0
    outer loop
      vertex 0.0699997 1.78 0.2
      vertex 0.0899992 1.78 0.29
      vertex 0.0494967 1.78 0.249497
    endloop
  endfacet
  facet normal 0 -1 0
    outer loop
      vertex 0.0699997 1.78 0.2
      vertex 0.0899992 1.78 0.11
      vertex 0.0899992 1.78 0.29
    endloop
  endfacet
  facet normal 0 -1 0
    outer loop
      vertex 0.0494967 1.78 0.150502
      vertex 0.0899992 1.78 0.11
      vertex 0.0699997 1.78 0.2
    endloop
  endfacet
  facet normal 0 -1 0
    outer loop
      vertex 0 1.78 0.129999
      vertex 0.0899992 1.78 0.11
      vertex 0.0494967 1.78 0.150502
    endloop
  endfacet
  facet normal 0 -1 0
    outer loop
      vertex 0.0899992 1.78 0.11
      vertex 0 1.78 0.129999
      vertex -0.0899992 1.78 0.11
    endloop
  endfacet
  facet normal -0.92388 -0.382683 0
    outer loop
      vertex -0.298994 -0.248995 0.44
      vertex -0.339999 -0.15 0.54
      vertex -0.339999 -0.15 0.44
    endloop
  endfacet
  facet normal -0.92388 -0.382683 0
    outer loop
      vertex -0.339999 -0.15 0.54
      vertex -0.298994 -0.248995 0.44
      vertex -0.298994 -0.248995 0.54
    endloop
  endfacet
  facet normal 0.382684 0.923879 -0
    outer loop
      vertex -0.101005 -0.0510044 0.44
      vertex -0.2 -0.00999928 0.54
      vertex -0.101005 -0.0510044 0.54
    endloop
  endfacet
  facet normal 0.382684 0.923879 0
    outer loop
      vertex -0.2 -0.00999928 0.54
      vertex -0.101005 -0.0510044 0.44
      vertex -0.2 -0.00999928 0.44
    endloop
  endfacet
  facet normal 0.923879 0.382685 0
    outer loop
      vertex -0.0599995 -0.15 0.54
      vertex -0.101005 -0.0510044 0.44
      vertex -0.101005 -0.0510044 0.54
    endloop
  endfacet
  facet normal 0.923879 0.382685 0
    outer loop
      vertex -0.101005 -0.0510044 0.44
      vertex -0.0599995 -0.15 0.54
      vertex -0.0599995 -0.15 0.44
    endloop
  endfacet
  facet normal 0.382683 -0.92388 0
    outer loop
      vertex -0.2 -0.29 0.44
      vertex -0.101005 -0.248995 0.54
      vertex -0.2 -0.29 0.54
    endloop
  endfacet
  facet normal 0.382683 -0.92388 0
    outer loop
      vertex -0.101005 -0.248995 0.54
      vertex -0.2 -0.29 0.44
      vertex -0.101005 -0.248995 0.44
    endloop
  endfacet
  facet normal -0.382686 -0.923878 0
    outer loop
      vertex -0.298994 -0.248995 0.44
      vertex -0.2 -0.29 0.54
      vertex -0.298994 -0.248995 0.54
    endloop
  endfacet
  facet normal -0.382686 -0.923878 -0
    outer loop
      vertex -0.2 -0.29 0.54
      vertex -0.298994 -0.248995 0.44
      vertex -0.2 -0.29 0.44
    endloop
  endfacet
  facet normal 0 0 1
    outer loop
      vertex -0.101005 -0.0510044 0.54
      vertex -0.101005 -0.248995 0.54
      vertex -0.0599995 -0.15 0.54
    endloop
  endfacet
  facet normal 0 0 1
    outer loop
      vertex -0.2 -0.00999928 0.54
      vertex -0.101005 -0.248995 0.54
      vertex -0.101005 -0.0510044 0.54
    endloop
  endfacet
  facet normal 0 0 1
    outer loop
      vertex -0.2 -0.00999928 0.54
      vertex -0.2 -0.29 0.54
      vertex -0.101005 -0.248995 0.54
    endloop
  endfacet
  facet normal -0 0 1
    outer loop
      vertex -0.298994 -0.0510044 0.54
      vertex -0.2 -0.29 0.54
      vertex -0.2 -0.00999928 0.54
    endloop
  endfacet
  facet normal 0 0 1
    outer loop
      vertex -0.298994 -0.0510044 0.54
      vertex -0.298994 -0.248995 0.54
      vertex -0.2 -0.29 0.54
    endloop
  endfacet
  facet normal 0 -0 1
    outer loop
      vertex -0.298994 -0.248995 0.54
      vertex -0.298994 -0.0510044 0.54
      vertex -0.339999 -0.15 0.54
    endloop
  endfacet
  facet normal 0.923878 -0.382687 0
    outer loop
      vertex -0.101005 -0.248995 0.54
      vertex -0.0599995 -0.15 0.44
      vertex -0.0599995 -0.15 0.54
    endloop
  endfacet
  facet normal 0.923878 -0.382687 0
    outer loop
      vertex -0.0599995 -0.15 0.44
      vertex -0.101005 -0.248995 0.54
      vertex -0.101005 -0.248995 0.44
    endloop
  endfacet
  facet normal -0.923881 0.382681 0
    outer loop
      vertex -0.339999 -0.15 0.44
      vertex -0.298994 -0.0510044 0.54
      vertex -0.298994 -0.0510044 0.44
    endloop
  endfacet
  facet normal -0.923881 0.382681 0
    outer loop
      vertex -0.298994 -0.0510044 0.54
      vertex -0.339999 -0.15 0.44
      vertex -0.339999 -0.15 0.54
    endloop
  endfacet
  facet normal -0.382687 0.923878 0
    outer loop
      vertex -0.2 -0.00999928 0.44
      vertex -0.298994 -0.0510044 0.54
      vertex -0.2 -0.00999928 0.54
    endloop
  endfacet
  facet normal -0.382687 0.923878 0
    outer loop
      vertex -0.298994 -0.0510044 0.54
      vertex -0.2 -0.00999928 0.44
      vertex -0.298994 -0.0510044 0.44
    endloop
  endfacet
endsolid OpenSCAD_Model
